<svg width="229" height="171" viewBox="0 0 229 171" fill="none" xmlns="http://www.w3.org/2000/svg">
<g clip-path="url(#clip0_198_440)">
<path opacity="0.18" d="M88.1454 5.46718C63.9036 14.2882 43.5287 32.9492 36.1651 55.0513C34.0494 61.4094 32.9152 67.9655 30.4645 74.2654C27.7377 81.2524 23.4124 87.7794 20.4211 94.7023C11.3532 115.518 15.9018 139.297 30.2765 156.094C41.1075 168.747 57.1218 173.8 75.3869 169.486C84.3843 167.367 92.1299 162.616 100.851 160.129C112.881 156.7 126.474 157.026 138.762 156.712C152.491 156.356 181.258 151.471 195.033 150.307C216.154 148.514 215.143 105.09 210.512 94.1433C205.881 83.1971 198.665 73.3513 193.47 62.6263C187.464 50.2361 184.096 36.6174 175.698 25.4441C162.84 8.33183 138.762 -0.984115 114.732 0.0813961C105.643 0.512273 96.6756 2.32887 88.1454 5.46718Z" fill="#00BFA6"/>
<path d="M113.745 153.83C162.125 153.83 201.345 149.904 201.345 145.061C201.345 140.218 162.125 136.292 113.745 136.292C65.3648 136.292 26.1451 140.218 26.1451 145.061C26.1451 149.904 65.3648 153.83 113.745 153.83Z" fill="url(#paint0_linear_198_440)"/>
<path d="M137.611 113.823H104.418L98.3828 88.356H131.575L137.611 113.823Z" fill="#00BFA6"/>
<path d="M135.648 113.823H104.418L98.3828 88.356H129.612L135.648 113.823Z" fill="url(#paint1_linear_198_440)"/>
<path d="M181.581 112.898H63.2101V144.141H181.581V112.898Z" fill="#00BFA6"/>
<path d="M181.581 112.898H63.2101V144.141H181.581V112.898Z" fill="url(#paint2_linear_198_440)"/>
<path d="M162.058 22.3816H65.4374C59.7348 22.3816 55.1119 26.9618 55.1119 32.6117V86.1434C55.1119 91.7933 59.7348 96.3735 65.4374 96.3735H162.058C167.761 96.3735 172.384 91.7933 172.384 86.1434V32.6117C172.384 26.9618 167.761 22.3816 162.058 22.3816Z" fill="#00BFA6"/>
<path d="M172.384 81.6951V86.1376C172.381 88.8499 171.292 91.4501 169.356 93.368C167.42 95.2858 164.796 96.3646 162.058 96.3677H65.4316C62.6931 96.3677 60.0667 95.2899 58.1303 93.3714C56.1939 91.4529 55.106 88.8508 55.106 86.1376V81.6951H172.384Z" fill="url(#paint3_linear_198_440)"/>
<path opacity="0.1" d="M158.638 72.542V101.34H133.479C132.782 101.34 132.114 101.066 131.622 100.578C131.129 100.09 130.852 99.4275 130.852 98.7373V75.1446C130.852 74.4544 131.129 73.7924 131.622 73.3043C132.114 72.8162 132.782 72.542 133.479 72.542H158.638Z" fill="#020202"/>
<path d="M93.5227 97.0256H112.276C112.436 97.0256 112.595 97.057 112.743 97.1178C112.892 97.1787 113.026 97.2679 113.14 97.3804C113.253 97.4928 113.344 97.6263 113.405 97.7732C113.466 97.9202 113.498 98.0777 113.498 98.2367C113.498 98.3957 113.466 98.5532 113.405 98.7002C113.344 98.8471 113.253 98.9806 113.14 99.0931C113.026 99.2055 112.892 99.2947 112.743 99.3556C112.595 99.4165 112.436 99.4478 112.276 99.4478H93.5227C93.3622 99.4478 93.2032 99.4165 93.0549 99.3556C92.9066 99.2947 92.7719 99.2055 92.6584 99.0931C92.5449 98.9806 92.4548 98.8471 92.3934 98.7002C92.332 98.5532 92.3004 98.3957 92.3004 98.2367C92.3004 97.9155 92.4291 97.6075 92.6584 97.3804C92.8876 97.1532 93.1985 97.0256 93.5227 97.0256Z" fill="#473F47"/>
<path d="M96.5552 90.5452L95.9969 94.1959L97.5425 94.3706L99.2291 90.5103L96.5552 90.5452Z" fill="#FCBDBA"/>
<path d="M98.0067 93.835C97.9317 93.7753 97.8663 93.7046 97.8128 93.6254C97.7338 93.6742 97.645 93.7053 97.5526 93.7164C97.4602 93.7274 97.3664 93.7182 97.278 93.6894L96.5023 93.5613C96.366 93.5451 96.2331 93.5078 96.1085 93.4507H96.0556L95.8911 93.7651C95.6096 94.3268 95.4438 94.9384 95.4033 95.5642C96.8712 95.9089 98.38 96.0519 99.8873 95.9893C100.008 96.0057 100.131 95.9901 100.243 95.9441C100.356 95.898 100.454 95.8232 100.528 95.7273C100.557 95.6621 100.572 95.5917 100.572 95.5206C100.572 95.4494 100.557 95.379 100.528 95.3139C100.457 95.1663 100.357 95.0342 100.234 94.9253C100.111 94.8163 99.9669 94.7327 99.8109 94.6792C99.4113 94.5162 99.0058 94.3765 98.6355 94.1901C98.4107 94.1005 98.1991 93.981 98.0067 93.835Z" fill="#00BFA6"/>
<path d="M106.922 91.6572L106.44 95.3195L107.991 95.4592L109.596 91.5698L106.922 91.6572Z" fill="#FCBDBA"/>
<path opacity="0.1" d="M159.619 40.6349V51.9363C159.619 53.4218 159.024 54.8465 157.963 55.897C156.903 56.9474 155.465 57.5375 153.966 57.5375H120.862L107.445 72.8273V35.0337H153.966C154.708 35.0337 155.443 35.1786 156.129 35.4601C156.815 35.7415 157.438 36.1541 157.963 36.6742C158.488 37.1944 158.905 37.8118 159.189 38.4914C159.473 39.171 159.619 39.8993 159.619 40.6349Z" fill="#020202"/>
<path d="M152.602 30.2244H115.167C112.045 30.2244 109.514 32.7321 109.514 35.8256V47.127C109.514 50.2204 112.045 52.7282 115.167 52.7282H152.602C155.725 52.7282 158.256 50.2204 158.256 47.127V35.8256C158.256 32.7321 155.725 30.2244 152.602 30.2244Z" fill="white"/>
<path opacity="0.1" d="M116.084 49.9394C115.894 49.9562 115.703 49.9283 115.525 49.8579C115.239 49.6604 115.043 49.3592 114.979 49.0195C114.056 46.1956 112.146 43.4474 109.278 42.6147C108.532 45.625 108.585 48.7691 108.644 51.8725C108.644 52.6993 108.738 53.6483 109.408 54.1374C109.845 54.4044 110.353 54.5343 110.865 54.51C114.117 54.6324 117.349 53.9501 120.268 52.5246C121.144 52.0937 122.948 50.411 121.267 49.8637C120.762 49.6949 119.645 49.9511 119.104 49.9511L116.084 49.9394Z" fill="#020202"/>
<path d="M96.42 65.1359L98.7237 77.8231L96.42 91.471L100.152 91.7563L105.588 76.3849L103.748 64.2043L96.42 65.1359Z" fill="#473F47"/>
<path d="M109.302 64.2043L113.445 81.0953L110.095 92.7228L106.775 92.5539L107.239 82.6325L101.392 66.5916L109.302 64.2043Z" fill="#473F47"/>
<path d="M120.709 50.1954C121.207 49.907 121.74 49.682 122.296 49.5258C122.383 49.4872 122.478 49.4702 122.573 49.4763C122.668 49.4824 122.761 49.5114 122.842 49.5607C122.928 49.6407 122.984 49.7476 123.001 49.8635C123.087 50.2363 123.056 50.6263 122.913 50.9814C123.539 51.3251 124.196 51.6097 124.875 51.8315C125.017 51.8555 125.153 51.9082 125.273 51.9863C125.393 52.0644 125.496 52.1663 125.575 52.2856C125.617 52.4103 125.62 52.5445 125.585 52.6711C125.549 52.7977 125.476 52.9109 125.375 52.996C125.17 53.1648 124.922 53.2754 124.658 53.3162C122.954 53.7121 120.18 53.3162 119.774 51.2958C119.686 50.8533 119.851 50.7776 120.203 50.5272C120.391 50.405 120.562 50.3002 120.709 50.1954Z" fill="#FCBDBA"/>
<path d="M107.903 34.6089C108.291 35.3793 108.539 36.2108 108.638 37.0659C108.683 37.4929 108.616 37.9242 108.441 38.3173C108.267 38.7104 107.993 39.0518 107.645 39.3076C107.433 39.4047 107.235 39.53 107.057 39.6802C106.434 40.3149 107.145 41.4619 106.787 42.2829C106.648 42.5531 106.413 42.7626 106.128 42.8703C105.842 42.9779 105.526 42.9761 105.241 42.8651C104.956 42.7418 104.703 42.557 104.5 42.3243C104.297 42.0916 104.148 41.8169 104.066 41.5201C103.907 40.9239 103.836 40.3082 103.854 39.6919L103.79 36.0237C103.707 35.2073 103.837 34.3836 104.166 33.6307C104.39 33.2472 104.716 32.9324 105.109 32.7209C105.502 32.5093 105.946 32.4091 106.393 32.4313C107.327 32.5477 107.592 33.8869 107.903 34.6089Z" fill="#FCBDBA"/>
<path d="M120.821 52.9261C120.821 52.9261 113.721 59.2085 113.21 59.2085C112.699 59.2085 109.543 55.2609 109.543 55.2609L109.302 64.2275C108.425 64.7398 107.512 65.1874 106.569 65.5667C104.946 66.3009 103.176 66.6593 101.392 66.6147C97.9421 66.3061 96.42 65.1591 96.42 65.1591L98.5474 44.0992C98.5474 44.0992 102.567 41.2346 103.942 41.6713C104.926 41.8459 105.933 41.8459 106.916 41.6713C108.902 41.4093 110.93 44.0992 110.93 44.0992L113.569 52.6874L119.757 50.5098C120.16 50.7589 120.477 51.1231 120.667 51.5545C120.857 51.9858 120.91 52.464 120.821 52.9261Z" fill="white"/>
<path d="M108.685 30.6554C108.731 30.1929 108.621 29.7283 108.373 29.3337C107.897 28.6757 106.922 28.6175 106.123 28.7922C105.573 28.9415 105.041 29.1484 104.536 29.4094C104.164 29.5611 103.759 29.6133 103.361 29.5608C102.305 29.5422 101.283 29.9209 100.499 30.6204C99.4172 31.6336 99.1645 33.1299 99.0528 34.5331C98.9353 36.1227 99.6405 37.4444 100.704 38.6555C101.603 39.7093 103.243 40.7457 104.412 39.4124C104.934 38.7346 105.172 37.8838 105.077 37.0368C104.796 37.0084 104.532 36.8937 104.322 36.7089C104.111 36.524 103.964 36.2782 103.901 36.0062C103.861 35.8353 103.869 35.6567 103.925 35.4901C103.981 35.3236 104.083 35.1758 104.219 35.063C104.302 35.0132 104.394 34.9803 104.49 34.9659C104.587 34.9516 104.685 34.9562 104.779 34.9794C104.874 35.0027 104.963 35.0441 105.041 35.1014C105.119 35.1587 105.185 35.2307 105.235 35.3134C105.269 35.3656 105.295 35.4225 105.312 35.4822C105.481 35.1444 105.606 34.7863 105.682 34.4167C105.817 34.0615 106.27 33.7529 106.563 33.9917C106.734 34.1256 106.834 34.4225 107.051 34.3759C107.123 34.3491 107.186 34.3027 107.233 34.242C107.661 33.8343 108.022 33.3628 108.303 32.8446C108.566 32.2332 108.704 31.5762 108.708 30.9116C108.686 30.8281 108.678 30.7415 108.685 30.6554Z" fill="#FC682D"/>
<path d="M94.7334 29.8751C93.986 29.7873 93.2294 29.9275 92.5646 30.2771C91.8999 30.6267 91.3587 31.169 91.0133 31.8315C90.1965 33.4909 90.7841 35.4531 90.9193 37.2988C91.0421 37.9395 90.9414 38.6025 90.6339 39.179C90.3264 39.7556 89.8302 40.2115 89.2268 40.472C87.9104 41.2581 86.3942 41.7879 85.3422 42.9C84.5139 43.8141 84.0247 44.9806 83.9553 46.2072C83.8896 46.7184 83.9796 47.2375 84.2139 47.6977C84.4437 48.0381 84.7442 48.3259 85.0954 48.542C86.0693 49.2394 87.1739 49.7373 88.3445 50.0062C89.5151 50.2752 90.7282 50.3098 91.9125 50.1082C93.0937 49.8863 94.1868 49.3359 95.064 48.5214C95.9413 47.7069 96.5665 46.6619 96.8666 45.5085C97.3838 43.0514 96.1262 40.6118 95.6501 38.143C95.5631 37.8538 95.5353 37.5502 95.5687 37.2502C95.602 36.9502 95.6956 36.6598 95.8441 36.3963C96.2378 35.8723 96.9665 35.75 97.5366 35.4181C100.622 33.619 96.9959 30.1779 94.7334 29.8751Z" fill="#FC682D"/>
<path d="M99.1292 32.2507H99.0763C98.4304 32.2507 97.9068 32.7695 97.9068 33.4094V33.4618C97.9068 34.1017 98.4304 34.6205 99.0763 34.6205H99.1292C99.7751 34.6205 100.299 34.1017 100.299 33.4618V33.4094C100.299 32.7695 99.7751 32.2507 99.1292 32.2507Z" fill="#00BFA6"/>
<path d="M108.438 94.918C108.364 94.8568 108.299 94.7864 108.244 94.7083C108.166 94.7598 108.078 94.7937 107.986 94.8078C107.893 94.8219 107.799 94.8158 107.709 94.7899L106.934 94.6734C106.796 94.6584 106.661 94.6231 106.534 94.5686H106.481L106.322 94.8888C106.057 95.4583 105.906 96.0732 105.876 96.6996C107.351 97.0096 108.861 97.1232 110.366 97.0373C110.487 97.052 110.61 97.0338 110.722 96.9845C110.834 96.9353 110.93 96.857 111 96.7578C111.029 96.6927 111.044 96.6223 111.044 96.5512C111.044 96.48 111.029 96.4096 111 96.3445C110.927 96.198 110.825 96.0678 110.7 95.9617C110.575 95.8557 110.429 95.7759 110.272 95.7273C109.866 95.5701 109.455 95.442 109.061 95.2557C108.839 95.1721 108.629 95.0585 108.438 94.918Z" fill="#00BFA6"/>
<path d="M108.767 99.4478H106.387L104.489 104.537H94.6805L96.5787 99.4478H94.1986L77.5025 144.141H79.8826L81.534 139.722H91.3248L89.6734 144.141H92.0535L93.7049 139.722H93.7754V139.535L108.626 99.7913V144.141H111.006V99.4478H108.767ZM103.842 106.272L101.368 112.898H91.554L94.0281 106.272H103.842ZM88.4275 121.288L90.9017 114.668H100.728L98.2418 121.288H88.4275ZM97.5954 123.035L95.1212 129.655H85.3069L87.7987 123L97.5954 123.035ZM82.1805 138.022L84.6546 131.396H94.4689L91.9948 138.022H82.1805Z" fill="#00BFA6"/>
<path d="M169.263 69.4446H133.479C132.028 69.4446 130.852 70.6098 130.852 72.0472V95.634C130.852 97.0714 132.028 98.2367 133.479 98.2367H169.263C170.714 98.2367 171.89 97.0714 171.89 95.634V72.0472C171.89 70.6098 170.714 69.4446 169.263 69.4446Z" fill="white"/>
<path d="M165.614 94.2598H137.129V73.427H137.64V93.7474H165.614V94.2598Z" fill="#00BFA6"/>
<path d="M137.464 86.7721L137.193 86.3354L144.375 81.9627L154.935 83.5756L164.268 78.2422L164.526 78.6847L155.035 84.1112L154.947 84.0938L144.486 82.4984L137.464 86.7721Z" fill="#00BFA6"/>
<path d="M144.751 83.3952C145.374 83.3952 145.879 82.8947 145.879 82.2773C145.879 81.6599 145.374 81.1594 144.751 81.1594C144.128 81.1594 143.623 81.6599 143.623 82.2773C143.623 82.8947 144.128 83.3952 144.751 83.3952Z" fill="#00BFA6"/>
<path d="M154.982 84.9614C155.606 84.9614 156.111 84.4609 156.111 83.8435C156.111 83.2261 155.606 82.7256 154.982 82.7256C154.359 82.7256 153.854 83.2261 153.854 83.8435C153.854 84.4609 154.359 84.9614 154.982 84.9614Z" fill="#00BFA6"/>
<path d="M164.203 79.7502C164.826 79.7502 165.331 79.2497 165.331 78.6323C165.331 78.0149 164.826 77.5144 164.203 77.5144C163.58 77.5144 163.075 78.0149 163.075 78.6323C163.075 79.2497 163.58 79.7502 164.203 79.7502Z" fill="#00BFA6"/>
<path opacity="0.28" d="M144.751 83.3952C145.374 83.3952 145.879 82.8947 145.879 82.2773C145.879 81.6599 145.374 81.1594 144.751 81.1594C144.128 81.1594 143.623 81.6599 143.623 82.2773C143.623 82.8947 144.128 83.3952 144.751 83.3952Z" fill="#020202"/>
<path opacity="0.28" d="M154.982 84.9614C155.606 84.9614 156.111 84.4609 156.111 83.8435C156.111 83.2261 155.606 82.7256 154.982 82.7256C154.359 82.7256 153.854 83.2261 153.854 83.8435C153.854 84.4609 154.359 84.9614 154.982 84.9614Z" fill="#020202"/>
<path opacity="0.28" d="M164.203 79.7502C164.826 79.7502 165.331 79.2497 165.331 78.6323C165.331 78.0149 164.826 77.5144 164.203 77.5144C163.58 77.5144 163.075 78.0149 163.075 78.6323C163.075 79.2497 163.58 79.7502 164.203 79.7502Z" fill="#020202"/>
<path d="M168.188 105.457C168.188 105.457 160.025 120.741 158.497 125.544C156.969 130.348 157.11 144.502 157.11 144.502H161.553C161.553 144.502 161.553 130.219 163.439 127.815C165.326 125.41 175.839 113.136 175.839 113.136L168.188 105.457Z" fill="#473F47"/>
<path d="M167.283 107.314C167.283 107.314 172.231 127.11 174.793 131.541C177.355 135.972 184.361 143.955 184.361 143.955L188.134 141.952C188.134 141.952 178.431 129.34 178.972 125.649C179.512 121.957 180.887 107.832 180.887 107.832C180.887 107.832 174.053 104.158 167.283 107.314Z" fill="#473F47"/>
<path d="M184.061 78.8653C184.061 78.8653 188.004 80.8624 186.535 85.6659C185.066 90.4695 180.417 101.288 180.923 104.49C181.428 107.692 180.887 107.797 180.887 107.797C180.887 107.797 170.515 111.5 167.283 107.296C167.283 107.296 173.453 85.6659 174.764 82.9643C176.074 80.2627 179.818 77.2699 184.061 78.8653Z" fill="#00BFA6"/>
<path d="M182.016 89.5437C181.633 90.7258 181.095 91.8533 180.417 92.8975C180.075 93.5222 179.665 94.1079 179.195 94.6442C177.861 96.0649 175.863 96.6064 174.076 97.3866C173.756 97.5109 173.46 97.6881 173.201 97.9106C172.935 98.2096 172.724 98.5525 172.578 98.9237C171.608 101.026 170.303 103.157 168.176 104.106C169.051 100.793 169.939 97.4798 170.938 94.2075C171.054 93.6008 171.302 93.0263 171.664 92.5236C172.026 92.021 172.494 91.6023 173.036 91.2963C175.269 89.6718 177.485 88.0182 179.741 86.4229C180.511 85.8756 181.316 85.2584 181.969 86.2482C182.539 87.1158 182.28 88.6354 182.016 89.5437Z" fill="url(#paint4_linear_198_440)"/>
<path d="M176.727 70.4228C176.503 70.6499 176.215 70.8828 176.215 71.1972C176.253 71.4338 176.352 71.6565 176.503 71.8435C177.185 73.008 176.562 74.6383 177.385 75.6922C177.691 76.0527 178.101 76.3126 178.56 76.4374C179.027 76.4999 179.478 76.6438 179.894 76.8625C180.209 77.17 180.389 77.5887 180.394 78.027C180.441 78.551 180.347 79.075 180.394 79.599C180.382 79.7746 180.416 79.9503 180.492 80.1093C180.568 80.2683 180.684 80.4053 180.829 80.5073C180.975 80.571 181.133 80.6008 181.293 80.5947C182.209 80.6357 183.127 80.5653 184.026 80.3851C184.155 80.3684 184.278 80.3204 184.384 80.2453C184.488 80.1248 184.556 79.9774 184.578 79.8203C184.966 78.0735 185.366 76.3268 185.753 74.5801C185.981 73.952 186.266 73.3459 186.606 72.7693C186.915 71.8977 187.019 70.9678 186.911 70.0502C186.811 69.3632 186.575 68.7024 186.218 68.1055C185.924 67.5423 185.497 67.0586 184.972 66.6964C184.585 66.4705 184.167 66.2999 183.732 66.1899C182.227 65.7299 179.877 65.1127 178.572 66.3937C177.502 67.465 177.855 69.3107 176.727 70.4228Z" fill="#FCBDBA"/>
<path d="M176.568 72.3791C176.891 72.1812 177.937 72.5946 178.331 72.5887C179.571 72.5538 180.582 73.171 181.575 72.4141C182.386 71.8318 182.709 70.7896 182.991 69.8347C182.997 69.7825 182.997 69.7297 182.991 69.6775C182.98 69.6106 182.954 69.547 182.915 69.4912C182.457 68.8274 181.522 68.7575 180.735 68.5654C179.33 68.1632 178.068 67.3784 177.091 66.3005C176.832 66.0798 176.658 65.7776 176.597 65.4446C176.612 65.2522 176.673 65.0662 176.775 64.902C176.877 64.7379 177.018 64.6005 177.185 64.5013C178.189 63.8724 179.404 63.6631 180.564 63.9191C181.707 64.1807 182.835 64.5034 183.943 64.8856C185.013 65.1826 186.118 65.363 187.181 65.7008C187.409 65.7654 187.624 65.8635 187.822 65.9919C188.082 66.1957 188.284 66.4624 188.41 66.7663C188.598 67.1489 188.696 67.569 188.696 67.9948C188.696 68.4206 188.598 68.8407 188.41 69.2233C188.333 69.3355 188.275 69.4595 188.239 69.5902C188.233 69.7223 188.251 69.8544 188.292 69.9803C188.557 71.1448 187.975 72.3093 187.411 73.3165L185.941 76.0298C185.792 76.3573 185.572 76.6477 185.295 76.8799C185.155 76.9927 184.982 77.0571 184.801 77.0634C184.621 77.0697 184.444 77.0176 184.296 76.9148C183.99 76.6528 183.973 76.1288 183.614 75.9541C183.493 75.9147 183.364 75.9021 183.237 75.9171C183.11 75.9322 182.988 75.9747 182.88 76.0414C182.233 76.35 181.704 76.8391 181.07 77.2059C179.972 77.8117 178.679 77.9684 177.467 77.6426C177.111 77.5554 176.778 77.3925 176.492 77.1652C175.863 76.6295 175.904 75.9134 176.033 75.1856C176.162 74.4577 175.904 72.7867 176.568 72.3791Z" fill="#473F47"/>
<path d="M183.144 86.4053C183.144 86.4053 178.901 97.2176 162.058 99.2846L161.47 96.9556C161.47 96.9556 172.719 92.548 175.146 88.0763C175.843 86.8197 176.446 85.5139 176.95 84.1695C177.714 82.0734 180.165 80.9438 182.127 82.0326C183.291 82.6789 184.014 83.9599 183.144 86.4053Z" fill="#00BFA6"/>
<path d="M158.62 96.4725C158.639 96.7678 158.764 97.0466 158.973 97.2585C157.893 97.6576 156.752 97.8665 155.599 97.8757C155.39 97.8515 155.178 97.9101 155.012 98.0388C154.788 98.2775 154.965 98.6676 155.17 98.9179C156.046 99.8963 157.256 100.519 158.567 100.665C159.422 100.829 160.307 100.687 161.065 100.263C161.588 99.8741 162.029 99.3875 162.364 98.8306C162.432 98.7454 162.483 98.6488 162.516 98.5453C162.542 98.3407 162.492 98.134 162.375 97.9631C162.24 97.7127 162.052 97.2178 161.788 97.0955C161.523 96.9732 161.159 97.0955 160.889 97.0489C160.113 96.8743 159.419 96.3852 158.62 96.4725Z" fill="#FCBDBA"/>
<path d="M191.26 144.24C191.345 144.3 191.414 144.38 191.462 144.472C191.51 144.564 191.534 144.666 191.534 144.77C191.534 144.873 191.51 144.976 191.462 145.068C191.414 145.16 191.345 145.239 191.26 145.3C189.436 147.247 187.251 148.828 184.825 149.958C184.155 150.266 183.232 150.488 182.774 149.911C182.315 149.335 182.803 148.461 183.191 147.798C183.715 146.907 184.036 145.913 184.131 144.886C184.132 144.535 184.202 144.187 184.337 143.862C184.813 142.994 187.152 142.115 188.122 142.115C189.409 142.103 190.472 143.355 191.26 144.24Z" fill="#00BFA6"/>
<path d="M163.022 147.635C163.068 147.728 163.091 147.831 163.088 147.935C163.085 148.039 163.056 148.14 163.005 148.231C162.953 148.321 162.88 148.398 162.792 148.455C162.704 148.511 162.603 148.545 162.499 148.554C159.941 149.346 157.254 149.643 154.583 149.428C153.842 149.364 152.931 149.102 152.82 148.374C152.708 147.646 153.572 147.128 154.242 146.75C155.137 146.232 155.91 145.531 156.51 144.694C156.684 144.388 156.92 144.12 157.204 143.908C158.05 143.384 160.53 143.751 161.376 144.234C162.493 144.869 162.787 146.476 163.022 147.635Z" fill="#00BFA6"/>
<path d="M52.6436 142.353C52.6185 143.096 52.7569 143.835 53.0491 144.519C53.4177 145.157 53.9731 145.669 54.6417 145.987C56.0742 146.726 57.7396 146.889 59.2903 146.441C59.5007 146.399 59.6898 146.286 59.8251 146.12C59.9052 145.981 59.9382 145.82 59.9191 145.66C59.8015 144.813 59.3674 144.04 58.7026 143.495C58.0401 142.96 57.4738 142.318 57.0277 141.596C56.3166 140.164 56.8455 136.356 54.1363 136.985C51.8738 137.492 52.579 140.77 52.6436 142.353Z" fill="#FBB9AD"/>
<path d="M52.2675 144.921C52.2675 144.921 51.8797 145.864 52.3557 146.412C52.8317 146.959 57.7036 149.958 60.9828 147.541C64.2621 145.125 56.5282 144.816 56.5282 144.816L52.2675 144.921Z" fill="#00BFA6"/>
<path d="M52.4556 142.744C52.6039 142.669 52.7743 142.651 52.9352 142.692C53.0962 142.732 53.2369 142.829 53.3312 142.965C53.6511 143.326 54.0584 143.6 54.5149 143.762C54.9714 143.924 55.462 143.968 55.9405 143.891C57.0101 143.64 57.4332 142.417 57.9622 142.412C58.4911 142.406 61.3237 144.799 61.4882 145.824C61.6528 146.848 60.2012 147.605 58.6027 147.704C57.0042 147.803 53.3724 146.703 52.6848 145.87C52.3948 145.406 52.2225 144.879 52.1826 144.335C52.1426 143.79 52.2363 143.244 52.4556 142.744Z" fill="white"/>
<path d="M43.3524 143.815C43.321 144.558 43.4596 145.298 43.7579 145.981C44.1266 146.617 44.6821 147.127 45.3505 147.442C46.7808 148.182 48.4445 148.345 49.9932 147.896C50.2061 147.857 50.3978 147.743 50.5338 147.576C50.6113 147.438 50.6441 147.279 50.6279 147.122C50.5091 146.275 50.0753 145.503 49.4114 144.956C48.7535 144.419 48.1878 143.78 47.7365 143.064C47.0254 141.637 47.5543 137.824 44.8451 138.452C42.5825 138.965 43.2877 142.249 43.3524 143.815Z" fill="#FBB9AD"/>
<path d="M42.9763 146.394C42.9763 146.394 42.5884 147.332 43.0644 147.879C43.5404 148.426 48.4006 151.425 51.6798 149.014C54.9591 146.604 47.237 146.29 47.237 146.29L42.9763 146.394Z" fill="#00BFA6"/>
<path d="M43.1643 144.211C43.3136 144.139 43.484 144.122 43.6447 144.163C43.8054 144.205 43.9457 144.302 44.04 144.438C44.3581 144.801 44.7652 145.077 45.2223 145.239C45.6793 145.402 46.1707 145.444 46.6493 145.364C47.713 145.107 48.142 143.891 48.665 143.885C49.1881 143.879 52.0266 146.266 52.1911 147.291C52.3557 148.316 50.9041 149.073 49.3056 149.172C47.7071 149.271 44.0811 148.176 43.3935 147.343C43.1021 146.879 42.9289 146.351 42.889 145.805C42.8491 145.259 42.9436 144.712 43.1643 144.211Z" fill="white"/>
<path d="M41.4072 104.187C41.4072 104.187 40.9077 131.768 42.9645 140.968L48.2008 141.608L49.6288 103.914L41.4072 104.187Z" fill="#473F47"/>
<path d="M55.87 101.206C55.87 101.206 60.0367 116.053 57.0454 139.943L51.8091 140.583L48.5122 102.499L55.87 101.206Z" fill="#473F47"/>
<path d="M63.7038 89.3225C63.645 90.324 63.3218 91.1857 62.4461 91.4768C62.3713 91.5017 62.2947 91.5212 62.2169 91.5351C60.6126 91.8553 58.5028 90.6442 57.0395 89.5845C56.426 89.1474 55.8374 88.677 55.2764 88.1755V77.5029L63.1161 85.4331C63.5225 86.6897 63.721 88.0031 63.7038 89.3225Z" fill="white"/>
<path d="M57.0983 89.5378C57.0983 90.0385 57.1629 90.5392 57.1629 91.04C57.1629 93.7882 56.5223 96.6295 57.3451 99.3311C57.6158 99.905 57.698 100.548 57.5802 101.171C57.3393 101.671 56.9207 102.065 56.4048 102.277C53.9542 103.605 51.1157 104.024 48.3653 104.397C46.2849 104.688 43.3348 105.299 41.413 104.187C40.5962 103.715 40.32 102.836 40.0555 101.957C39.3203 99.1159 38.887 96.2063 38.7626 93.2758C38.7626 92.8915 38.7038 92.513 38.6862 92.1113C38.5256 89.4795 38.4707 86.8439 38.5217 84.2044C38.5569 82.2888 38.7097 80.2218 39.9732 78.7778C41.6481 76.8564 44.8921 75.5813 47.3604 75.133C48.1583 74.9695 48.9762 74.9244 49.7875 74.9991C50.9364 75.1795 52.0455 75.5536 53.0668 76.1053C54.2891 76.6876 55.3764 77.2116 56.0052 78.4052C56.6652 79.7903 57.1262 81.2602 57.3745 82.7721C57.6055 84.1893 57.6372 85.6315 57.4685 87.0574C57.398 87.7561 57.2158 88.449 57.1453 89.1418C57.1177 89.2722 57.102 89.4047 57.0983 89.5378Z" fill="white"/>
<path opacity="0.1" d="M45.7619 105.125C44.9568 105.358 43.0997 104.624 42.4826 104.542C42.1124 104.478 41.7774 104.292 41.4072 104.211C39.5677 103.756 39.3503 98.6326 39.174 97.2527C38.698 93.6136 37.9633 89.8407 37.9105 86.19C37.8278 84.7809 37.9929 83.3684 38.3982 82.0153C38.6046 81.3394 38.9585 80.7168 39.4348 80.1916C39.9111 79.6664 40.4982 79.2513 41.1545 78.9759C43.5052 78.1375 44.2045 85.5029 44.5277 87.0284C44.851 88.5539 44.8921 91.2555 45.9088 92.4782C46.9255 93.701 48.9589 93.928 50.287 93.3109C51.0013 92.9556 51.5957 92.4019 51.9975 91.7174C52.3993 91.0328 52.5912 90.2472 52.5496 89.4564C52.4693 88.9086 52.4242 88.3563 52.4144 87.8028C52.415 87.525 52.4955 87.2532 52.6464 87.0191C52.7973 86.785 53.0124 86.5984 53.2666 86.4811C53.5063 86.4217 53.758 86.4295 53.9935 86.5035C54.2291 86.5775 54.4392 86.7149 54.6006 86.9003C54.9137 87.2821 55.1384 87.7273 55.2588 88.2045C55.5628 89.2021 55.7598 90.2287 55.8465 91.2672C56.0816 93.7301 55.7054 96.257 56.299 98.6617C56.5646 99.4093 56.692 100.198 56.6751 100.991C56.54 101.646 56.1811 102.236 55.6588 102.66C55.1365 103.084 54.4826 103.317 53.8072 103.32C53.1298 103.294 52.4686 103.107 51.8802 102.773C51.2918 102.439 50.7936 101.97 50.4281 101.404C50.3107 101.202 50.1527 101.025 49.9638 100.886C49.753 100.781 49.5174 100.735 49.2821 100.752C48.1596 100.752 46.5494 101.008 46.185 102.254C45.9264 103.145 46.5494 104.001 46.0616 104.921C45.9899 105.022 45.8834 105.095 45.7619 105.125Z" fill="#020202"/>
<path d="M52.1206 71.6281C51.9252 72.0143 51.5923 72.3151 51.1862 72.4723C50.6908 72.5832 50.2192 72.7803 49.7934 73.0546C49.4482 73.4252 49.2283 73.8934 49.1646 74.3937L48.8296 75.9425L48.6533 76.7227C48.6303 76.8638 48.5826 76.9998 48.5122 77.1245C48.413 77.2342 48.2903 77.3204 48.153 77.3769C48.0156 77.4333 47.8673 77.4585 47.7189 77.4505C47.0995 77.4759 46.4863 77.32 45.9558 77.0022C45.863 76.9622 45.7865 76.8925 45.7384 76.8042C45.6918 76.6959 45.6795 76.5761 45.7031 76.4607L45.897 74.2307C46.0048 73.621 45.9078 72.9931 45.6208 72.4432C44.9732 71.2766 44.4926 70.0264 44.1928 68.7285C44.0879 68.368 44.0633 67.9893 44.1207 67.6185C44.178 67.2476 44.316 66.8936 44.525 66.5808C44.734 66.268 45.009 66.0038 45.3312 65.8067C45.6533 65.6095 46.0148 65.484 46.3907 65.4388C47.4901 65.1043 48.6637 65.0922 49.7699 65.4039C50.1812 65.5436 50.3047 65.8231 50.4986 66.1899C50.7866 66.7721 51.0863 67.3544 51.3037 67.9366C51.5212 68.5189 51.815 69.2874 52.0324 69.9861C52.2577 70.5057 52.2889 71.0878 52.1206 71.6281Z" fill="#FBB9AD"/>
<path d="M68.7579 82.8594C68.8284 82.743 68.9635 82.6265 69.0752 82.6964C69.1207 82.7414 69.1532 82.7977 69.1692 82.8594C69.2337 82.9712 69.327 83.0641 69.4395 83.1286C69.552 83.193 69.6798 83.2267 69.8098 83.2262C70.0625 83.2262 70.327 83.1855 70.5855 83.1855C70.9234 83.196 71.2543 83.2841 71.552 83.4427C71.8498 83.6013 72.1063 83.8262 72.3016 84.0996C72.69 84.6528 72.9066 85.3066 72.9245 85.9803C72.9937 86.5857 72.8254 87.1944 72.4544 87.6804C71.8667 88.3616 70.803 88.3791 69.8921 88.35H69.0576C68.8604 88.3756 68.6609 88.3253 68.5001 88.2094C68.3393 88.0934 68.2296 87.9207 68.1937 87.727C67.8528 86.906 67.2358 86.0851 67.6589 85.2583C68.082 84.4315 68.2524 83.4417 68.7579 82.8594Z" fill="#FBB9AD"/>
<path d="M52.3557 91.535V85.3632C52.3555 85.1217 52.4289 84.8858 52.5663 84.6864C52.7036 84.4869 52.8985 84.3332 53.1255 84.2453L68.5521 78.1608C69.3514 77.8464 70.9793 78.7896 70.9793 79.6397L70.2212 93.9222C70.2216 94.1606 70.1502 94.3938 70.0162 94.5919C69.8822 94.79 69.6917 94.944 69.4689 95.0343L54.7769 101.742C53.9718 102.068 52.3322 101.125 52.3322 100.269L52.3557 91.535Z" fill="#00BFA6"/>
<path d="M52.3557 91.535V85.3632C52.35 85.1213 52.4205 84.8837 52.5575 84.6833C52.6944 84.483 52.8909 84.3299 53.1197 84.2453L68.5522 78.1608C69.3514 77.8464 70.9793 78.7896 70.9793 79.6397L70.2212 93.9222C70.2208 94.1605 70.1491 94.3933 70.0152 94.5912C69.8813 94.7892 69.6912 94.9433 69.4689 95.0343L54.7769 101.742C53.9777 102.068 52.338 101.125 52.338 100.269L52.3557 91.535Z" fill="url(#paint5_linear_198_440)"/>
<path d="M53.1255 91.896V85.7242C53.125 85.4819 53.1982 85.2451 53.3355 85.0446C53.4728 84.8442 53.6679 84.6894 53.8954 84.6004L69.322 78.5218C69.5065 78.4485 69.7064 78.4212 69.904 78.4422C70.1017 78.4631 70.2912 78.5318 70.4559 78.6421C70.6205 78.7524 70.7554 78.901 70.8487 79.0749C70.942 79.2488 70.9909 79.4428 70.991 79.6397V94.3007C70.9906 94.5389 70.919 94.7718 70.7851 94.9697C70.6512 95.1676 70.4611 95.3218 70.2388 95.4128L54.8122 101.759C54.6641 101.82 54.5052 101.851 54.3449 101.851C54.1845 101.851 54.0258 101.82 53.8777 101.758C53.7297 101.697 53.5954 101.608 53.4824 101.495C53.3695 101.382 53.2801 101.248 53.2196 101.101C53.157 100.956 53.125 100.799 53.1255 100.641V91.896Z" fill="#00BFA6"/>
<path d="M53.1255 85.7241L63.7038 91.1157L70.6972 78.8886C70.6972 78.8886 70.9675 78.7314 70.9675 79.6397V94.3006L53.1255 99.797V85.7241Z" fill="url(#paint6_linear_198_440)"/>
<path d="M49.4584 66.0966C49.3506 66.2583 49.2115 66.3972 49.0491 66.5052C48.8866 66.6131 48.7041 66.688 48.5122 66.7254C47.4662 66.9467 46.8315 66.4459 46.3025 67.6512C46.132 68.0639 46.0791 68.515 46.1498 68.9554C46.1498 69.0486 46.4789 70.0792 46.5611 70.0268C46.2908 70.2189 46.0792 69.6949 45.7854 69.5435C45.4916 69.3921 45.0567 69.8346 45.1272 70.2131C45.2498 70.5847 45.4687 70.9179 45.7619 71.1796C46.2317 71.7574 46.4906 72.4755 46.4965 73.2175C46.4965 73.3863 46.4318 73.6134 46.2555 73.6192C46.0792 73.625 45.8853 73.3805 45.7501 73.2873C45.5349 73.1444 45.3089 73.0179 45.0743 72.9089C44.3573 72.5712 43.276 72.4664 42.6766 71.9889C42.3676 71.7342 42.1594 71.3795 42.0889 70.9875C42.0889 70.8943 42.0889 69.8928 42.2652 69.9452C42.0871 69.8928 41.9215 69.8056 41.7778 69.689C41.6341 69.5724 41.5153 69.4286 41.4283 69.266C41.3413 69.1034 41.2879 68.9252 41.2711 68.742C41.2544 68.5587 41.2747 68.3739 41.3308 68.1985C41.4097 67.952 41.5538 67.7308 41.748 67.558C41.0134 66.5449 41.3543 65.0427 42.2358 64.1519C43.182 63.3141 44.3793 62.8069 45.6443 62.7079C47.0187 62.4932 48.424 62.5847 49.7581 62.9757C50.221 63.1026 50.6489 63.3315 51.0099 63.6453C51.1863 63.8035 51.3217 64.0014 51.4045 64.2223C51.4874 64.4433 51.5153 64.6807 51.4859 64.9146C51.4082 64.946 51.3231 64.9544 51.2407 64.9389C51.1584 64.9234 51.0823 64.8846 51.0216 64.8273C51.0994 65.0373 51.0899 65.2693 50.9951 65.4724C50.9003 65.6754 50.7281 65.8329 50.5162 65.9103C50.3575 65.9674 50.1853 65.9769 50.0212 65.9376C49.8571 65.8982 49.7083 65.8118 49.5936 65.689C49.5818 65.8336 49.5354 65.9733 49.4584 66.0966Z" fill="#473F47"/>
<path d="M50.1284 72.7984L49.9521 72.8508C49.8992 72.8562 49.8496 72.8787 49.811 72.9148C49.7994 72.9548 49.7994 72.9972 49.811 73.0371C49.4658 73.4078 49.246 73.8759 49.1822 74.3763L48.8472 75.9251C48.2816 74.935 47.8545 73.8734 47.5778 72.7693C48.4247 72.8662 49.2794 72.876 50.1284 72.7984Z" fill="#DC9F95"/>
<path d="M51.0216 91.5933C51.1205 91.4729 51.2479 91.3786 51.3925 91.3186C51.537 91.2587 51.6943 91.2351 51.8502 91.2498C52.0274 91.338 52.1965 91.4413 52.3557 91.5584C52.5056 91.6246 52.6675 91.6603 52.8317 91.6632C53.4962 91.7104 54.1633 91.6171 54.7887 91.3895C55.1043 91.2371 55.4486 91.1518 55.7995 91.1392C56.0092 91.1796 56.2076 91.2646 56.3811 91.3882C56.5545 91.5118 56.699 91.6712 56.8044 91.8553C57.1171 92.2998 57.293 92.8246 57.3108 93.3661C57.3285 93.9077 57.1873 94.4427 56.9043 94.9063C56.6418 95.2831 56.2961 95.5957 55.8935 95.8204C55.0011 96.2834 54.0094 96.5271 53.0021 96.5308C52.003 96.5773 50.9864 96.5308 49.9932 96.5773C49.7579 96.6199 49.5151 96.5873 49.2997 96.4842C49.1807 96.3745 49.0886 96.2393 49.0305 96.0889C48.9725 95.9386 48.95 95.777 48.9647 95.6166C48.9295 94.8655 48.8002 94.2309 49.2409 93.5962C49.7949 92.8951 50.3895 92.2263 51.0216 91.5933Z" fill="#FBB9AD"/>
<path d="M39.985 78.7838C39.985 78.7838 28.9424 93.0896 32.4333 98.1435C35.9241 103.197 50.6514 97.3108 50.6514 97.3108L49.2174 93.1245C49.2174 93.1245 38.8743 94.4229 38.7979 93.2759C38.7215 92.1288 45.3564 85.5611 45.3564 85.5611C45.3564 85.5611 46.5435 75.9482 39.985 78.7838Z" fill="white"/>
</g>
<defs>
<linearGradient id="paint0_linear_198_440" x1="107.962" y1="96.3676" x2="116.536" y2="169.912" gradientUnits="userSpaceOnUse">
<stop offset="0.01"/>
<stop offset="0.08" stop-opacity="0.69"/>
<stop offset="0.21" stop-opacity="0.32"/>
<stop offset="1" stop-opacity="0"/>
</linearGradient>
<linearGradient id="paint1_linear_198_440" x1="116.248" y1="90.6675" x2="119.248" y2="132.192" gradientUnits="userSpaceOnUse">
<stop offset="0.01"/>
<stop offset="0.08" stop-opacity="0.69"/>
<stop offset="0.21" stop-opacity="0.32"/>
<stop offset="1" stop-opacity="0"/>
</linearGradient>
<linearGradient id="paint2_linear_198_440" x1="41.8068" y1="197.131" x2="267.599" y2="1.29162" gradientUnits="userSpaceOnUse">
<stop offset="0.01"/>
<stop offset="0.08" stop-opacity="0.69"/>
<stop offset="0.21" stop-opacity="0.32"/>
<stop offset="1" stop-opacity="0"/>
</linearGradient>
<linearGradient id="paint3_linear_198_440" x1="95.4386" y1="44.6409" x2="129.469" y2="121.117" gradientUnits="userSpaceOnUse">
<stop offset="0.01"/>
<stop offset="0.08" stop-opacity="0.69"/>
<stop offset="0.21" stop-opacity="0.32"/>
<stop offset="1" stop-opacity="0"/>
</linearGradient>
<linearGradient id="paint4_linear_198_440" x1="160.489" y1="76.5072" x2="196.288" y2="123.182" gradientUnits="userSpaceOnUse">
<stop offset="0.01"/>
<stop offset="0.08" stop-opacity="0.69"/>
<stop offset="0.21" stop-opacity="0.32"/>
<stop offset="1" stop-opacity="0"/>
</linearGradient>
<linearGradient id="paint5_linear_198_440" x1="49.1822" y1="76.1578" x2="89.6054" y2="121.708" gradientUnits="userSpaceOnUse">
<stop offset="0.01"/>
<stop offset="0.13" stop-opacity="0.69"/>
<stop offset="0.25" stop-opacity="0.32"/>
<stop offset="1" stop-opacity="0"/>
</linearGradient>
<linearGradient id="paint6_linear_198_440" x1="59.59" y1="73.4795" x2="65.7361" y2="114.585" gradientUnits="userSpaceOnUse">
<stop offset="0.01"/>
<stop offset="0.13" stop-opacity="0.69"/>
<stop offset="0.25" stop-opacity="0.32"/>
<stop offset="1" stop-opacity="0"/>
</linearGradient>
<clipPath id="clip0_198_440">
<rect width="229" height="171" fill="white"/>
</clipPath>
</defs>
</svg>
