<svg width="229" height="171" viewBox="0 0 229 171" fill="none" xmlns="http://www.w3.org/2000/svg">
<path d="M173.196 49.9629H55.8035C50.4674 49.9629 45.997 53.1935 45.997 57.2856V113.716C45.997 117.7 50.3233 121.038 55.8035 121.038H173.196C178.533 121.038 183.003 117.808 183.003 113.716V57.2856C183.003 53.1935 178.677 49.9629 173.196 49.9629ZM139.017 95.8396H130.941L167.858 114.362H157.475L128.343 99.7168V114.47H123.44V92.1783H174.06V95.8398H149.4L174.205 108.331L174.204 113.501L139.017 95.8396ZM71.3798 114.362H61.1402L98.0604 95.732H89.9836L54.9393 113.501V108.224L79.7447 95.732H54.9393V92.0705H105.56V114.362H100.656V99.7166L71.3798 114.362ZM89.983 75.1642H98.0589L61.1418 56.6414H71.5253L100.801 71.3945V56.6414H105.704V78.9331H54.9408V75.2716H79.7462L54.9408 62.779V57.5028L89.983 75.1642ZM174.061 62.7792L149.401 75.1642H174.207V78.8257H123.443V56.6414H128.346V71.3945L157.622 56.6414H167.862L131.088 75.1642H139.019L174.064 57.503L174.061 62.7792Z" fill="#00BFA6"/>
</svg>
