<svg width="229" height="171" viewBox="0 0 229 171" fill="none" xmlns="http://www.w3.org/2000/svg">
<path d="M131.103 30.1388C123.088 23.0138 116.122 15.8888 114.786 14.3213H114.5C113.164 15.8175 106.199 23.0138 98.1838 30.1388C29.4838 95.6175 109.061 139.793 109.061 139.793L109.729 140.149C110.302 146.918 111.828 156.75 111.828 156.75H117.744C117.744 156.75 119.175 146.989 119.748 140.149L120.416 139.721C120.416 139.721 199.803 95.6175 131.103 30.1388ZM114.5 138.795C112.828 137.769 111.294 136.624 109.92 135.375L114.5 64.125L118.794 135.375C117.507 136.611 116.069 137.756 114.5 138.795Z" fill="#00BFA6"/>
</svg>
