<svg width="92" height="92" viewBox="0 0 92 92" fill="none" xmlns="http://www.w3.org/2000/svg">
<path d="M76.6667 65.1667V26.8333C76.6667 18.5227 62.6252 11.5 46 11.5C29.3748 11.5 15.3333 18.5227 15.3333 26.8333V65.1667C15.3333 73.4773 29.3748 80.5 46 80.5C62.6252 80.5 76.6667 73.4773 76.6667 65.1667ZM46 19.1667C60.1488 19.1667 68.7355 24.9435 69 26.8103C68.7355 28.7232 60.1488 34.5 46 34.5C31.8512 34.5 23.2645 28.7232 23 26.8563C23.2645 24.9435 31.8512 19.1667 46 19.1667ZM23 36.8268C28.6695 40.0737 36.9418 42.1667 46 42.1667C55.0582 42.1667 63.3305 40.0737 69 36.8268V45.977C68.7355 47.8898 60.1488 53.6667 46 53.6667C31.8512 53.6667 23.2645 47.8898 23 46V36.8268ZM23 65.1667V55.9935C28.6695 59.2403 36.9418 61.3333 46 61.3333C55.0582 61.3333 63.3305 59.2403 69 55.9935V65.1437C68.7355 67.0565 60.1488 72.8333 46 72.8333C31.8512 72.8333 23.2645 67.0565 23 65.1667Z" fill="#3F86A9"/>
</svg>
