<svg width="229" height="171" viewBox="0 0 229 171" fill="none" xmlns="http://www.w3.org/2000/svg">
<g clip-path="url(#clip0_191_164)">
<path opacity="0.18" d="M56.7305 12.6319C43.6556 23.4383 35.9183 40.0527 35.1711 56.9017C34.7348 66.8252 36.5635 76.7672 35.7698 86.6678C34.2799 105.062 23.8135 123.304 29.0305 141.004C34.3913 159.191 54.7625 169.211 73.8295 170.71C92.8965 172.209 111.866 167.445 130.975 166.737C141.381 166.346 151.838 167.165 162.193 166.079C172.548 164.994 183.107 161.766 190.543 154.546C197.978 147.327 201.446 136.92 201.408 126.693C201.371 116.466 198.048 106.46 193.318 97.3869C188.343 87.822 181.715 78.8503 179.394 68.3335C176.145 53.5218 181.464 36.0888 171.968 24.1879C166.082 16.8303 156.219 14.1034 147.029 11.7995C131.75 7.97816 116.118 2.58412 100.467 0.546979C92.6158 -0.552691 84.6204 -0.0345055 76.981 2.06908C74.0616 2.88302 56.7305 8.73232 56.7305 12.6319Z" fill="#00BFA6"/>
<path d="M143.896 62.3926C160.084 62.3926 173.207 49.3911 173.207 33.353C173.207 17.3149 160.084 4.31348 143.896 4.31348C127.709 4.31348 114.586 17.3149 114.586 33.353C114.586 49.3911 127.709 62.3926 143.896 62.3926Z" fill="url(#paint0_radial_191_164)"/>
<path d="M113.969 153.346C151.197 153.346 181.376 147.11 181.376 139.417C181.376 131.725 151.197 125.489 113.969 125.489C76.7405 125.489 46.5611 131.725 46.5611 139.417C46.5611 147.11 76.7405 153.346 113.969 153.346Z" fill="url(#paint1_linear_191_164)"/>
<path d="M143.72 140.204C143.854 140.657 144.103 141.069 144.444 141.4C144.772 141.647 145.159 141.805 145.567 141.859C146.96 142.098 148.816 140.687 148.635 139.928C148.454 139.169 148.719 136.511 148.58 135.743C148.548 135.399 148.457 135.064 148.31 134.75C147.893 134.037 146.895 133.959 146.069 134.037C144.969 134.148 143.256 134.497 142.917 135.702C142.564 136.999 143.275 138.999 143.72 140.204Z" fill="#F5BBB9"/>
<path d="M99.8261 63.8089C98.2759 64.9493 97.8025 67.1336 98.2341 69.0006C98.6658 70.8676 99.8354 72.4771 101.07 73.9486C104.244 77.7381 108.003 81.0052 112.209 83.6285C113.741 84.5804 115.384 85.4679 117.185 85.6656C119.209 85.8863 121.218 85.2058 123.145 84.5712C124.048 84.3214 124.9 83.9151 125.66 83.3709C126.415 82.6998 126.995 81.8593 127.354 80.9199C128.313 78.6477 128.832 76.2175 128.886 73.7555C129.007 70.5135 128.324 70.4629 127.183 67.4233C126.329 65.1241 124.941 62.4478 122.569 63.0961C116.22 64.8252 118.072 71.5574 118.076 74.6154C115.983 72.1736 112.093 68.6649 109.661 66.5542C107.656 64.793 102.509 61.8408 99.8261 63.8089Z" fill="#00BFA6"/>
<path d="M99.8261 63.8089C98.2759 64.9493 97.8025 67.1336 98.2341 69.0006C98.6658 70.8676 99.8354 72.4771 101.07 73.9486C104.244 77.7381 108.003 81.0052 112.209 83.6285C113.741 84.5804 115.384 85.4679 117.185 85.6656C119.209 85.8863 121.218 85.2058 123.145 84.5712C124.048 84.3214 124.9 83.9151 125.66 83.3709C126.415 82.6998 126.995 81.8593 127.354 80.9199C128.313 78.6477 128.832 76.2175 128.886 73.7555C129.007 70.5135 128.324 70.4629 127.183 67.4233C126.329 65.1241 124.941 62.4478 122.569 63.0961C116.22 64.8252 118.072 71.5574 118.076 74.6154C115.983 72.1736 112.093 68.6649 109.661 66.5542C107.656 64.793 102.509 61.8408 99.8261 63.8089Z" fill="url(#paint2_linear_191_164)"/>
<path d="M119.752 53.899C119.148 55.0348 119.71 56.5155 119.13 57.6605C118.781 58.2674 118.23 58.7343 117.57 58.9803C116.419 59.4678 115.11 59.5367 113.987 60.0748C112.992 60.5535 112.201 61.369 111.759 62.374C111.328 63.3857 111.235 64.5997 110.427 65.3538C109.457 66.2735 107.907 66.085 106.621 65.7263C105.739 65.4826 104.802 65.1239 104.328 64.3468C104.057 63.8282 103.934 63.2465 103.971 62.6637C103.971 61.2566 104.393 59.8816 104.667 58.5021C105.062 56.5201 105.196 54.4922 105.665 52.524C106.134 50.5558 106.983 48.6061 108.524 47.2817C110.065 45.9573 113.449 42.5407 115.393 42.8763C117.25 43.2028 117.668 47.3001 118.707 48.8544C119.058 49.4463 119.368 50.0608 119.636 50.6938C120.29 52.055 120.462 52.57 119.752 53.899Z" fill="#F5BBB9"/>
<path d="M116.781 43.5892C116.401 44.8124 115.189 45.5573 114.085 46.2195C112.98 46.8817 111.787 47.6773 111.495 48.9234C111.309 49.6868 111.495 50.5513 111.031 51.2227C110.881 50.8814 110.67 50.5698 110.409 50.303C110.274 50.1722 110.107 50.08 109.923 50.0362C109.74 49.9925 109.549 49.9989 109.369 50.0547C109.183 50.153 109.03 50.3017 108.926 50.4832C108.823 50.6648 108.773 50.8719 108.784 51.0801C108.789 51.5293 108.952 51.9626 109.246 52.3052C109.539 52.6478 109.944 52.8781 110.39 52.9563C109.855 53.7233 109.509 54.6036 109.378 55.5269C109.244 56.4834 109.313 57.5456 108.701 58.286C108.374 58.6581 107.915 58.8917 107.419 58.9387C106.924 58.9858 106.429 58.8427 106.036 58.5389C105.898 58.8518 105.667 59.1151 105.373 59.2931C104.588 58.8884 104.607 57.8078 104.444 56.9478C104.059 54.6486 101.878 53.0437 101.154 50.8272C100.837 49.6274 100.757 48.3784 100.917 47.1484C100.94 45.9754 101.177 44.8162 101.618 43.7271C102.4 42.235 103.696 41.07 105.271 40.4438C106.692 39.8733 108.177 39.472 109.694 39.2482C110.941 38.9506 112.208 38.7461 113.486 38.6366C115.844 38.563 117.417 41.5474 116.781 43.5892Z" fill="#2E2E3F"/>
<path d="M138.304 94.2049C138.769 94.1999 139.232 94.2729 139.673 94.421C140.073 94.6004 140.435 94.8531 140.74 95.1659C144.286 98.4585 145.359 103.531 146.25 108.262C147.749 116.2 149.248 124.173 149.452 132.244C149.494 133.835 150.144 135.283 149.392 136.686C148.64 138.088 145.191 138.226 143.674 137.711C142.156 137.196 142.532 136.594 141.919 135.109C140.671 132.101 138.907 129.342 137.157 126.583L130.761 116.544C129.74 114.944 128.677 113.298 127.113 112.203C124.913 110.668 122.082 110.461 119.436 109.978C116.791 109.495 113.927 108.469 112.711 106.092C110.534 101.82 113.421 96.0075 118.053 95.4649C124.811 94.6601 131.481 93.9335 138.304 94.2049Z" fill="#2E2E3F"/>
<path d="M138.304 94.2049C138.769 94.1999 139.232 94.2729 139.673 94.421C140.073 94.6004 140.435 94.8531 140.74 95.1659C144.286 98.4585 145.359 103.531 146.25 108.262C147.749 116.2 149.248 124.173 149.452 132.244C149.494 133.835 149.8 135.214 149.048 136.621C148.297 138.029 145.953 138.36 144.43 137.849C142.908 137.339 142.532 136.594 141.919 135.09C140.671 132.101 138.907 129.342 137.157 126.583L130.761 116.544C129.74 114.944 128.677 113.298 127.113 112.203C124.913 110.668 122.082 110.461 119.436 109.978C116.791 109.495 113.927 108.469 112.711 106.092C110.534 101.82 113.421 96.0075 118.053 95.4649C124.811 94.6601 131.481 93.9335 138.304 94.2049Z" fill="url(#paint3_linear_191_164)"/>
<path d="M145.813 120.242C145.883 120.745 146.04 121.232 146.278 121.681C146.923 122.771 148.306 123.222 149.587 123.245C150.135 123.282 150.684 123.173 151.174 122.927C151.456 122.747 151.699 122.514 151.889 122.241C152.079 121.968 152.213 121.661 152.284 121.336C152.424 120.688 152.46 120.022 152.39 119.363C152.307 117.946 152.13 116.536 151.861 115.142C151.838 114.932 151.759 114.733 151.634 114.563C151.332 114.218 150.775 114.323 150.334 114.457C149.229 114.788 146.514 115.064 145.73 115.915C144.848 116.885 145.813 119.092 145.813 120.242Z" fill="#F5BBB9"/>
<path d="M151.908 121.162C151.341 121.337 150.784 121.544 150.241 121.782C149.52 122.03 148.749 122.099 147.995 121.985C147.183 121.856 146.189 121.575 145.674 122.205C145.539 122.425 145.452 122.671 145.42 122.926C145.388 123.181 145.411 123.44 145.488 123.686C145.671 124.662 145.943 125.619 146.301 126.546C146.408 126.88 146.576 127.192 146.797 127.466C147.35 128.078 148.278 128.151 149.118 128.183C152.074 128.354 155.037 128.354 157.992 128.183C158.879 128.119 159.97 127.852 160.165 126.992C160.226 126.513 160.094 126.029 159.798 125.645C158.916 124.266 157.524 123.346 156.085 122.619C154.827 121.985 153.351 120.853 151.908 121.162Z" fill="#2E2E3F"/>
<path d="M148.371 139.312C147.886 139.461 147.41 139.637 146.946 139.841C146.33 140.049 145.672 140.106 145.029 140.006C144.337 139.896 143.488 139.657 143.038 140.195C142.922 140.382 142.848 140.592 142.821 140.81C142.794 141.028 142.814 141.25 142.88 141.459C143.037 142.29 143.269 143.106 143.572 143.896C143.665 144.178 143.81 144.439 143.999 144.669C144.463 145.189 145.261 145.253 145.967 145.281C148.491 145.425 151.022 145.425 153.546 145.281C154.303 145.225 155.231 144.995 155.403 144.264C155.43 144.062 155.416 143.856 155.363 143.659C155.31 143.461 155.217 143.277 155.092 143.115C154.287 141.987 153.19 141.094 151.917 140.53C150.863 140.006 149.601 139.045 148.371 139.312Z" fill="#2E2E3F"/>
<path d="M103.692 60.8244C100.267 62.2407 97.8025 65.2941 95.9413 68.4763C91.4437 76.1558 89.6196 85.0309 87.8605 93.7405C87.4985 95.5431 87.1318 97.3733 87.2804 99.2081C87.3344 99.9838 87.5131 100.746 87.8095 101.466C88.9513 104.138 91.9868 105.582 94.9248 105.756C97.5147 105.917 100.081 105.297 102.648 104.91C104.806 104.607 106.992 104.496 109.104 103.991C111.216 103.485 113.282 102.459 114.6 100.739C116.113 98.7437 116.382 96.1087 116.6 93.6255L117.765 80.1519C118.113 76.1144 118.438 71.8746 116.837 68.159C115.726 65.6358 113.819 63.5379 111.402 62.1809C109.109 60.8244 106.222 59.7529 103.692 60.8244Z" fill="#00BFA6"/>
<path d="M117.765 80.1061L117.529 82.8376C117.219 86.4213 116.91 90.002 116.6 93.5797C116.438 95.4191 116.252 97.3045 115.565 98.9737C115.321 99.5864 114.996 100.165 114.6 100.694C113.296 102.413 111.216 103.42 109.104 103.945C106.992 104.469 104.802 104.584 102.648 104.864C100.077 105.228 97.5147 105.871 94.9248 105.711C92.0053 105.536 88.9466 104.092 87.8048 101.42C87.5121 100.699 87.3351 99.9374 87.2804 99.1623C87.1318 97.3229 87.4985 95.4835 87.8605 93.6946C89.6196 84.9897 91.4437 76.11 95.9413 68.4304C97.7978 65.2483 100.267 62.1949 103.697 60.7785C106.227 59.7301 109.109 60.8107 111.411 62.1121C113.829 63.4686 115.736 65.5666 116.846 68.0902C118.438 71.8609 118.113 76.0686 117.765 80.1061Z" fill="url(#paint4_linear_191_164)"/>
<path d="M117.672 78.9333C117.626 80.2347 117.575 81.536 117.529 82.8374C117.219 86.4212 116.91 90.0019 116.6 93.5795C116.438 95.4189 116.252 97.3043 115.565 98.9736C114.331 100.183 112.437 100.583 110.692 100.896C110.597 100.941 110.491 100.96 110.387 100.95C110.282 100.94 110.182 100.902 110.098 100.839C110.014 100.776 109.949 100.691 109.91 100.594C109.872 100.497 109.861 100.391 109.879 100.289C109.517 96.0535 111.003 91.8873 111.272 87.6429C111.463 84.593 111.029 81.5364 109.996 78.6574C109.415 77.0387 105.916 72.339 109.87 72.5138C110.702 72.6102 111.498 72.9036 112.191 73.3691C113.88 74.3684 115.439 75.57 116.832 76.9467C117.141 77.2138 117.384 77.5473 117.542 77.9216C117.649 78.2479 117.693 78.591 117.672 78.9333Z" fill="url(#paint5_linear_191_164)"/>
<path d="M118.29 60.0473C118.188 59.8177 118.141 59.5678 118.153 59.3172C118.165 59.0666 118.236 58.8222 118.359 58.6033C118.644 58.2976 119.022 58.0938 119.436 58.0239C120.072 57.8446 120.717 57.6882 121.367 57.5641C121.654 57.4874 121.952 57.4579 122.249 57.4767C122.959 57.5549 123.493 58.1343 123.952 58.6677C124.45 59.1784 124.844 59.7795 125.113 60.4381C125.282 61.072 125.334 61.7311 125.266 62.3833L125.205 63.8686C125.207 64.1421 125.163 64.414 125.075 64.6734C124.95 64.9585 124.746 65.2025 124.486 65.3769C124.006 65.6946 123.451 65.8846 122.875 65.9288C122.221 65.9977 121.214 65.9517 120.787 65.3585C120.508 64.9769 120.597 64.3377 120.406 63.8916C119.84 62.5351 118.754 61.4452 118.29 60.0473Z" fill="#F5BBB9"/>
<path d="M88.7656 102.97H88.5846L88.6867 102.344C87.9255 108.842 90.1116 116.632 97.1155 118.572C103.149 120.242 108.937 120.283 114.753 118.365C119.473 116.816 123.948 113.703 127.61 110.378C130.771 107.508 133.212 103.94 136.456 101.181C137.213 102.358 138.313 103.167 139.144 104.285C140.179 105.664 140.295 107.191 140.856 108.745C141.45 110.401 142.509 111.822 143.228 113.417C144.69 116.636 145.312 118.163 149.044 118.168C150.288 118.168 150.835 118.388 151.666 117.464C153.021 115.951 152.506 111.693 152.418 109.886C152.098 103.503 151.137 96.803 148.886 90.7928C147.642 87.4773 146.101 84.2123 143.576 81.6786C140.174 78.2849 136.34 79.646 132.664 81.7935C128.185 84.4147 124.189 88.3326 120.467 91.9516C118.926 93.4461 117.951 94.7889 116.104 96.0167C114.057 97.3962 112.061 98.4447 109.884 99.6127C103.73 102.914 95.5467 102.97 88.7656 102.97Z" fill="#2E2E3F"/>
<path d="M140.207 135.145C140.154 135.767 140.043 136.383 139.877 136.985C138.684 141.284 134.479 144.241 130.098 145.262C125.716 146.283 121.135 145.722 116.675 145.129C106.709 143.8 50.3578 139.951 57.0229 74.4544C57.8212 66.5634 62.6901 56.1294 70.2602 54.6165C71.7019 54.3323 73.1895 54.3716 74.6139 54.7314C90.4319 58.608 78.1692 86.6037 99.8818 96.495C106.333 99.4335 111.717 104.354 118.341 106.883C130.167 111.413 137.371 124.44 137.371 124.44C138.921 127.829 140.504 131.522 140.207 135.145Z" fill="#00BFA6"/>
<path d="M143.762 72.8496C145.201 74.036 145.618 76.0456 145.656 77.908C145.699 78.2953 145.609 78.6859 145.4 79.0162C145.249 79.1821 145.068 79.3193 144.867 79.4209C143.794 80.0463 142.546 80.6901 141.367 80.3084C140.332 79.9727 139.673 78.9288 138.666 78.5196C137.835 78.1793 136.809 78.2758 136.141 77.6642C135.86 77.3787 135.666 77.0198 135.584 76.6296C134.344 71.6678 140.596 70.2469 143.762 72.8496Z" fill="#F5BBB9"/>
<path d="M122.068 70.348C122.569 70.7871 123.142 71.1385 123.762 71.3873C124.432 71.5721 125.133 71.6221 125.823 71.5344C129.828 71.2217 133.913 69.9157 137.784 70.9872C138.343 71.1002 138.855 71.3793 139.25 71.7873C139.58 72.2413 139.743 72.7926 139.715 73.3508C139.715 76.1099 137.45 78.4092 134.952 79.6738C132.079 81.1177 128.826 81.6005 125.637 82.065C123.474 82.3777 121.288 82.6904 119.107 82.4881C118.108 82.457 117.136 82.1634 116.289 81.6373C97.4219 68.1269 103.999 66.1174 105.28 62.2546C105.948 60.2359 114.363 64.2872 116.322 65.8277C118.28 67.3682 120.146 68.8397 122.068 70.348Z" fill="#00BFA6"/>
<path d="M140.207 135.145C140.154 135.767 140.043 136.383 139.877 136.985C138.684 141.284 134.479 144.241 130.098 145.262C125.716 146.283 121.135 145.722 116.674 145.129C106.709 143.8 50.3578 139.951 57.0229 74.4544C57.8212 66.5634 62.6901 56.1294 70.2602 54.6165C70.6176 56.6858 68.7796 59.1644 68.0834 61.3947C65.8557 68.6328 65.4053 76.2934 66.7699 83.7388C67.5368 87.9809 68.9089 92.0933 70.8451 95.9524C73.4953 101.199 77.1296 105.894 80.8984 110.424C83.7297 113.827 86.7187 117.211 90.534 119.478C93.9826 121.529 97.9603 122.569 101.878 123.405C107.078 124.515 112.34 125.322 117.635 125.824C124.769 126.5 132.627 126.896 137.83 131.802C138.854 132.736 139.664 133.876 140.207 135.145Z" fill="url(#paint6_linear_191_164)"/>
<path d="M153.295 25.7563C153.3 27.2909 152.926 28.8034 152.205 30.1617L148.25 39.9427H138.568L134.892 29.619C134.344 28.4038 134.062 27.0873 134.066 25.7563C134.121 23.2661 135.158 20.8964 136.955 19.1546C138.753 17.4128 141.167 16.4375 143.681 16.4375C146.195 16.4375 148.609 17.4128 150.406 19.1546C152.203 20.8964 153.24 23.2661 153.295 25.7563Z" fill="#00BFA6"/>
<path opacity="0.69" d="M153.295 25.7563C153.3 27.2909 152.926 28.8034 152.205 30.1617L148.25 39.9427H138.568L134.892 29.619C134.344 28.4038 134.062 27.0873 134.066 25.7563C134.121 23.2661 135.158 20.8964 136.955 19.1546C138.753 17.4128 141.167 16.4375 143.681 16.4375C146.195 16.4375 148.609 17.4128 150.406 19.1546C152.203 20.8964 153.24 23.2661 153.295 25.7563Z" fill="url(#paint7_radial_191_164)"/>
<path d="M142.11 40.0991C140.696 37.1756 139.954 33.9781 139.937 30.7365C139.937 30.0099 140.039 29.1546 140.685 28.8005C141.469 28.3683 142.439 29.0443 142.871 29.826C143.146 30.3395 143.309 30.9046 143.349 31.4846C143.389 32.0645 143.305 32.6464 143.103 33.1921C142.639 32.5104 142.375 31.7143 142.342 30.8929C142.241 30.2898 142.279 29.672 142.453 29.0856C142.545 28.7944 142.72 28.5359 142.957 28.3416C143.195 28.1473 143.484 28.0255 143.79 27.9912C144.718 27.959 145.349 29.0075 145.451 29.9364C145.57 30.9974 145.323 32.0671 144.751 32.9714C144.552 32.3735 144.517 31.7343 144.647 31.1184C144.777 30.5024 145.069 29.9314 145.493 29.4627C145.773 29.1356 146.15 28.904 146.57 28.8005C146.78 28.7529 146.999 28.7653 147.202 28.8361C147.405 28.9069 147.583 29.0333 147.716 29.2006C147.847 29.4061 147.926 29.6393 147.948 29.8812C148.194 31.6378 147.582 33.4036 146.811 35.0085C146.041 36.6134 145.113 38.1539 144.662 39.8737" stroke="white" stroke-width="0.650083" stroke-miterlimit="10"/>
<path d="M147.661 39.8323H138.949C138.349 39.8323 137.863 40.314 137.863 40.9083V43.902C137.863 44.4962 138.349 44.978 138.949 44.978H147.661C148.26 44.978 148.747 44.4962 148.747 43.902V40.9083C148.747 40.314 148.26 39.8323 147.661 39.8323Z" fill="#00BFA6"/>
<path d="M147.661 39.8323H138.949C138.349 39.8323 137.863 40.314 137.863 40.9083V43.902C137.863 44.4962 138.349 44.978 138.949 44.978H147.661C148.26 44.978 148.747 44.4962 148.747 43.902V40.9083C148.747 40.314 148.26 39.8323 147.661 39.8323Z" fill="url(#paint8_linear_191_164)"/>
<path d="M148.543 41.5383H138.192C137.69 41.5383 137.282 41.9419 137.282 42.4396V42.504C137.282 43.0018 137.69 43.4053 138.192 43.4053H148.543C149.045 43.4053 149.452 43.0018 149.452 42.504V42.4396C149.452 41.9419 149.045 41.5383 148.543 41.5383Z" fill="#00BFA6"/>
<path d="M148.543 41.5383H138.192C137.69 41.5383 137.282 41.9419 137.282 42.4396V42.504C137.282 43.0018 137.69 43.4053 138.192 43.4053H148.543C149.045 43.4053 149.452 43.0018 149.452 42.504V42.4396C149.452 41.9419 149.045 41.5383 148.543 41.5383Z" fill="url(#paint9_linear_191_164)"/>
</g>
<defs>
<radialGradient id="paint0_radial_191_164" cx="0" cy="0" r="1" gradientUnits="userSpaceOnUse" gradientTransform="translate(143.896 33.353) scale(19.7493 19.5666)">
<stop stop-color="white"/>
<stop offset="1" stop-color="white" stop-opacity="0"/>
</radialGradient>
<linearGradient id="paint1_linear_191_164" x1="115.189" y1="68.5177" x2="112.756" y2="212.332" gradientUnits="userSpaceOnUse">
<stop offset="0.01"/>
<stop offset="0.13" stop-opacity="0.69"/>
<stop offset="1" stop-opacity="0"/>
</linearGradient>
<linearGradient id="paint2_linear_191_164" x1="111.109" y1="70.6883" x2="127.88" y2="77.6264" gradientUnits="userSpaceOnUse">
<stop offset="0.01"/>
<stop offset="0.13" stop-opacity="0.69"/>
<stop offset="1" stop-opacity="0"/>
</linearGradient>
<linearGradient id="paint3_linear_191_164" x1="128.668" y1="103.71" x2="146.509" y2="144.001" gradientUnits="userSpaceOnUse">
<stop offset="0.01"/>
<stop offset="0.13" stop-opacity="0.69"/>
<stop offset="1" stop-opacity="0"/>
</linearGradient>
<linearGradient id="paint4_linear_191_164" x1="85.7208" y1="92.7749" x2="114.15" y2="78.4278" gradientUnits="userSpaceOnUse">
<stop offset="0.01"/>
<stop offset="0.13" stop-opacity="0.69"/>
<stop offset="1" stop-opacity="0"/>
</linearGradient>
<linearGradient id="paint5_linear_191_164" x1="137.635" y1="89.7766" x2="94.5821" y2="84.9056" gradientUnits="userSpaceOnUse">
<stop offset="0.01"/>
<stop offset="0.13" stop-opacity="0.69"/>
<stop offset="1" stop-opacity="0"/>
</linearGradient>
<linearGradient id="paint6_linear_191_164" x1="59.6917" y1="140.613" x2="120.584" y2="78.8229" gradientUnits="userSpaceOnUse">
<stop offset="0.01"/>
<stop offset="0.13" stop-opacity="0.69"/>
<stop offset="1" stop-opacity="0"/>
</linearGradient>
<radialGradient id="paint7_radial_191_164" cx="0" cy="0" r="1" gradientUnits="userSpaceOnUse" gradientTransform="translate(143.683 28.0877) scale(10.8563 10.7559)">
<stop offset="0.34" stop-color="white"/>
<stop offset="1" stop-color="white" stop-opacity="0.39"/>
</radialGradient>
<linearGradient id="paint8_linear_191_164" x1="137.863" y1="42.4074" x2="148.742" y2="42.4074" gradientUnits="userSpaceOnUse">
<stop offset="0.01"/>
<stop offset="0.13" stop-opacity="0.69"/>
<stop offset="1" stop-opacity="0"/>
</linearGradient>
<linearGradient id="paint9_linear_191_164" x1="137.282" y1="42.4718" x2="149.452" y2="42.4718" gradientUnits="userSpaceOnUse">
<stop offset="0.01"/>
<stop offset="0.13" stop-opacity="0.69"/>
<stop offset="1" stop-opacity="0"/>
</linearGradient>
<clipPath id="clip0_191_164">
<rect width="229" height="171" fill="white"/>
</clipPath>
</defs>
</svg>
