<svg width="92" height="92" viewBox="0 0 92 92" fill="none" xmlns="http://www.w3.org/2000/svg">
<path d="M36.7425 44.8193H53.3332C53.3332 44.8193 62.6558 44.9688 62.6558 35.811V20.6655C62.6558 20.6655 64.0703 11.5 45.7547 11.5C28.221 11.5 29.3135 19.1015 29.3135 19.1015L29.3365 26.979H46.0613V29.3442H22.6933C22.6933 29.3442 11.4732 28.0715 11.4732 45.7585C11.4732 63.4455 21.2673 62.8168 21.2673 62.8168H27.1093V54.6097C27.1093 54.6097 26.7912 44.8193 36.7425 44.8193ZM36.5278 22.816C35.7298 22.816 34.9644 22.499 34.4 21.9346C33.8357 21.3703 33.5187 20.6049 33.5187 19.8068C33.5187 19.0088 33.8357 18.2434 34.4 17.679C34.9644 17.1147 35.7298 16.7977 36.5278 16.7977C37.3259 16.7977 38.0913 17.1147 38.6556 17.679C39.22 18.2434 39.537 19.0088 39.537 19.8068C39.537 20.6049 39.22 21.3703 38.6556 21.9346C38.0913 22.499 37.3259 22.816 36.5278 22.816Z" fill="#366995"/>
<path d="M70.7327 28.8727H64.8907V37.0799C64.8907 37.0799 65.2088 46.8702 55.2575 46.8702H38.6668C38.6668 46.8702 29.3442 46.7169 29.3442 55.8785V71.024C29.3442 71.024 27.9297 80.1896 46.2453 80.1896C63.7752 80.1896 62.6827 72.5881 62.6827 72.5881L62.6597 64.7144H45.9348V62.3492H69.3067C69.3067 62.3492 80.5268 63.6219 80.5268 45.9349C80.5268 28.2479 70.7327 28.8727 70.7327 28.8727ZM55.4722 68.8774C56.2702 68.8774 57.0356 69.1944 57.6 69.7588C58.1643 70.3231 58.4813 71.0885 58.4813 71.8866C58.4813 72.6846 58.1643 73.45 57.6 74.0144C57.0356 74.5787 56.2702 74.8957 55.4722 74.8957C54.6741 74.8957 53.9087 74.5787 53.3444 74.0144C52.78 73.45 52.463 72.6846 52.463 71.8866C52.463 71.0885 52.78 70.3231 53.3444 69.7588C53.9087 69.1944 54.6741 68.8774 55.4722 68.8774Z" fill="#366995"/>
</svg>
