<svg width="229" height="171" viewBox="0 0 229 171" fill="none" xmlns="http://www.w3.org/2000/svg">
<path d="M14.1121 107.899L106.245 161.279C107.926 162.253 109.844 162.757 111.792 162.736C113.74 162.715 115.645 162.17 117.305 161.16L218.752 99.459C219.278 99.1385 219.708 98.6859 220 98.1471C220.291 97.6083 220.433 97.0027 220.412 96.3917C220.39 95.7808 220.206 95.1864 219.877 94.6691C219.548 94.1517 219.087 93.7299 218.54 93.4466L122.068 43.6629C121.554 43.3977 120.981 43.2635 120.402 43.2724C119.822 43.2813 119.254 43.4331 118.748 43.714L14.1637 101.898C13.6282 102.197 13.1817 102.63 12.8693 103.154C12.5569 103.678 12.3897 104.275 12.3844 104.884C12.3792 105.492 12.5362 106.092 12.8395 106.621C13.1429 107.151 13.5819 107.591 14.1121 107.899Z" fill="#9FBAFF"/>
<path d="M67.3947 94.1499L28.7567 116.384C28.7567 116.384 88.2452 150.751 99.1742 157.178L132.511 137.808" fill="url(#paint0_linear_192_228)"/>
<path d="M135.139 40.9062C135.139 40.9062 132.522 23.578 138.224 21.6779C143.927 19.7778 152.027 24.2417 153.756 29.5394C155.485 34.8371 158.394 54.9672 155.897 56.7993C153.401 58.6314 135.86 55.7386 134.629 50.9117" fill="#F23DB4"/>
<path d="M103.096 130.536L53.5001 102.164L107.573 28.7793L157.168 57.1509L103.096 130.536Z" fill="#FFB9AD"/>
<path d="M53.523 60.5088L53.5001 71.4956V102.164L107.573 70.8773V28.7793L53.523 60.5088Z" fill="#FF8C79"/>
<path d="M77.4707 46.448L71.3049 42.92C71.0702 42.7838 53.5001 53.6345 53.5001 53.6345V61.8646" fill="#FF8C79"/>
<path d="M144.654 26.176C145.295 25.9265 145.947 25.7109 146.56 25.5181C148.18 25.0019 149.846 24.6446 151.489 24.2305C151.186 17.027 146.749 8.91596 139.014 9.60228C137.891 9.65626 136.811 10.0524 135.923 10.7367C134.543 11.8711 134.022 13.7429 134.205 15.9266C134.284 16.9356 134.602 17.9119 135.133 18.7763C135.664 19.6406 136.394 20.3686 137.263 20.901C141.762 23.7484 143.697 24.5935 144.654 26.176Z" fill="#581B7A"/>
<path d="M135.413 14.6447C135.413 14.6447 135.734 24.8544 139.312 25.4216C142.89 25.9888 145.415 20.6401 145.415 20.6401C145.415 20.6401 147.356 15.9606 145.415 14.6447C143.474 13.3288 138.23 11.1677 135.413 14.6447Z" fill="#FFB9AD"/>
<path d="M143.697 27.73C143.239 30.2881 143.056 33.5098 145.415 35.2058C146.956 34.9618 148.46 34.5273 149.892 33.9126C151.461 33.1181 152.904 32.0995 154.174 30.8894C154.206 30.4323 154.206 29.9737 154.174 29.5167C154.002 26.6807 150.419 2.7446 139.495 12.0581L141.264 15.6882C142.117 17.4466 143.119 19.2616 143.617 21.1958C144.101 23.3448 144.128 25.57 143.697 27.73Z" fill="#581B7A"/>
<path d="M135.413 11.3947C135.379 11.2926 136.971 8.38847 142.816 8.67207C149.485 9.00105 150.218 16.7321 150.218 16.7321" fill="#581B7A"/>
<path d="M135.03 13.4649C134.921 13.6861 134.635 16.8681 135.413 17.787C135.413 17.787 139.593 19.897 141.951 19.9878C141.951 19.9878 141.951 17.2935 142.266 17.0213C142.581 16.749 142.095 12.0185 139.009 11.3889" fill="#581B7A"/>
<path d="M57.4676 113.781C53.523 111.512 49.6071 109.13 45.6225 106.901C44.0048 105.89 42.1643 105.283 40.2582 105.131C37.8308 105.057 34.6992 106.782 36.1877 109.515C36.9263 110.871 38.4262 111.784 39.7029 112.55C42.2906 114.155 44.9298 115.692 47.529 117.28C50.6491 119.181 54.668 122.453 58.6068 121.971C60.8968 121.693 62.4483 119.907 60.685 118.001C59.769 117.014 58.3435 116.396 57.1756 115.732L43.3669 107.961C43.2029 107.867 43.0076 107.84 42.824 107.888C42.6404 107.936 42.4836 108.054 42.3879 108.217C42.2922 108.379 42.2656 108.572 42.314 108.754C42.3623 108.936 42.4815 109.092 42.6455 109.186L54.2444 115.715C55.4867 116.413 56.7634 117.082 57.9828 117.819C58.3664 118.052 59.0877 118.324 59.3282 118.693C60.6678 120.746 57.5534 120.644 56.4256 120.394C54.2501 119.867 52.275 118.551 50.3972 117.394C48.1473 116.01 45.8859 114.654 43.6245 113.293C42.2333 112.454 34.8824 109.192 38.7926 106.713C40.5674 105.579 43.7104 107.468 45.3363 108.415C49.1529 110.612 52.9543 112.82 56.7405 115.04C56.9045 115.135 57.0997 115.161 57.2833 115.113C57.4669 115.065 57.6238 114.947 57.7195 114.785C57.8151 114.622 57.8417 114.429 57.7934 114.247C57.7451 114.065 57.6258 113.91 57.4618 113.815L57.4676 113.781Z" fill="#2E3192"/>
<path d="M149.205 52.6021C149.205 52.6021 152.245 49.8001 153.659 46.896L153.087 54.8369L149.205 52.6021Z" fill="#581B7A"/>
<path d="M117.523 38.6942L115.645 37.3556C115.329 37.1121 114.946 36.9689 114.547 36.9446C114.148 36.9203 113.75 37.0161 113.407 37.2194L63.8223 66.3228C63.3783 66.5827 63.0102 66.9526 62.7543 67.3961C62.4983 67.8397 62.3633 68.3416 62.3624 68.8525V78.166V106.685C62.3622 106.864 62.4022 107.041 62.4794 107.203C62.5566 107.365 62.6692 107.508 62.809 107.621L62.975 107.734L64.9043 109.062L65.7688 107.405L65.1047 107.213L116.395 77.5591V38.9211L117.523 38.6942Z" fill="#00BFA6"/>
<path opacity="0.5" d="M117.523 38.6942L115.645 37.3556C115.329 37.1121 114.946 36.9689 114.547 36.9446C114.148 36.9203 113.75 37.0161 113.407 37.2194L63.8223 66.3228C63.3783 66.5827 63.0102 66.9526 62.7543 67.3961C62.4983 67.8397 62.3633 68.3416 62.3624 68.8525V78.166V106.685C62.3622 106.864 62.4022 107.041 62.4794 107.203C62.5566 107.365 62.6692 107.508 62.809 107.621L62.975 107.734L64.9043 109.062L65.7688 107.405L65.1047 107.213L116.395 77.5591V38.9211L117.523 38.6942Z" fill="black"/>
<path d="M76.8925 71.0078C80.7626 69.1304 85.9093 70.106 88.3883 73.7247C89.4474 75.2732 90.0428 77.2584 91.6573 78.2283C92.322 78.578 93.0612 78.766 93.8137 78.7769C94.5662 78.7877 95.3106 78.6211 95.9853 78.2907C100.142 76.4417 101.556 71.7906 103.13 67.9619C104.899 63.6568 107.281 58.3932 111.552 56.0506C113.719 55.0532 115.946 54.1894 118.221 53.4641V40.1972C118.221 39.8479 118.128 39.5048 117.95 39.2028C117.773 38.9009 117.518 38.6508 117.212 38.478C116.905 38.3051 116.558 38.2157 116.206 38.2188C115.853 38.2219 115.507 38.3174 115.204 38.4956L65.6199 67.5989C65.176 67.8588 64.8079 68.2287 64.5519 68.6723C64.2959 69.1158 64.1609 69.6177 64.1601 70.1287V79.4422V94.4051C65.1936 89.6941 66.7567 85.1127 68.8202 80.7467C70.5549 76.9918 73.0052 72.8909 76.8925 71.0078Z" fill="#7162D9"/>
<path d="M118.227 78.8241V53.4473C115.952 54.1726 113.725 55.0364 111.557 56.0337C107.281 58.3876 104.899 63.6513 103.136 67.9451C101.561 71.7794 100.147 76.4248 95.9911 78.2739C95.3163 78.6042 94.572 78.7708 93.8194 78.76C93.0669 78.7491 92.3277 78.5611 91.663 78.2115C90.0485 77.2472 89.4531 75.2563 88.394 73.7079C85.9208 70.0891 80.7683 69.1135 76.8982 70.9909C73.0281 72.8684 70.5549 76.992 68.8145 80.7469C66.751 85.1129 65.1879 89.6942 64.1544 94.4052V107.961C64.1551 108.178 64.2134 108.391 64.3233 108.578C64.4331 108.765 64.5907 108.921 64.7803 109.029C64.9699 109.137 65.1848 109.194 65.4035 109.193C65.6222 109.193 65.837 109.136 66.0264 109.028L118.227 78.8241Z" fill="#00BFA6"/>
<path d="M97.9047 65.7155C98.6077 63.0224 97.8649 60.5028 96.2455 60.0879C94.6262 59.673 92.7436 61.5199 92.0406 64.213C91.3376 66.9061 92.0804 69.4257 93.6998 69.8406C95.3191 70.2555 97.2017 68.4087 97.9047 65.7155Z" fill="#E0FF4B"/>
<path d="M123.019 47.1626L73.4346 76.266C72.9906 76.5259 72.6225 76.8958 72.3665 77.3393C72.1106 77.7829 71.9755 78.2848 71.9747 78.7957V88.1092V116.628C71.9745 116.807 72.0144 116.984 72.0917 117.146C72.1689 117.308 72.2815 117.451 72.4213 117.564L72.5873 117.678L74.5166 119.005L75.3811 117.349L74.717 117.156L126.03 87.4626V48.8643C126.029 48.5158 125.936 48.1736 125.759 47.8725C125.582 47.5713 125.328 47.3218 125.022 47.1492C124.716 46.9765 124.37 46.8868 124.019 46.8892C123.667 46.8916 123.322 46.9859 123.019 47.1626Z" fill="#00BFA6"/>
<path d="M125.257 47.2986L127.164 48.6372L124.851 49.091" fill="#006DA8"/>
<path opacity="0.5" d="M123.019 47.1626L73.4346 76.266C72.9906 76.5259 72.6225 76.8958 72.3665 77.3393C72.1106 77.7829 71.9755 78.2848 71.9747 78.7957V88.1092V116.628C71.9745 116.807 72.0144 116.984 72.0917 117.146C72.1689 117.308 72.2815 117.451 72.4213 117.564L72.5873 117.678L74.5166 119.005L75.3811 117.349L74.717 117.156L126.03 87.4626V48.8643C126.029 48.5158 125.936 48.1736 125.759 47.8725C125.582 47.5713 125.328 47.3218 125.022 47.1492C124.716 46.9765 124.37 46.8868 124.019 46.8892C123.667 46.8916 123.322 46.9859 123.019 47.1626Z" fill="black"/>
<path d="M86.5334 80.9625C90.4035 79.085 95.5502 80.0606 98.0292 83.6794C99.0883 85.2278 99.6837 87.2131 101.298 88.183C101.963 88.5326 102.702 88.7207 103.455 88.7315C104.207 88.7424 104.952 88.5757 105.626 88.2454C109.783 86.3963 111.197 81.7452 112.771 77.9166C114.54 73.6115 116.922 68.3478 121.193 66.0052C123.359 64.9944 125.586 64.1173 127.862 63.3791V50.1462C127.862 49.7968 127.768 49.4538 127.591 49.1518C127.414 48.8499 127.159 48.5998 126.853 48.4269C126.546 48.2541 126.199 48.1647 125.846 48.1678C125.494 48.1709 125.148 48.2664 124.845 48.4446L75.2666 77.5592C74.8226 77.8191 74.4545 78.189 74.1985 78.6326C73.9426 79.0761 73.8075 79.578 73.8067 80.089V89.4025V104.365C74.8284 99.6519 76.38 95.0668 78.4325 90.6957C80.1958 86.9408 82.6461 82.8399 86.5334 80.9625Z" fill="#7162D9"/>
<path d="M127.862 88.767V63.3789C125.587 64.1042 123.36 64.968 121.193 65.9654C116.916 68.3193 114.534 73.5829 112.771 77.8767C111.197 81.711 109.783 86.3564 105.626 88.2055C104.952 88.5359 104.207 88.7025 103.455 88.6916C102.702 88.6808 101.963 88.4928 101.298 88.1431C99.6837 87.1789 99.0883 85.188 98.0292 83.6395C95.556 80.0207 90.4035 79.0451 86.5334 80.9226C82.6633 82.8 80.1958 86.9406 78.4325 90.6955C76.369 95.0615 74.8059 99.6429 73.7724 104.354V117.91C73.7731 118.127 73.8314 118.339 73.9413 118.527C74.0511 118.714 74.2087 118.87 74.3983 118.978C74.5879 119.086 74.8028 119.142 75.0215 119.142C75.2402 119.142 75.455 119.085 75.6444 118.976L127.862 88.767Z" fill="#00BFA6"/>
<path d="M107.543 75.663C108.246 72.9699 107.503 70.4503 105.884 70.0354C104.264 69.6205 102.382 71.4674 101.679 74.1605C100.976 76.8536 101.719 79.3732 103.338 79.7881C104.957 80.2031 106.84 78.3562 107.543 75.663Z" fill="#E0FF4B"/>
<path d="M139.507 51.5584L89.9226 80.6617C89.4786 80.9216 89.1105 81.2915 88.8545 81.7351C88.5986 82.1786 88.4635 82.6805 88.4627 83.1915V92.505V121.024C88.4625 121.203 88.5024 121.38 88.5797 121.542C88.6569 121.704 88.7695 121.847 88.9093 121.96L89.0753 122.073L91.0046 123.401L91.8691 121.744L91.205 121.552L142.518 91.8584V53.26C142.517 52.9115 142.424 52.5694 142.247 52.2682C142.07 51.9671 141.816 51.7176 141.51 51.5449C141.204 51.3723 140.858 51.2826 140.507 51.285C140.155 51.2873 139.81 51.3816 139.507 51.5584Z" fill="#00BFA6"/>
<path d="M141.74 51.689L143.646 53.0332L141.339 53.4813" fill="#006DA8"/>
<path opacity="0.5" d="M139.507 51.5584L89.9226 80.6617C89.4786 80.9216 89.1105 81.2915 88.8545 81.7351C88.5986 82.1786 88.4635 82.6805 88.4627 83.1915V92.505V121.024C88.4625 121.203 88.5024 121.38 88.5797 121.542C88.6569 121.704 88.7695 121.847 88.9093 121.96L89.0753 122.073L91.0046 123.401L91.8691 121.744L91.205 121.552L142.518 91.8584V53.26C142.517 52.9115 142.424 52.5694 142.247 52.2682C142.07 51.9671 141.816 51.7176 141.51 51.5449C141.204 51.3723 140.858 51.2826 140.507 51.285C140.155 51.2873 139.81 51.3816 139.507 51.5584Z" fill="black"/>
<path d="M103.016 85.3469C106.886 83.4695 112.033 84.4451 114.511 88.0638C115.571 89.6123 116.166 91.5975 117.78 92.5675C118.445 92.9171 119.184 93.1051 119.937 93.116C120.689 93.1268 121.434 92.9602 122.109 92.6299C126.265 90.7808 127.679 86.1297 129.253 82.301C131.022 77.9959 133.404 72.7323 137.675 70.3897C139.842 69.3923 142.07 68.5285 144.344 67.8032V54.5363C144.344 54.187 144.251 53.8439 144.073 53.5419C143.896 53.24 143.641 52.9899 143.335 52.8171C143.028 52.6443 142.681 52.5548 142.329 52.5579C141.976 52.561 141.631 52.6565 141.327 52.8347L91.7431 81.938C91.2991 82.1979 90.9311 82.5678 90.6751 83.0114C90.4191 83.4549 90.2841 83.9568 90.2832 84.4678V93.7813V108.756C91.3168 104.045 92.8799 99.4632 94.9434 95.0972C96.6781 91.3309 99.1284 87.23 103.016 85.3469Z" fill="#7162D9"/>
<path d="M144.35 93.1573V67.7861C142.075 68.5114 139.848 69.3752 137.681 70.3726C133.404 72.7265 131.022 77.9902 129.259 82.2839C127.685 86.1182 126.271 90.7636 122.114 92.6127C121.44 92.9431 120.695 93.1097 119.943 93.0989C119.19 93.088 118.451 92.9 117.786 92.5503C116.172 91.5861 115.576 89.5952 114.517 88.0467C112.044 84.428 106.891 83.4524 103.021 85.3298C99.1513 87.2073 96.6838 91.3138 94.9434 95.0687C92.8759 99.4435 91.3108 104.035 90.2775 108.755V122.312C90.2783 122.528 90.3366 122.741 90.4464 122.928C90.5563 123.116 90.7139 123.271 90.9035 123.379C91.0931 123.487 91.308 123.544 91.5267 123.544C91.7454 123.543 91.9602 123.486 92.1496 123.378L144.35 93.1573Z" fill="#00BFA6"/>
<path d="M124.028 80.0505C124.731 77.3574 123.988 74.8378 122.368 74.4229C120.749 74.008 118.867 75.8548 118.164 78.548C117.461 81.2411 118.203 83.7607 119.823 84.1756C121.442 84.5905 123.325 82.7436 124.028 80.0505Z" fill="#E0FF4B"/>
<path d="M150.344 125.987L138.35 134.291L126.11 124.586L135.562 116.708L150.344 125.987Z" fill="url(#paint1_linear_192_228)"/>
<path d="M104.069 88.336C103.778 88.5071 103.537 88.7503 103.369 89.0416C103.202 89.333 103.113 89.6625 103.113 89.9979V99.8843V130.553L157.186 99.2604V57.1396L104.069 88.336Z" fill="#FF8C79"/>
<path d="M166.328 96.3904V116.844L150.344 125.987L137.32 118.319V99.3172" fill="#FFAF68"/>
<path d="M150.344 125.987V105.812L137.32 100.094V118.319L150.344 125.987Z" fill="#F49E5D"/>
<path d="M137.32 98.2507V100.094L138.556 100.469L139.381 99.2207" fill="#EA8E50"/>
<path d="M153.167 90.5027L166.334 98.228L149.869 107.621C149.382 107.899 137.32 100.066 137.32 100.066L153.167 90.5027Z" fill="#EA8E50"/>
<path d="M166.328 98.2337V96.3903L163.964 95.2275L164.25 98.4947" fill="#EA8E50"/>
<path d="M153.167 88.665L166.334 96.3904L149.869 105.806C149.382 106.084 137.32 98.2508 137.32 98.2508L153.167 88.665Z" fill="#FFB883"/>
<path d="M164.033 102.159V106.396L152.056 113.163V109.011L164.033 102.159Z" fill="#EA8E50"/>
<path d="M164.193 108.483V112.72L152.216 119.487V115.335L164.193 108.483Z" fill="#EA8E50"/>
<path d="M159.121 107.498C159.161 107.084 158.954 106.725 158.658 106.697C158.362 106.669 158.09 106.982 158.05 107.397C158.01 107.812 158.218 108.171 158.513 108.199C158.809 108.227 159.082 107.913 159.121 107.498Z" fill="#FFB883"/>
<path d="M159.61 113.604C159.65 113.189 159.442 112.831 159.146 112.803C158.851 112.775 158.578 113.088 158.538 113.503C158.498 113.918 158.706 114.277 159.002 114.305C159.298 114.333 159.57 114.019 159.61 113.604Z" fill="#FFB883"/>
<path d="M140.972 107.893L119.137 95.636L111.248 100.542L121.118 110.406L133.782 116.095" fill="#00BFA6"/>
<path opacity="0.5" d="M140.972 107.893L119.137 95.636L111.248 100.542L121.118 110.406L133.782 116.095" fill="white"/>
<path d="M132.328 112.811L111.248 100.542V103.651V105.193V126.191L132.328 137.813V137.711L132.511 137.813L140.972 132.708V112.283V107.893L132.328 112.811Z" fill="#00BFA6"/>
<path d="M133.839 114.671V125.403L139.948 121.847V111.234L133.839 114.671Z" fill="#FFECB3"/>
<path opacity="0.2" d="M132.328 112.811V137.813L111.248 126.191V100.542L132.328 112.811Z" fill="black"/>
<path d="M138.708 128.555C138.965 127.466 138.566 126.443 137.818 126.27C137.07 126.097 136.255 126.84 135.999 127.929C135.742 129.018 136.141 130.041 136.889 130.214C137.638 130.387 138.452 129.644 138.708 128.555Z" fill="#FFECB3"/>
<path d="M149.732 86.918C149.732 86.918 147.585 96.6796 147.751 97.2411C148.169 98.6761 154.146 99.5099 155.909 97.2411L153.739 86.918H149.732Z" fill="#F23DB4"/>
<path d="M151.69 88.1942C152.831 88.1942 153.756 87.6787 153.756 87.0428C153.756 86.4069 152.831 85.8914 151.69 85.8914C150.548 85.8914 149.623 86.4069 149.623 87.0428C149.623 87.6787 150.548 88.1942 151.69 88.1942Z" fill="#934600"/>
<path d="M155.846 66.8674C155.846 66.8674 151.838 64.746 149.405 69.1362C146.972 73.5264 150.55 75.6364 154.529 75.7952C158.508 75.954 159.212 68.3478 155.846 66.8674Z" fill="#E0FF4B"/>
<path d="M155.079 66.8673C151.798 72.8854 151.295 79.828 151.014 86.5324C151.014 86.884 151.552 86.884 151.587 86.5324C151.861 79.9301 152.342 73.0726 155.594 67.1453C155.72 66.8333 155.245 66.5554 155.079 66.8673Z" fill="#1A892D"/>
<path d="M157.437 78.0866C157.437 78.0866 151.896 77.8654 152.537 81.5238C153.178 85.1823 157.901 84.4449 158.6 82.4711C159.298 80.4972 157.437 78.0866 157.437 78.0866Z" fill="#E0FF4B"/>
<path d="M157.346 78.2737C155.194 81.0851 153.526 84.2303 152.411 87.5816C152.395 87.6335 152.401 87.6895 152.426 87.7374C152.452 87.7853 152.496 87.821 152.548 87.8368C152.601 87.8526 152.657 87.8472 152.706 87.8216C152.754 87.7961 152.79 87.7526 152.806 87.7007C153.911 84.3836 155.563 81.271 157.695 78.4893C157.855 78.2851 157.506 78.0639 157.346 78.2737Z" fill="#1A892D"/>
<path d="M145.358 75.2507C145.358 75.2507 142.381 79.8848 145.896 81.1723C149.411 82.4599 151.14 78.0414 149.772 76.4532C148.403 74.865 145.358 75.2507 145.358 75.2507Z" fill="#E0FF4B"/>
<path d="M151.289 87.162C149.743 82.9064 147.812 78.7982 145.518 74.8876C145.491 74.8402 145.446 74.8055 145.392 74.7912C145.339 74.7768 145.282 74.784 145.235 74.811C145.187 74.8381 145.152 74.8829 145.137 74.9356C145.123 74.9882 145.13 75.0444 145.157 75.0918C147.432 78.9698 149.349 83.0438 150.882 87.2641C150.974 87.508 151.375 87.4115 151.289 87.162Z" fill="#1A892D"/>
<path d="M141.322 53.1693C141.232 53.1213 141.132 53.0938 141.03 53.0889C140.927 53.084 140.825 53.1018 140.731 53.1409C140.637 53.1801 140.552 53.2396 140.484 53.3152C140.416 53.3907 140.366 53.4804 140.337 53.5777C140.274 53.7876 140.2 53.9974 140.125 54.2073C139.959 54.2843 139.829 54.4227 139.764 54.593C139.679 54.8085 139.593 55.0184 139.501 55.2283L139.444 55.1318C139.707 54.5249 138.911 53.8613 138.39 54.3037C138.324 54.2784 138.255 54.2612 138.184 54.2527C138.516 54.0371 138.845 53.8159 139.169 53.589C139.89 53.0785 139.198 51.8874 138.471 52.4036C136.57 53.7422 134.234 54.593 132.746 56.4931C132.528 56.7711 131.377 58.138 131.52 58.484C131.569 58.603 131.647 58.7082 131.747 58.7904C131.847 58.8725 131.966 58.9289 132.093 58.9548C133.095 59.0909 133.576 57.9962 134.343 57.361C133.839 58.6485 132.917 59.7375 132.746 61.1726C132.743 61.2687 132.761 61.3642 132.8 61.4524C132.839 61.5406 132.896 61.6194 132.969 61.6832C133.041 61.747 133.127 61.7943 133.22 61.8217C133.313 61.8491 133.411 61.856 133.507 61.8419L133.358 62.1538C132.969 62.9479 134.165 63.6399 134.555 62.8458L134.795 62.3467C134.84 62.4511 134.909 62.5436 134.996 62.6168C135.084 62.6901 135.187 62.742 135.298 62.7685C135.41 62.7949 135.526 62.7952 135.637 62.7692C135.749 62.7433 135.852 62.6918 135.94 62.619C136.151 62.4412 136.352 62.2519 136.541 62.0517C136.603 62.1154 136.677 62.166 136.76 62.2006C136.842 62.2352 136.93 62.253 137.019 62.253C137.109 62.253 137.197 62.2352 137.279 62.2006C137.361 62.166 137.435 62.1154 137.497 62.0517C138.791 60.8096 139.329 59.1079 140.171 57.5822C141.041 56.506 141.775 55.3289 142.358 54.0768C142.719 53.3224 141.774 52.6872 141.322 53.1693Z" fill="#FFB9AD"/>
<path d="M134.887 58.762L133.392 61.6774C133.272 61.9157 133.633 62.1199 133.753 61.8873L135.219 58.9832C135.362 58.7336 135.001 58.5238 134.887 58.762Z" fill="#0D0D0D"/>
<path d="M135.997 59.8283C135.616 60.7093 135.211 61.5809 134.784 62.4431C134.669 62.6813 135.024 62.8912 135.144 62.6529C135.568 61.7908 135.973 60.9192 136.358 60.0381C136.455 59.7999 136.1 59.59 135.997 59.8283Z" fill="#0D0D0D"/>
<path d="M137.4 59.4086L136.255 62.0404C136.152 62.2786 136.507 62.4885 136.616 62.2503L137.761 59.6184C137.875 59.4086 137.52 59.1874 137.4 59.4086Z" fill="#0D0D0D"/>
<path d="M144.184 37.0549C144.184 37.0549 139.238 47.5709 134.629 50.9004C134.629 50.9004 138.568 60.1686 143.28 57.826C144.997 56.9865 153.092 49.7036 155.073 43.9692" fill="#F23DB4"/>
<path d="M117.488 49.0457C116.804 49.6434 116.167 50.2919 115.582 50.9855C115.158 51.4904 114.546 52.0576 114.66 52.7609C114.695 52.9708 115.021 52.8857 114.987 52.6701C114.878 52.0179 115.857 51.1614 116.269 50.7076C116.728 50.2063 117.216 49.7309 117.729 49.2839C117.889 49.1421 117.649 48.9039 117.488 49.0457Z" fill="#0D0D0D"/>
<path d="M127.095 43.7139C127.086 43.5583 127.025 43.41 126.921 43.2928C126.818 43.1756 126.677 43.0962 126.522 43.0673L126.832 42.8745C126.971 42.7817 127.07 42.6408 127.111 42.4793C127.151 42.3179 127.129 42.1473 127.049 42.001C123.797 43.9125 120.362 45.5233 117.105 47.4235C116.181 48.0783 115.301 48.7926 114.471 49.5618C113.979 50.0213 114.534 50.9458 115.164 50.5715C115.695 50.2576 116.221 49.9381 116.744 49.6129C116.303 50.1461 115.874 50.6849 115.456 51.2351C115.113 51.6889 114.368 52.9821 115.193 52.8857C115.508 52.7268 116.424 52.0519 116.91 51.7512L117.082 51.6435L116.939 51.7399C117.059 51.6775 117.511 51.3996 117.511 51.4166C117.889 51.2124 118.261 50.9969 118.656 50.7813C118.662 50.8095 118.675 50.8354 118.696 50.8556C118.716 50.8759 118.742 50.8895 118.771 50.8948H118.868C118.861 50.9193 118.86 50.9452 118.865 50.9703C118.869 50.9954 118.88 51.019 118.895 51.0394C118.911 51.0598 118.931 51.0763 118.954 51.0876C118.977 51.0989 119.003 51.1047 119.028 51.1046C119.226 51.0868 119.42 51.037 119.601 50.9572C119.822 50.8711 120.019 50.7328 120.173 50.5544C120.185 50.5409 120.195 50.5255 120.202 50.5091C120.298 50.3987 120.378 50.2767 120.443 50.1461C120.454 50.1232 120.46 50.0979 120.46 50.0723C120.46 50.0467 120.454 50.0215 120.443 49.9986L120.546 49.8568C120.689 49.715 120.815 49.5675 120.952 49.42L122.698 48.3537L122.933 48.2573L124.255 47.8205C124.292 47.8034 124.322 47.7739 124.339 47.7373C124.356 47.7006 124.359 47.6592 124.348 47.6203C124.337 47.5815 124.313 47.5478 124.279 47.5252C124.245 47.5027 124.204 47.4928 124.164 47.4972L124.055 47.5312L124.41 47.31L124.982 46.879C125.952 46.2198 126.851 45.4654 127.667 44.6271C128.063 44.179 127.587 43.6913 127.095 43.7139Z" fill="#FFB9AD"/>
<path d="M124.753 47.4122C124.055 47.9448 123.235 48.2993 122.366 48.4445C122.08 48.4899 121.536 48.4162 121.278 48.592C121.138 48.717 121.038 48.881 120.992 49.0628C120.841 49.4468 120.649 49.8138 120.42 50.1575C120.179 50.4978 119.578 51.1331 119.086 51.0253C118.399 50.8722 119.464 48.7962 119.658 48.4672C119.673 48.4296 119.673 48.3882 119.66 48.3502C119.646 48.3122 119.62 48.2802 119.585 48.2598C119.55 48.2394 119.509 48.2319 119.469 48.2388C119.429 48.2456 119.392 48.2662 119.366 48.2971C119.105 48.7498 118.894 49.229 118.736 49.7264C118.561 50.1244 118.485 50.5581 118.513 50.9913C118.685 51.6946 119.738 51.2465 120.099 50.9913C120.435 50.731 120.71 50.4021 120.906 50.027C121.027 49.8058 121.107 49.5676 121.227 49.3464C121.278 49.2139 121.363 49.0967 121.473 49.0061C121.673 48.8246 121.776 48.8529 122.046 48.8302C123.098 48.7292 124.1 48.336 124.937 47.6958C125.097 47.571 124.925 47.2818 124.753 47.4122Z" fill="#0D0D0D"/>
<path d="M135.196 26.0171C135.196 26.0171 131.852 34.4514 129.643 36.3629C127.433 38.2744 120.397 42.9198 120.397 42.9198C120.397 42.9198 120.334 48.4558 126.122 49.386C126.122 49.386 137.961 42.7497 140.577 40.8779" fill="#F23DB4"/>
<path d="M136.06 35.2625L135.305 44.7632C135.276 45.1262 135.849 45.1262 135.877 44.7632L136.633 35.2625C136.661 34.8995 136.089 34.8995 136.06 35.2625Z" fill="#581B7A"/>
<defs>
<linearGradient id="paint0_linear_192_228" x1="95.2984" y1="103.583" x2="76.399" y2="134.459" gradientUnits="userSpaceOnUse">
<stop stop-color="#7A7FF1"/>
<stop offset="1" stop-color="#9FBAFF"/>
</linearGradient>
<linearGradient id="paint1_linear_192_228" x1="142.558" y1="118.341" x2="136.017" y2="129.025" gradientUnits="userSpaceOnUse">
<stop stop-color="#7A7FF1"/>
<stop offset="1" stop-color="#9FBAFF"/>
</linearGradient>
</defs>
</svg>
