<svg width="80" height="80" viewBox="0 0 80 80" fill="none" xmlns="http://www.w3.org/2000/svg">
<path d="M0 40C0 17.9062 17.9062 0 40 0C62.0938 0 80 17.9062 80 40C80 62.0938 62.0938 80 40 80C17.9062 80 0 62.0938 0 40ZM40 67.5C51.8906 67.5 61.9062 59.6875 64.875 49.0781C65.4844 46.9375 63.7188 45 61.5 45H18.5C16.2812 45 14.5188 46.9375 15.1188 49.0781C18.0938 59.6875 28.1094 67.5 40 67.5ZM35.3906 33.6875C35.9062 33.5156 36.25 33.0312 36.25 32.5C36.25 29.7031 35.2031 26.9375 33.6562 24.875C32.125 22.8438 29.9219 21.25 27.5 21.25C25.0781 21.25 22.875 22.8438 21.3438 24.875C19.7969 26.9375 18.75 29.7031 18.75 32.5C18.75 33.0312 19.0938 33.5156 19.6094 33.6875C20.1094 33.8594 20.6719 33.6875 21 33.25L21.0312 33.2031C21.0625 33.1719 20.9531 33.125 21.1406 33.0625C21.1094 32.9375 21.3906 32.7656 21.5781 32.5469C21.9688 32.0938 22.5156 31.5156 23.1719 30.7969C24.5469 29.7188 26.125 28.75 27.5 28.75C28.875 28.75 30.4531 29.7188 31.8281 30.7969C32.4844 31.5156 33.0312 32.0938 33.4219 32.5469C33.6094 32.7656 33.75 32.9375 33.8594 33.0625C33.9062 33.125 33.9375 33.1719 33.9688 33.2031L34 33.25C34.3281 33.6875 34.8906 33.8594 35.3906 33.6875ZM59 33.25C59.3281 33.6875 59.8906 33.8594 60.3906 33.6875C60.9062 33.5156 61.25 33.0312 61.25 32.5C61.25 29.7031 60.2031 26.9375 58.6562 24.875C57.125 22.8438 54.9219 21.25 52.5 21.25C50.0781 21.25 47.875 22.8438 46.3438 24.875C44.7969 26.9375 43.75 29.7031 43.75 32.5C43.75 33.0312 44.0938 33.5156 44.6094 33.6875C45.1094 33.8594 45.6719 33.6875 46 33.25L46.0312 33.2031C46.0625 33.1719 45.9531 33.125 46.1406 33.0625C46.1094 32.9375 46.3906 32.7656 46.5781 32.5469C46.9688 32.0938 47.5156 31.5156 48.1719 30.7969C49.5469 29.7188 51.125 28.75 52.5 28.75C53.875 28.75 55.4531 29.7188 56.8281 30.7969C57.4844 31.5156 58.0312 32.0938 58.4219 32.5469C58.6094 32.7656 58.75 32.9375 58.8594 33.0625C58.9063 33.125 58.9375 33.1719 58.9688 33.2031L59 33.25Z" fill="white"/>
</svg>
