<svg width="92" height="92" viewBox="0 0 92 92" fill="none" xmlns="http://www.w3.org/2000/svg">
<g clip-path="url(#clip0_88_197)">
<path d="M81.696 48.4687C77.97 43.9108 67.7197 32.3227 64.0742 28.2133L57.2355 32.1157L75.0873 52.624C77.4755 55.2767 76.8468 59.156 73.646 61.2068C70.6828 63.112 53.1722 74.1482 49.1663 76.6743C48.8827 73.9105 47.794 71.3422 46 69.207C44.2022 67.0718 22.5592 40.9323 17.1618 34.0247C15.364 31.7208 14.9577 29.2483 16.031 27.0595C17.0583 24.955 19.2587 23.5405 21.5127 23.5405C25.0355 23.5405 26.91 26.0513 27.4505 28.198C28.0638 30.6552 27.3163 32.9168 25.0623 34.6572L30.1568 40.8825L60.0415 23.8395C65.4925 19.8107 67.0258 12.374 63.6065 6.53967C61.2375 2.50317 56.8637 3.07019e-06 52.1908 3.07019e-06C47.6368 3.07019e-06 49.151 -0.0613307 15.525 17.1542C10.7947 19.4197 7.66667 24.0043 7.66667 29.4285C7.66667 32.7635 8.84734 36.1598 11.0745 38.962C16.5447 45.839 40.0583 74.1712 40.2692 74.4472C41.6913 76.337 41.906 78.7367 40.8442 80.8603C39.7823 82.9878 37.7315 84.2567 35.3663 84.2567C31.8435 84.2567 29.969 81.7458 29.4285 79.5953C28.8305 77.1842 29.4745 74.9647 31.7438 73.255L26.8487 67.3325C23.6977 69.8817 21.9535 73.0672 21.5702 76.6935C20.6808 85.146 27.416 92 35.42 92C37.7047 92 40.4455 91.3215 42.4772 90.045L78.614 67.252C82.2825 64.7067 84.3333 60.4248 84.3333 56.1468C84.3333 53.2948 83.4133 50.5732 81.696 48.4687ZM49.91 8.24934C50.6307 7.91584 51.4357 7.73567 52.2445 7.73567C54.2838 7.73567 56.0663 8.81284 57.0093 10.6183C58.2053 12.903 57.8757 16.2495 54.9087 17.9477L35.3702 29.0183C35.1747 24.8438 33.1507 21.0412 29.7927 18.5457L49.91 8.24934ZM40.8097 55.2652L44.6085 44.9497L47.725 48.8482L46.0192 54.3413L52.8502 55.2537L55.9628 59.1445L42.9333 57.914L40.8097 55.2652ZM61.8202 43.4738L63.9362 46.1227L60.1412 56.4382L57.0285 52.5473L58.7152 47.035L51.8995 46.1457L48.7868 42.251L61.8202 43.4738Z" fill="#2882C5"/>
</g>
<defs>
<clipPath id="clip0_88_197">
<rect width="92" height="92" fill="white"/>
</clipPath>
</defs>
</svg>
