<svg width="406" height="306" viewBox="0 0 406 306" fill="none" xmlns="http://www.w3.org/2000/svg">
<g clip-path="url(#clip0_198_510)">
<path opacity="0.24" d="M386.497 232.716C386.314 234.698 385.96 236.661 385.438 238.582C384.264 243.042 382.48 247.318 380.136 251.289C366.589 274.931 340.053 288.599 313.361 294.19C286.669 299.781 259.095 298.552 231.859 299.802C195.065 301.468 158.37 307.645 121.576 305.619C104.135 304.643 86.8447 301.831 69.9924 297.232C-11.2692 297.232 28.4615 173.141 33.1279 126.096C35.1398 105.829 37.4977 84.5867 49.0681 67.8205C62.7494 47.9904 86.9775 38.093 110.683 33.7938C134.389 29.4946 158.801 29.7134 182.344 24.7718C220.853 16.6957 258.078 -5.08275 296.933 1.09429C335.055 7.18662 365.968 43.4511 365.947 82.0665C365.947 109.154 353.656 136.086 360.709 163.06C366.843 186.49 388.855 207.231 386.497 232.716Z" fill="#00BFA6"/>
<path opacity="0.24" d="M385.41 238.582C384.236 243.041 382.451 247.317 380.108 251.289C366.561 274.931 340.024 288.598 313.333 294.19C286.641 299.781 259.066 298.552 231.831 299.802C195.037 301.468 158.342 307.645 121.548 305.619C104.116 304.64 86.8356 301.829 69.9924 297.232C58.6973 294.161 35.3586 290.173 28.5251 279.675C24.2541 273.145 23.5834 260.911 23.407 250.604C25.9625 251.007 28.5039 251.614 30.7347 251.826C38.2954 252.532 45.9479 252.602 53.5297 252.835C69.5924 253.348 85.6598 253.692 101.732 253.866C165.738 254.548 229.697 252.444 293.608 247.555C324.275 245.206 354.875 242.215 385.41 238.582Z" fill="#00BFA6"/>
<path d="M274.569 155.739H256.504V267.145H274.569V155.739Z" fill="#00BFA6"/>
<path d="M274.569 155.739H256.504V267.145H274.569V155.739Z" fill="url(#paint0_linear_198_510)"/>
<path d="M317.039 121.543V165.686H193.272V121.543C193.272 118.519 193.868 115.525 195.026 112.732C196.184 109.939 197.881 107.401 200.021 105.265C202.16 103.128 204.7 101.434 207.494 100.279C210.289 99.1248 213.283 98.5324 216.307 98.5362H294.004C300.109 98.5343 305.965 100.957 310.284 105.271C314.604 109.585 317.033 115.438 317.039 121.543Z" fill="#00BFA6"/>
<path d="M216.399 102.362C221.684 102.362 226.753 104.462 230.491 108.199C234.228 111.937 236.328 117.006 236.328 122.291V165.425H196.47V122.291C196.47 117.006 198.57 111.937 202.307 108.199C206.044 104.462 211.113 102.362 216.399 102.362Z" fill="url(#paint1_linear_198_510)"/>
<path d="M317.046 121.536V165.679H240.804V118.952C238.523 106.746 229.932 101.134 222.858 98.5503H294.018C300.119 98.5465 305.972 100.966 310.29 105.276C314.608 109.586 317.038 115.435 317.046 121.536Z" fill="url(#paint2_linear_198_510)"/>
<path d="M237.613 159.354H156.697C154.946 159.354 153.527 160.771 153.527 162.52C153.527 164.268 154.946 165.686 156.697 165.686H237.613C239.363 165.686 240.782 164.268 240.782 162.52C240.782 160.771 239.363 159.354 237.613 159.354Z" fill="#00BFA6"/>
<path d="M237.613 159.354H156.697C154.946 159.354 153.527 160.771 153.527 162.52C153.527 164.268 154.946 165.686 156.697 165.686H237.613C239.363 165.686 240.782 164.268 240.782 162.52C240.782 160.771 239.363 159.354 237.613 159.354Z" fill="url(#paint3_linear_198_510)"/>
<path opacity="0.24" d="M217.684 257.374C207.172 259.259 196.738 261.688 186.114 262.718C179.21 263.389 171.592 263.735 166.594 268.535C165.398 269.547 164.607 270.955 164.364 272.503C164.081 275.828 167.547 278.15 170.653 279.365C179.704 282.944 189.545 283.967 199.266 284.589C215.093 285.591 230.963 285.612 246.825 285.626L294.074 285.669C308.017 285.669 323.498 285.104 333.494 275.369C335.471 273.442 337.215 271.07 337.554 268.31C338.104 263.876 334.73 259.697 330.671 257.84C323.611 254.621 313.071 255.292 305.391 254.438C295.404 253.336 285.377 252.727 275.31 252.609C255.994 252.38 236.7 253.975 217.684 257.374Z" fill="#00BFA6"/>
<path d="M283.909 128.242C283.739 128.807 283.203 130.523 283.097 131.144L281.403 137.399C281.327 137.672 281.289 137.955 281.29 138.239C281.281 138.334 281.293 138.429 281.326 138.519C281.358 138.608 281.41 138.69 281.477 138.757C281.544 138.825 281.626 138.876 281.715 138.909C281.805 138.941 281.901 138.953 281.996 138.945C282.648 138.901 283.27 138.654 283.775 138.239C284.518 137.57 285.108 136.748 285.502 135.829C285.895 134.909 286.084 133.915 286.055 132.916C286.085 131.704 285.802 130.506 285.235 129.435C284.667 128.364 283.834 127.458 282.814 126.802C281.268 125.969 279.529 125.56 277.774 125.616C271.83 125.616 267.665 129.563 267.665 135.14C267.665 140.547 271.406 144.091 277.068 144.091C278.526 144.091 279.976 143.882 281.374 143.47C282.493 143.129 283.556 142.627 284.53 141.98L286.245 144.458C285.155 145.172 283.966 145.722 282.716 146.089C280.781 146.687 278.768 146.991 276.743 146.992C272.776 146.992 269.684 145.863 267.453 143.639C266.383 142.537 265.543 141.233 264.982 139.802C264.421 138.372 264.15 136.845 264.184 135.309C264.143 133.689 264.426 132.077 265.016 130.567C265.607 129.058 266.493 127.682 267.622 126.52C270.213 123.929 273.616 122.658 277.986 122.658C284.544 122.658 289.217 126.894 289.217 132.768C289.242 134.02 289.019 135.265 288.559 136.431C288.1 137.597 287.414 138.66 286.542 139.559C285.158 140.991 283.266 141.82 281.275 141.867C280.812 141.901 280.348 141.817 279.925 141.625C279.502 141.432 279.134 141.137 278.854 140.766C278.703 140.501 278.619 140.203 278.607 139.898C278.161 140.469 277.587 140.927 276.93 141.235C276.274 141.543 275.555 141.692 274.83 141.67C272.042 141.67 270.27 139.587 270.27 136.375C270.27 131.617 273.397 127.671 277.139 127.671C278.713 127.671 279.504 128.066 280.266 129.252L280.548 128.264L283.909 128.242ZM278.106 136.608C278.787 135.26 279.169 133.782 279.228 132.273C279.228 131.116 278.579 130.332 277.597 130.332C276.616 130.332 275.543 131.038 274.837 132.358C274.144 133.666 273.757 135.114 273.708 136.594C273.708 138.083 274.272 138.874 275.346 138.874C276.419 138.874 277.4 138.041 278.106 136.608Z" fill="#00BFA6"/>
<path d="M114.672 95.5359C114.502 92.5991 114.848 89.5212 113.641 86.8386C112.49 84.55 110.578 82.7331 108.234 81.6993C105.903 80.6825 103.477 79.902 100.991 79.3697C94.6008 77.7251 88.3179 75.6906 82.1771 73.2773C82.7983 77.6683 86.4128 80.9581 89.7378 83.8666C88.9836 84.0319 88.266 84.3333 87.6199 84.756C87.3023 84.974 87.0486 85.2728 86.8848 85.6214C86.721 85.9701 86.6531 86.3561 86.6881 86.7398C86.8317 87.2875 87.1367 87.7795 87.5635 88.1517C88.9525 89.5378 90.6964 90.5148 92.6039 90.9755L87.4293 93.0933C87.1794 93.1661 86.9608 93.3201 86.8081 93.531C86.5822 93.9334 86.8857 94.4205 87.2175 94.7452C89.7025 97.1737 93.677 96.9195 97.1008 96.503C95.4143 97.3063 93.9231 98.4674 92.731 99.9057C92.6466 99.9843 92.5811 100.081 92.5396 100.189C92.498 100.296 92.4814 100.412 92.491 100.527C92.5686 100.802 92.9004 100.894 93.1969 100.936C96.2377 101.362 99.3369 100.899 102.12 99.6021C101.302 100.248 100.665 101.094 100.271 102.059C100.212 102.167 100.181 102.289 100.181 102.412C100.181 102.535 100.212 102.656 100.271 102.765C100.413 102.896 100.599 102.969 100.793 102.969C103.282 103.212 105.769 102.495 107.746 100.965C107.831 102.744 109.342 104.198 111.029 104.777C112.751 105.242 114.549 105.36 116.317 105.123C119.846 104.876 117.729 102.842 116.521 101.339C115.336 99.6342 114.691 97.612 114.672 95.5359Z" fill="#00BFA6"/>
<path d="M114.672 95.5359C114.502 92.5991 114.848 89.5212 113.641 86.8386C112.49 84.55 110.578 82.7331 108.234 81.6993C105.903 80.6825 103.477 79.902 100.991 79.3697C94.6008 77.7251 88.3179 75.6906 82.1771 73.2773C82.7983 77.6683 86.4128 80.9581 89.7378 83.8666C88.9836 84.0319 88.266 84.3333 87.6199 84.756C87.3023 84.974 87.0486 85.2728 86.8848 85.6214C86.721 85.9701 86.6531 86.3561 86.6881 86.7398C86.8317 87.2875 87.1367 87.7795 87.5635 88.1517C88.9525 89.5378 90.6964 90.5148 92.6039 90.9755L87.4293 93.0933C87.1794 93.1661 86.9608 93.3201 86.8081 93.531C86.5822 93.9334 86.8857 94.4205 87.2175 94.7452C89.7025 97.1737 93.677 96.9195 97.1008 96.503C95.4143 97.3063 93.9231 98.4674 92.731 99.9057C92.6466 99.9843 92.5811 100.081 92.5396 100.189C92.498 100.296 92.4814 100.412 92.491 100.527C92.5686 100.802 92.9004 100.894 93.1969 100.936C96.2377 101.362 99.3369 100.899 102.12 99.6021C101.302 100.248 100.665 101.094 100.271 102.059C100.212 102.167 100.181 102.289 100.181 102.412C100.181 102.535 100.212 102.656 100.271 102.765C100.413 102.896 100.599 102.969 100.793 102.969C103.282 103.212 105.769 102.495 107.746 100.965C107.831 102.744 109.342 104.198 111.029 104.777C112.751 105.242 114.549 105.36 116.317 105.123C119.846 104.876 117.729 102.842 116.521 101.339C115.336 99.6342 114.691 97.612 114.672 95.5359Z" fill="url(#paint4_linear_198_510)"/>
<path d="M109.42 95.3101C109.307 93.3052 109.54 91.2014 108.714 89.373C107.93 87.8011 106.621 86.5526 105.014 85.8433C103.424 85.1497 101.769 84.6152 100.073 84.2478C95.7059 83.1263 91.4125 81.7352 87.2175 80.0828C87.6341 83.083 90.0837 85.328 92.378 87.3046C91.8747 87.4239 91.3966 87.6318 90.9661 87.9188C90.7484 88.067 90.5745 88.271 90.4628 88.5095C90.351 88.7479 90.3054 89.0121 90.3308 89.2742C90.4262 89.6471 90.633 89.982 90.9238 90.2343C91.8753 91.1797 93.0662 91.8484 94.3688 92.1686L90.8391 93.6228C90.6655 93.6728 90.5138 93.7798 90.4084 93.9264C90.2531 94.2017 90.4649 94.5335 90.6908 94.7524C92.3921 96.4184 95.11 96.2419 97.4679 95.9525C96.3158 96.5039 95.2969 97.2987 94.4817 98.2821C94.4237 98.3353 94.3789 98.4013 94.3507 98.4748C94.3225 98.5483 94.3118 98.6273 94.3194 98.7057C94.3688 98.8892 94.5947 98.9527 94.7853 98.981C96.8637 99.2775 98.9835 98.961 100.885 98.0703C100.327 98.5133 99.8919 99.0917 99.621 99.7505C99.5575 99.9128 99.501 100.118 99.621 100.252C99.668 100.296 99.7234 100.331 99.784 100.354C99.8446 100.377 99.9092 100.388 99.974 100.386C101.676 100.555 103.378 100.068 104.732 99.0233C104.81 99.6279 105.063 100.196 105.461 100.658C105.859 101.12 106.384 101.455 106.97 101.621C108.147 101.938 109.376 102.02 110.584 101.861C113.02 101.692 111.537 100.301 110.726 99.2704C109.901 98.1119 109.446 96.7316 109.42 95.3101Z" fill="#00BFA6"/>
<path d="M109.42 95.3101C109.307 93.3052 109.54 91.2014 108.714 89.373C107.93 87.8011 106.621 86.5526 105.014 85.8433C103.424 85.1497 101.769 84.6152 100.073 84.2478C95.7059 83.1263 91.4125 81.7352 87.2175 80.0828C87.6341 83.083 90.0837 85.328 92.378 87.3046C91.8747 87.4239 91.3966 87.6318 90.9661 87.9188C90.7484 88.067 90.5745 88.271 90.4628 88.5095C90.351 88.7479 90.3054 89.0121 90.3308 89.2742C90.4262 89.6471 90.633 89.982 90.9238 90.2343C91.8753 91.1797 93.0662 91.8484 94.3688 92.1686L90.8391 93.6228C90.6655 93.6728 90.5138 93.7798 90.4084 93.9264C90.2531 94.2017 90.4649 94.5335 90.6908 94.7524C92.3921 96.4184 95.11 96.2419 97.4679 95.9525C96.3158 96.5039 95.2969 97.2987 94.4817 98.2821C94.4237 98.3353 94.3789 98.4013 94.3507 98.4748C94.3225 98.5483 94.3118 98.6273 94.3194 98.7057C94.3688 98.8892 94.5947 98.9527 94.7853 98.981C96.8637 99.2775 98.9835 98.961 100.885 98.0703C100.327 98.5133 99.8919 99.0917 99.621 99.7505C99.5575 99.9128 99.501 100.118 99.621 100.252C99.668 100.296 99.7234 100.331 99.784 100.354C99.8446 100.377 99.9092 100.388 99.974 100.386C101.676 100.555 103.378 100.068 104.732 99.0233C104.81 99.6279 105.063 100.196 105.461 100.658C105.859 101.12 106.384 101.455 106.97 101.621C108.147 101.938 109.376 102.02 110.584 101.861C113.02 101.692 111.537 100.301 110.726 99.2704C109.901 98.1119 109.446 96.7316 109.42 95.3101Z" fill="url(#paint5_linear_198_510)"/>
<path d="M162.189 88.8576C162.359 85.9209 162.013 82.843 163.213 80.1604C164.365 77.8679 166.279 76.0482 168.627 75.014C170.959 73.9993 173.385 73.2189 175.87 72.6844C182.258 71.0399 188.539 69.0053 194.677 66.592C194.063 70.976 190.477 74.2657 187.123 77.1813C187.878 77.3468 188.597 77.6508 189.241 78.0778C189.561 78.2915 189.817 78.5884 189.982 78.9367C190.146 79.2849 190.212 79.6714 190.173 80.0545C190.037 80.6037 189.733 81.097 189.305 81.4664C187.914 82.8502 186.171 83.8267 184.264 84.2901L189.432 86.408C189.685 86.4813 189.907 86.638 190.06 86.8527C190.286 87.2551 189.975 87.7422 189.651 88.0599C187.159 90.4954 183.184 90.2413 179.732 89.8177C181.417 90.6259 182.908 91.7891 184.102 93.2274C184.189 93.304 184.255 93.4007 184.296 93.509C184.336 93.6173 184.35 93.734 184.335 93.8487C184.264 94.1169 183.932 94.2087 183.629 94.2511C180.589 94.6784 177.49 94.2174 174.706 92.9239C175.527 93.568 176.167 94.4146 176.562 95.3806C176.624 95.4879 176.657 95.6096 176.657 95.7336C176.657 95.8575 176.624 95.9792 176.562 96.0865C176.493 96.1533 176.411 96.2052 176.321 96.2392C176.232 96.2732 176.136 96.2885 176.04 96.2842C173.552 96.5275 171.065 95.813 169.086 94.2864C169.009 96.0653 167.491 97.5196 165.811 98.0985C164.088 98.5578 162.291 98.673 160.523 98.4373C156.951 98.1973 159.111 96.1571 160.318 94.6535C161.624 93.0439 162.069 90.8625 162.189 88.8576Z" fill="#00BFA6"/>
<path d="M162.189 88.8576C162.359 85.9209 162.013 82.843 163.213 80.1604C164.365 77.8679 166.279 76.0482 168.627 75.014C170.959 73.9993 173.385 73.2189 175.87 72.6844C182.258 71.0399 188.539 69.0053 194.677 66.592C194.063 70.976 190.477 74.2657 187.123 77.1813C187.878 77.3468 188.597 77.6508 189.241 78.0778C189.561 78.2915 189.817 78.5884 189.982 78.9367C190.146 79.2849 190.212 79.6714 190.173 80.0545C190.037 80.6037 189.733 81.097 189.305 81.4664C187.914 82.8502 186.171 83.8267 184.264 84.2901L189.432 86.408C189.685 86.4813 189.907 86.638 190.06 86.8527C190.286 87.2551 189.975 87.7422 189.651 88.0599C187.159 90.4954 183.184 90.2413 179.732 89.8177C181.417 90.6259 182.908 91.7891 184.102 93.2274C184.189 93.304 184.255 93.4007 184.296 93.509C184.336 93.6173 184.35 93.734 184.335 93.8487C184.264 94.1169 183.932 94.2087 183.629 94.2511C180.589 94.6784 177.49 94.2174 174.706 92.9239C175.527 93.568 176.167 94.4146 176.562 95.3806C176.624 95.4879 176.657 95.6096 176.657 95.7336C176.657 95.8575 176.624 95.9792 176.562 96.0865C176.493 96.1533 176.411 96.2052 176.321 96.2392C176.232 96.2732 176.136 96.2885 176.04 96.2842C173.552 96.5275 171.065 95.813 169.086 94.2864C169.009 96.0653 167.491 97.5196 165.811 98.0985C164.088 98.5578 162.291 98.673 160.523 98.4373C156.951 98.1973 159.111 96.1571 160.318 94.6535C161.624 93.0439 162.069 90.8625 162.189 88.8576Z" fill="url(#paint6_linear_198_510)"/>
<path d="M167.441 88.6318C167.554 86.6269 167.321 84.5232 168.147 82.6877C168.934 81.1176 170.241 79.8698 171.847 79.158C173.437 78.4658 175.092 77.9337 176.788 77.5696C181.154 76.4414 185.447 75.0481 189.643 73.3975C189.22 76.3977 186.77 78.6497 184.476 80.6264C184.979 80.7418 185.458 80.9475 185.888 81.2335C186.106 81.3819 186.28 81.5857 186.393 81.8239C186.506 82.0622 186.553 82.3263 186.53 82.5889C186.433 82.9645 186.223 83.3017 185.93 83.556C184.98 84.5024 183.789 85.1691 182.485 85.4833L186.015 86.9446C186.186 86.9916 186.336 87.0964 186.438 87.2411C186.594 87.5164 186.382 87.8553 186.163 88.0741C184.462 89.7331 181.744 89.5566 179.386 89.2742C180.538 89.8234 181.555 90.6187 182.365 91.6039C182.425 91.6556 182.471 91.7213 182.5 91.7952C182.528 91.8691 182.537 91.9489 182.528 92.0274C182.478 92.211 182.252 92.2745 182.062 92.3027C179.983 92.5947 177.865 92.2784 175.962 91.3921C176.523 91.8333 176.961 92.4121 177.233 93.0722C177.274 93.148 177.296 93.233 177.296 93.3193C177.296 93.4056 177.274 93.4906 177.233 93.5664C177.185 93.6126 177.129 93.6489 177.067 93.6731C177.005 93.6973 176.939 93.7091 176.873 93.7076C175.173 93.8707 173.474 93.3811 172.122 92.338C172.043 92.9429 171.789 93.5116 171.391 93.9743C170.994 94.437 170.47 94.7736 169.884 94.943C168.704 95.2609 167.473 95.3401 166.262 95.1759C163.827 95.0136 165.317 93.6158 166.128 92.5922C166.95 91.4321 167.408 90.0532 167.441 88.6318Z" fill="#00BFA6"/>
<path d="M167.441 88.6318C167.554 86.6269 167.321 84.5232 168.147 82.6877C168.934 81.1176 170.241 79.8698 171.847 79.158C173.437 78.4658 175.092 77.9337 176.788 77.5696C181.154 76.4414 185.447 75.0481 189.643 73.3975C189.22 76.3977 186.77 78.6497 184.476 80.6264C184.979 80.7418 185.458 80.9475 185.888 81.2335C186.106 81.3819 186.28 81.5857 186.393 81.8239C186.506 82.0622 186.553 82.3263 186.53 82.5889C186.433 82.9645 186.223 83.3017 185.93 83.556C184.98 84.5024 183.789 85.1691 182.485 85.4833L186.015 86.9446C186.186 86.9916 186.336 87.0964 186.438 87.2411C186.594 87.5164 186.382 87.8553 186.163 88.0741C184.462 89.7331 181.744 89.5566 179.386 89.2742C180.538 89.8234 181.555 90.6187 182.365 91.6039C182.425 91.6556 182.471 91.7213 182.5 91.7952C182.528 91.8691 182.537 91.9489 182.528 92.0274C182.478 92.211 182.252 92.2745 182.062 92.3027C179.983 92.5947 177.865 92.2784 175.962 91.3921C176.523 91.8333 176.961 92.4121 177.233 93.0722C177.274 93.148 177.296 93.233 177.296 93.3193C177.296 93.4056 177.274 93.4906 177.233 93.5664C177.185 93.6126 177.129 93.6489 177.067 93.6731C177.005 93.6973 176.939 93.7091 176.873 93.7076C175.173 93.8707 173.474 93.3811 172.122 92.338C172.043 92.9429 171.789 93.5116 171.391 93.9743C170.994 94.437 170.47 94.7736 169.884 94.943C168.704 95.2609 167.473 95.3401 166.262 95.1759C163.827 95.0136 165.317 93.6158 166.128 92.5922C166.95 91.4321 167.408 90.0532 167.441 88.6318Z" fill="url(#paint7_linear_198_510)"/>
<path d="M164.815 96.8454L111.933 102.32L115.307 134.915L168.189 129.441L164.815 96.8454Z" fill="#00BFA6"/>
<path d="M168.19 129.436L115.307 134.907L111.933 102.313L165.782 96.3196L168.19 129.436Z" fill="url(#paint8_linear_198_510)"/>
<path d="M111.933 102.313L141.251 126.492L165.062 97.3008L111.933 102.313Z" fill="url(#paint9_linear_198_510)"/>
<path d="M166.446 103.916C170.536 103.916 173.851 100.6 173.851 96.5101C173.851 92.4202 170.536 89.1047 166.446 89.1047C162.356 89.1047 159.041 92.4202 159.041 96.5101C159.041 100.6 162.356 103.916 166.446 103.916Z" fill="#00BFA6"/>
<path d="M166.594 104.014C170.684 104.014 174 100.699 174 96.609C174 92.5191 170.684 89.2036 166.594 89.2036C162.504 89.2036 159.189 92.5191 159.189 96.609C159.189 100.699 162.504 104.014 166.594 104.014Z" fill="url(#paint10_linear_198_510)"/>
<path d="M264.285 133.884L216.705 125.82L211.733 155.15L259.313 163.215L264.285 133.884Z" fill="#00BFA6"/>
<path d="M259.299 163.229L211.711 155.16L216.688 125.835L265.243 133.678L259.299 163.229Z" fill="url(#paint11_linear_198_510)"/>
<path d="M216.688 125.835L236.448 154.108L264.375 134.363L216.688 125.835Z" fill="url(#paint12_linear_198_510)"/>
<path d="M244.105 114.934L209.346 109.042L205.713 130.472L240.473 136.364L244.105 114.934Z" fill="#00BFA6"/>
<path d="M240.465 136.375L205.704 130.48L209.339 109.055L244.806 114.787L240.465 136.375Z" fill="url(#paint13_linear_198_510)"/>
<path d="M209.339 109.055L223.776 129.711L244.171 115.288L209.339 109.055Z" fill="url(#paint14_linear_198_510)"/>
</g>
<defs>
<linearGradient id="paint0_linear_198_510" x1="266.006" y1="252.567" x2="264.65" y2="133.784" gradientUnits="userSpaceOnUse">
<stop stop-color="#010101" stop-opacity="0"/>
<stop offset="0.95" stop-color="#010101"/>
</linearGradient>
<linearGradient id="paint1_linear_198_510" x1="196.47" y1="133.918" x2="236.335" y2="133.918" gradientUnits="userSpaceOnUse">
<stop stop-color="#010101" stop-opacity="0"/>
<stop offset="0.95" stop-color="#010101"/>
</linearGradient>
<linearGradient id="paint2_linear_198_510" x1="271.978" y1="97.5549" x2="264.756" y2="220.369" gradientUnits="userSpaceOnUse">
<stop stop-color="#010101" stop-opacity="0"/>
<stop offset="0.95" stop-color="#010101"/>
</linearGradient>
<linearGradient id="paint3_linear_198_510" x1="196.71" y1="154.927" x2="197.614" y2="170.289" gradientUnits="userSpaceOnUse">
<stop stop-color="#010101" stop-opacity="0"/>
<stop offset="0.95" stop-color="#010101"/>
</linearGradient>
<linearGradient id="paint4_linear_198_510" x1="80.9911" y1="99.7504" x2="106.744" y2="85.229" gradientUnits="userSpaceOnUse">
<stop stop-color="white" stop-opacity="0"/>
<stop offset="0.95" stop-color="white"/>
</linearGradient>
<linearGradient id="paint5_linear_198_510" x1="108.318" y1="79.8922" x2="97.1855" y2="93.644" gradientUnits="userSpaceOnUse">
<stop stop-color="white" stop-opacity="0"/>
<stop offset="0.95" stop-color="white"/>
</linearGradient>
<linearGradient id="paint6_linear_198_510" x1="195.863" y1="93.0721" x2="170.11" y2="78.5437" gradientUnits="userSpaceOnUse">
<stop stop-color="white" stop-opacity="0"/>
<stop offset="0.95" stop-color="white"/>
</linearGradient>
<linearGradient id="paint7_linear_198_510" x1="168.536" y1="73.2139" x2="179.675" y2="86.9587" gradientUnits="userSpaceOnUse">
<stop stop-color="white" stop-opacity="0"/>
<stop offset="0.95" stop-color="white"/>
</linearGradient>
<linearGradient id="paint8_linear_198_510" x1="140.637" y1="91.7733" x2="138.893" y2="165.269" gradientUnits="userSpaceOnUse">
<stop stop-color="white" stop-opacity="0"/>
<stop offset="0.95" stop-color="white"/>
</linearGradient>
<linearGradient id="paint9_linear_198_510" x1="137.524" y1="93.5986" x2="141.676" y2="120.193" gradientUnits="userSpaceOnUse">
<stop stop-color="white" stop-opacity="0"/>
<stop offset="0.95" stop-color="white"/>
</linearGradient>
<linearGradient id="paint10_linear_198_510" x1="166.227" y1="96.9055" x2="172.835" y2="91.6038" gradientUnits="userSpaceOnUse">
<stop stop-color="white" stop-opacity="0"/>
<stop offset="0.95" stop-color="white"/>
</linearGradient>
<linearGradient id="paint11_linear_198_510" x1="243.626" y1="123.042" x2="232.268" y2="166.331" gradientUnits="userSpaceOnUse">
<stop stop-color="white" stop-opacity="0"/>
<stop offset="0.95" stop-color="white"/>
</linearGradient>
<linearGradient id="paint12_linear_198_510" x1="241.197" y1="124.38" x2="238.364" y2="148.647" gradientUnits="userSpaceOnUse">
<stop stop-color="white" stop-opacity="0"/>
<stop offset="0.95" stop-color="white"/>
</linearGradient>
<linearGradient id="paint13_linear_198_510" x1="229.019" y1="107.018" x2="220.719" y2="138.642" gradientUnits="userSpaceOnUse">
<stop stop-color="white" stop-opacity="0"/>
<stop offset="0.95" stop-color="white"/>
</linearGradient>
<linearGradient id="paint14_linear_198_510" x1="227.238" y1="107.993" x2="225.171" y2="125.722" gradientUnits="userSpaceOnUse">
<stop stop-color="white" stop-opacity="0"/>
<stop offset="0.95" stop-color="white"/>
</linearGradient>
<clipPath id="clip0_198_510">
<rect width="406" height="306" fill="white"/>
</clipPath>
</defs>
</svg>
