<svg width="229" height="171" viewBox="0 0 229 171" fill="none" xmlns="http://www.w3.org/2000/svg">
<path d="M118.072 156.338L203.804 108.693C204.425 108.347 204.944 107.847 205.31 107.242C205.676 106.637 205.877 105.948 205.892 105.243C205.908 104.537 205.738 103.84 205.399 103.22C205.06 102.6 204.563 102.078 203.959 101.705L120.849 50.6622C120.218 50.2748 119.493 50.0644 118.751 50.0534C118.009 50.0424 117.278 50.2313 116.635 50.5998L25.9514 102.749C25.3312 103.106 24.8164 103.618 24.4586 104.234C24.1008 104.85 23.9125 105.549 23.9125 106.26C23.9125 106.971 24.1008 107.669 24.4586 108.285C24.8164 108.901 25.3312 109.413 25.9514 109.771L106.817 156.282C108.526 157.259 110.463 157.778 112.437 157.788C114.411 157.798 116.353 157.299 118.072 156.338Z" fill="#B4EE73"/>
<path style="mix-blend-mode:multiply" d="M123.059 97.5984C114.3 103.344 85.4399 125.204 76.778 131.064C91.5141 139.124 99.449 143.349 101.081 144.512L153.859 114.87L123.059 97.5984Z" fill="url(#paint0_linear_186_16)"/>
<path d="M78.1406 87.8994C78.1406 87.8994 79.2398 97.9049 85.543 100.202C91.8462 102.499 100.554 93.6508 100.554 93.6508L87.1918 83.9062" fill="#56403D"/>
<path d="M94.3079 60.6281C93.1629 59.8454 91.6515 60.1119 90.3004 60.6281C84.8388 62.8629 76.944 67.2928 77.0356 75.1996C77.0912 79.4438 77.4548 83.6785 78.1234 87.871C78.381 89.5159 78.6043 91.5692 79.4458 92.9758C80.6996 95.0972 86.23 90.3157 87.2776 89.5102C89.0696 88.1376 90.81 86.6742 92.5275 85.1824C93.8041 84.048 96.6552 82.3067 97.1704 80.5484C97.2674 80.1492 97.3116 79.7393 97.3021 79.3289C97.388 75.6078 97.2101 71.8853 96.7697 68.189C96.4892 65.8351 96.346 62.0234 94.3079 60.6281Z" fill="#56403D"/>
<path d="M107.527 116.526C107.83 116.946 107.098 120.956 108.552 122.198C110.006 123.44 113.75 125.545 112.605 126.418C109.239 128.993 101.59 122.448 101.59 122.448V115.5" fill="#FF666D"/>
<path d="M116.218 112.964C116.521 113.384 115.788 117.394 117.242 118.636C118.696 119.878 122.338 121.869 121.296 122.856C118.502 125.505 109.239 119.765 109.239 119.765L110.281 111.938" fill="#FF666D"/>
<path d="M89.0409 90.1283C89.0409 90.1283 88.5772 95.097 90.9359 97.0936C93.2946 99.0902 101.722 101.478 101.722 101.478C101.722 101.478 98.8593 115.119 99.3917 116.328C99.9242 117.536 106.033 118.222 109.239 116.328C109.239 116.328 113.933 117.53 117.042 114.688C117.042 114.688 123.053 97.831 121.141 92.3404C119.229 86.8499 108.729 85.29 108.729 85.29L89.0409 90.1283Z" fill="#FFE0DE"/>
<path d="M85.5201 98.8577V127.938L87.3349 129.209L90.1229 127.394V98.3302L86.3158 96.5889L85.5201 98.8577Z" fill="#56403D"/>
<path d="M85.5201 96.5889L85.5429 100.202L87.4265 100.497L85.5201 96.5889Z" fill="#56403D"/>
<path d="M86.396 100.877L112.903 116.129C113.18 116.289 113.496 116.371 113.817 116.366C114.138 116.361 114.451 116.269 114.723 116.101L152.898 92.3236C153.157 92.1606 153.37 91.9332 153.513 91.664C153.657 91.3947 153.727 91.0928 153.717 90.7884C153.706 90.484 153.616 90.1876 153.454 89.9285C153.292 89.6695 153.065 89.4569 152.795 89.3117L127.032 75.5456C126.769 75.4006 126.474 75.3245 126.173 75.3245C125.873 75.3245 125.577 75.4006 125.315 75.5456L86.3845 97.8198C86.1095 97.9719 85.8806 98.1942 85.7216 98.4636C85.5627 98.733 85.4794 99.0397 85.4806 99.3518C85.4818 99.6639 85.5673 99.9699 85.7283 100.238C85.8892 100.506 86.1198 100.727 86.396 100.877Z" fill="#56403D"/>
<path d="M117.861 72.6812L137.171 61.632C137.325 61.543 137.501 61.496 137.68 61.4959C137.858 61.4957 138.034 61.5423 138.188 61.631C138.343 61.7196 138.471 61.8472 138.56 62.0008C138.649 62.1544 138.695 62.3285 138.694 62.5055V77.1111C138.693 77.3929 138.617 77.6694 138.473 77.9125C138.329 78.1556 138.123 78.3566 137.875 78.495L118.851 89.1528C118.668 89.2637 118.458 89.3242 118.244 89.3281C118.029 89.3321 117.818 89.2794 117.63 89.1754C117.443 89.0714 117.288 88.92 117.179 88.7366C117.071 88.5532 117.013 88.3444 117.013 88.1319V74.1219C117.014 73.8292 117.093 73.542 117.242 73.2891C117.391 73.0362 117.604 72.8265 117.861 72.6812Z" fill="#6DE2FC"/>
<path d="M149.8 88.8294V115.709L151.615 116.974L154.403 115.159V88.3359C152.858 88.3756 151.329 88.6139 149.8 88.8294Z" fill="#56403D"/>
<path d="M109.937 110.332V139.413L111.752 140.678L114.54 138.863V109.799L110.727 108.063L109.937 110.332Z" fill="#56403D"/>
<path d="M86.2357 98.1997L113.384 113.86C113.609 113.995 113.867 114.067 114.131 114.067C114.394 114.067 114.653 113.995 114.878 113.86L153.67 89.6973C153.885 89.5648 154.061 89.3787 154.18 89.1577C154.3 88.9366 154.358 88.6884 154.35 88.4378C154.342 88.1873 154.268 87.9433 154.134 87.7303C154.001 87.5173 153.813 87.3428 153.59 87.2242L127.21 73.0725C126.994 72.9532 126.752 72.8906 126.505 72.8906C126.259 72.8906 126.016 72.9532 125.801 73.0725L86.2414 95.7096C86.0184 95.8336 85.8326 96.014 85.7031 96.2325C85.5737 96.451 85.5051 96.6996 85.5046 96.953C85.504 97.2064 85.5714 97.4553 85.6998 97.6744C85.8283 97.8934 86.0132 98.0747 86.2357 98.1997Z" fill="#FFC050"/>
<path d="M117.861 72.6812L137.171 61.632C137.325 61.543 137.501 61.496 137.68 61.4959C137.858 61.4957 138.034 61.5423 138.188 61.631C138.343 61.7196 138.471 61.8472 138.56 62.0008C138.649 62.1544 138.695 62.3285 138.694 62.5055V77.1111C138.693 77.3929 138.617 77.6694 138.473 77.9125C138.329 78.1556 138.123 78.3566 137.875 78.495L118.851 89.1528C118.668 89.2637 118.458 89.3242 118.244 89.3281C118.029 89.3321 117.818 89.2794 117.63 89.1754C117.443 89.0714 117.288 88.92 117.179 88.7366C117.071 88.5532 117.013 88.3444 117.013 88.1319V74.1219C117.014 73.8292 117.093 73.542 117.242 73.2891C117.391 73.0362 117.604 72.8265 117.861 72.6812Z" fill="#56403D"/>
<path d="M115.508 103.645L124.421 98.3812L113.945 92.2554L104.773 97.519L115.508 103.645Z" fill="#56403D"/>
<path d="M119.406 103.242L128.326 97.9843L117.843 91.8528L108.678 97.1165L119.406 103.242Z" fill="#00BFA6"/>
<path d="M126.683 82.1477V88.3983L131.057 86.0728V79.9299" fill="#56403D"/>
<path d="M128.644 89.011C132.329 87.2209 134.967 85.0652 134.537 84.1961C134.107 83.327 130.771 84.0736 127.086 85.8637C123.401 87.6538 120.763 89.8095 121.193 90.6787C121.623 91.5478 124.959 90.8012 128.644 89.011Z" fill="#56403D"/>
<path d="M157.93 52.1028C158.112 52.451 158.388 52.7419 158.728 52.9424C159.068 53.1429 159.458 53.245 159.853 53.2372C159.958 53.2219 160.06 53.1933 160.157 53.1522H160.306C161.451 53.2429 161.663 51.7568 160.878 51.2577C160.79 50.988 160.65 50.7377 160.466 50.5203C160.482 50.3209 160.432 50.1217 160.323 49.9531C160.297 49.9134 160.262 49.8802 160.221 49.8562C160.179 49.8321 160.133 49.8179 160.085 49.8146C160.038 49.8113 159.99 49.819 159.946 49.8372C159.901 49.8553 159.862 49.8833 159.831 49.9191L159.436 49.6071C159.126 49.3689 158.823 49.8907 159.132 50.1233C159.378 50.2962 159.611 50.4857 159.831 50.6905C159.752 50.8856 159.66 51.0751 159.556 51.2577C159.402 51.5252 159.312 51.8239 159.292 52.1312C159.295 52.2813 159.332 52.4288 159.401 52.5623C159.311 52.5387 159.225 52.5044 159.144 52.4602C157.999 51.8533 157.798 50.2254 157.999 49.108C158.073 48.728 157.489 48.5691 157.426 48.9492C157.187 50.0257 157.367 51.1521 157.93 52.1028ZM160.06 52.4658C159.982 52.3535 159.937 52.2219 159.929 52.0858C159.922 51.9496 159.954 51.8141 160.02 51.6944L160.1 51.5186C160.109 51.5669 160.135 51.6108 160.172 51.6435C160.209 51.6763 160.256 51.6961 160.306 51.7001H160.34C160.362 51.8408 160.348 51.9848 160.299 52.1187C160.25 52.2525 160.168 52.372 160.06 52.4658Z" fill="#FF413B"/>
<path d="M158.01 34.0828C157.707 33.8389 158.136 33.4192 158.439 33.6574C158.662 33.843 158.845 34.0711 158.978 34.328C159.11 34.585 159.189 34.8657 159.21 35.1534C159.231 35.4412 159.193 35.7302 159.099 36.0032C159.005 36.2762 158.857 36.5278 158.663 36.743C158.399 37.0323 157.976 36.6069 158.233 36.3176C158.37 36.158 158.474 35.9726 158.537 35.7725C158.6 35.5725 158.622 35.3618 158.601 35.1532C158.58 34.9446 158.517 34.7423 158.415 34.5584C158.314 34.3745 158.176 34.2128 158.01 34.0828Z" fill="#FF413B"/>
<path d="M144.476 41.3033L144.648 41.5698C144.513 41.8848 144.477 42.2327 144.545 42.5681C144.611 42.849 144.762 43.1032 144.978 43.2967C145.194 43.4903 145.464 43.6141 145.753 43.6515C145.835 43.6621 145.917 43.6621 145.999 43.6515C146.045 43.693 146.103 43.7194 146.165 43.727C146.228 43.7345 146.29 43.7229 146.346 43.6938C146.401 43.6646 146.445 43.6193 146.473 43.564C146.502 43.5087 146.512 43.4462 146.503 43.3849C146.682 43.2079 146.788 42.9714 146.8 42.7213C146.788 42.2392 146.596 41.7787 146.262 41.428C146.921 41.4452 147.576 41.5211 148.22 41.6549C148.604 41.7343 148.764 41.1558 148.381 41.0877C147.538 40.9093 146.678 40.8218 145.816 40.8268L145.884 40.736C146.119 40.4298 145.592 40.1291 145.363 40.4354C145.26 40.5659 145.152 40.7134 145.054 40.8608H144.739C144.688 40.8631 144.638 40.878 144.594 40.9042C144.55 40.9305 144.513 40.9673 144.487 41.0112C144.46 41.0552 144.446 41.1049 144.444 41.1559C144.442 41.2069 144.453 41.2576 144.476 41.3033ZM145.341 41.5301L145.404 41.4167C145.673 41.6413 145.895 41.917 146.056 42.2278C146.142 42.4042 146.164 42.6044 146.119 42.795L145.341 41.5301Z" fill="#FF413B"/>
<path d="M176.009 67.3495C176.353 67.1736 176.662 67.6898 176.313 67.8656C175.569 68.2457 174.395 68.8412 174.664 69.8622C174.801 70.3784 175.271 70.6336 175.723 70.2649C176.029 69.9385 176.238 69.5338 176.324 69.0965C176.356 69.0349 176.409 68.9861 176.473 68.9584C176.537 68.9307 176.609 68.9258 176.676 68.9445C176.743 68.9631 176.802 69.0043 176.842 69.0609C176.882 69.1175 176.902 69.1862 176.897 69.2553C176.772 69.9232 176.39 70.5171 175.832 70.9115C175.582 71.0523 175.288 71.0948 175.008 71.0307C174.728 70.9666 174.483 70.8006 174.321 70.5655C173.284 69.1872 174.876 67.9564 176.009 67.3495Z" fill="#FF413B"/>
<path d="M172.895 41.9274C173.118 41.6154 173.645 41.9274 173.416 42.228C173.248 42.4327 173.127 42.671 173.062 42.9264C172.996 43.1818 172.986 43.4483 173.034 43.7077C173.082 43.967 173.186 44.2129 173.339 44.4286C173.492 44.6444 173.691 44.8247 173.921 44.9573C174.151 45.0898 174.407 45.1715 174.672 45.1967C174.937 45.2218 175.204 45.1899 175.455 45.103C175.706 45.0162 175.935 44.8764 176.127 44.6935C176.319 44.5105 176.468 44.2886 176.565 44.043C176.731 43.6914 177.252 43.9977 177.086 44.3437C176.951 44.661 176.749 44.9462 176.494 45.1803C176.24 45.4144 175.937 45.592 175.608 45.7012C175.278 45.8103 174.929 45.8487 174.583 45.8135C174.237 45.7784 173.903 45.6707 173.603 45.4975C173.303 45.3243 173.043 45.0897 172.841 44.8092C172.64 44.5288 172.501 44.2089 172.434 43.8711C172.367 43.5332 172.373 43.1851 172.453 42.8499C172.532 42.5148 172.683 42.2003 172.895 41.9274Z" fill="#FF413B"/>
<path d="M150.516 21.1051C140.537 27.6393 140.005 44.2528 149.319 58.2061C158.634 72.1593 174.882 79.0055 184.242 71.6375C195.337 62.9139 192.589 43.8444 183.389 31.139C175.466 20.1976 160.489 14.5652 150.516 21.1051Z" fill="#00BFA6"/>
<path d="M181.232 72.4944C189.88 66.828 189.509 51.178 180.404 37.539C171.3 23.9001 156.909 17.437 148.261 23.1034C139.614 28.7698 139.984 44.4198 149.089 58.0588C158.194 71.6978 172.585 78.1608 181.232 72.4944Z" fill="#00BFA6"/>
<path opacity="0.42" d="M181.232 72.4944C189.88 66.828 189.509 51.178 180.404 37.539C171.3 23.9001 156.909 17.437 148.261 23.1034C139.614 28.7698 139.984 44.4198 149.089 58.0588C158.194 71.6978 172.585 78.1608 181.232 72.4944Z" fill="black"/>
<path d="M176.98 67.1578C183.913 62.6147 183.841 50.4042 176.819 39.8849C169.796 29.3657 158.483 24.5211 151.55 29.0642C144.617 33.6074 144.689 45.8178 151.711 56.3371C158.733 66.8563 170.046 71.7009 176.98 67.1578Z" fill="white"/>
<path d="M154.065 32.835L163.18 50.4184C163.275 50.58 163.422 50.7059 163.596 50.7767C163.771 50.8474 163.965 50.8591 164.147 50.8098L172.517 47.52C173.53 47.1229 173.09 45.4724 172.059 45.8808L163.695 49.1989L164.662 49.5903L155.548 32.0069C155.044 31.0313 153.562 31.8935 154.065 32.8634V32.835Z" fill="#42210B"/>
<path d="M162.241 30.9177C163.672 30.9177 163.672 33.1242 162.241 33.1242C160.81 33.1242 160.804 30.9177 162.241 30.9177Z" fill="#606060"/>
<path d="M165.08 63.9463C166.512 63.9463 166.512 66.1527 165.08 66.1527C163.649 66.1527 163.649 63.9463 165.08 63.9463Z" fill="#606060"/>
<path d="M149.823 45.5913C151.255 45.5913 151.255 47.7977 149.823 47.7977C148.392 47.7977 148.386 45.5913 149.823 45.5913Z" fill="#606060"/>
<path d="M178.248 48.8528C179.679 48.8528 179.679 51.0592 178.248 51.0592C176.817 51.0592 176.811 48.8528 178.248 48.8528Z" fill="#606060"/>
<path d="M163.546 13.7485V20.6004H169.838V13.7485" fill="#00BFA6"/>
<path d="M166.695 22.5174C168.431 22.5174 169.838 21.6591 169.838 20.6003C169.838 19.5414 168.431 18.6831 166.695 18.6831C164.959 18.6831 163.552 19.5414 163.552 20.6003C163.552 21.6591 164.959 22.5174 166.695 22.5174Z" fill="#00BFA6"/>
<path opacity="0.42" d="M163.546 13.7485V20.6004C163.546 21.6611 164.954 22.5175 166.689 22.5175C168.424 22.5175 169.832 21.6611 169.832 20.6004V13.7485H163.546Z" fill="black"/>
<path d="M166.695 15.6656C168.431 15.6656 169.838 14.8073 169.838 13.7485C169.838 12.6896 168.431 11.8313 166.695 11.8313C164.959 11.8313 163.552 12.6896 163.552 13.7485C163.552 14.8073 164.959 15.6656 166.695 15.6656Z" fill="#00BFA6"/>
<path d="M176.13 22.1885L173.353 25.24C173.222 25.4947 173.184 25.7864 173.246 26.0656C173.307 26.3448 173.465 26.5942 173.691 26.7715C174.217 27.2933 174.945 27.4181 175.317 27.0494L178.047 24.0773L176.13 22.1885Z" fill="#00BFA6"/>
<path opacity="0.42" d="M176.13 22.1885L173.353 25.24C173.222 25.4947 173.184 25.7864 173.246 26.0656C173.307 26.3448 173.465 26.5942 173.691 26.7715C174.217 27.2933 174.945 27.4181 175.317 27.0494L178.047 24.0773L176.13 22.1885Z" fill="black"/>
<path d="M178.034 24.0808C178.405 23.7131 178.28 22.9931 177.755 22.4725C177.229 21.952 176.503 21.8281 176.131 22.1958C175.76 22.5635 175.885 23.2836 176.411 23.8041C176.936 24.3246 177.663 24.4485 178.034 24.0808Z" fill="#00BFA6"/>
<path opacity="0.37" d="M163.918 50.0042C163.918 50.0042 169.506 32.0011 169.523 32.0181C169.54 32.0351 176.107 37.4122 179.318 44.3094L163.918 50.0042Z" fill="#36B2BF"/>
<path d="M98.8937 97.7516C99.346 98.3188 98.9853 99.561 101.333 100.588C103.68 101.614 109.348 101.881 108.449 99.629C107.55 97.3772 103.067 96.5945 103.067 96.5945" fill="#5ED18D"/>
<path d="M100.147 92.7715C101.248 93.8634 102.406 94.8971 103.617 95.8684C104.464 96.4356 107.722 97.4509 107.481 98.5456C107.241 99.6403 104.361 97.6381 104.172 97.7516C103.983 97.865 103.914 98.7101 102.203 98.886C100.491 99.0618 99.7639 98.8576 99.3402 98.3188C98.9166 97.7799 96.8155 95.2842 97.5368 94.388C98.2582 93.4918 100.147 92.7715 100.147 92.7715Z" fill="#FBB5AD"/>
<path d="M121.038 65.5912C121.038 65.5912 123.706 63.1919 124.502 61.6832C125.297 60.1744 125.939 61.5924 125.876 62.3298C125.813 63.0671 124.502 64.5362 124.502 64.5362C124.502 64.5362 124.92 65.9599 124.92 66.1471C124.92 66.3342 125.315 68.4159 124.101 69.1022C122.887 69.7885 120.351 69.8906 120.351 69.8906L119.933 66.5441L121.038 65.5912Z" fill="#FBB5AD"/>
<path d="M121.135 64.4509C114.958 67.735 107.344 67.9733 100.674 65.9427C100.583 65.9329 100.491 65.9329 100.399 65.9427L100.726 74.6493C111.557 77.5988 121.822 70.435 121.822 70.435C120.872 68.9432 120.923 66.3624 121.135 64.4509Z" fill="#F47A63"/>
<path d="M101.997 68.0642C101.186 66.6863 100.104 65.4844 98.8135 64.5305C96.9643 65.6025 94.0675 66.2321 92.3672 67.5594C87.5524 71.303 87.7872 77.8712 88.2852 83.3107C88.4971 85.5398 89.0409 87.8994 89.0409 90.1172C90.6517 90.8012 92.3697 91.2042 94.119 91.3083C97.0767 89.4701 99.9143 87.4487 102.615 85.2562C102.523 79.5274 102.352 73.793 101.997 68.0642Z" fill="#F47A63"/>
<path d="M101.905 60.9344C101.905 60.9344 102.237 69.9473 99.1456 70.5428C96.0541 71.1384 93.4721 68.62 93.2545 66.89C93.037 65.1601 93.7927 62.7154 93.7927 62.7154C93.7927 62.7154 96.472 60.0155 101.905 60.9344Z" fill="#FBB5AD"/>
<path d="M102.478 59.4368C102.953 57.3438 100.188 55.4664 98.5215 57.0319C98.2305 56.6811 97.8654 56.3977 97.452 56.2017C97.0386 56.0057 96.5868 55.9019 96.1285 55.8975C94.8289 55.8975 94.2335 56.6972 94.1247 57.894C93.7639 57.8238 93.3915 57.8385 93.0375 57.9371C92.6835 58.0356 92.3578 58.2151 92.0866 58.4612C91.7771 58.7618 91.5687 59.1497 91.4898 59.572C91.4109 59.9943 91.4654 60.4303 91.6458 60.8208C91.1676 60.9185 90.7371 61.1744 90.425 61.5465C90.1129 61.9186 89.9377 62.3847 89.9283 62.8684C89.8896 63.3156 89.9685 63.765 90.1573 64.173C90.0758 64.2975 90.0086 64.4307 89.9569 64.57C89.8255 64.9504 89.8097 65.3607 89.9115 65.7499C90.0133 66.1391 90.2281 66.4901 90.5294 66.7595C90.8778 67.0946 91.3213 67.3163 91.8004 67.3947C91.903 67.7226 92.0972 68.0149 92.3607 68.2378C92.6242 68.4607 92.946 68.6049 93.2889 68.6539C93.7192 68.7118 94.1559 68.6108 94.5159 68.3702C94.8759 68.1296 95.134 67.7663 95.2411 67.3493C95.3025 67.114 95.3122 66.8684 95.2697 66.629C95.8258 65.8255 96.0773 64.8531 95.9796 63.8837C96.1156 63.8655 96.2484 63.8292 96.3747 63.7759C96.7632 63.5996 97.0714 63.2862 97.2391 62.8968C97.6155 63.1104 98.042 63.2219 98.4757 63.2201C98.6808 63.214 98.8808 63.1548 99.0556 63.0483C99.2303 62.9418 99.3739 62.7918 99.4719 62.6132C100.451 63.0613 101.968 62.9251 102.661 62.097C102.965 61.7087 103.115 61.2229 103.081 60.7323C103.047 60.2417 102.832 59.7806 102.478 59.4368Z" fill="#D86212"/>
<path d="M96.18 66.0789C96.1801 65.7923 96.1212 65.5087 96.0071 65.2454C95.8929 64.9821 95.7258 64.7446 95.5159 64.5474C95.3197 64.3213 95.0414 64.1808 94.7414 64.1564C94.4414 64.132 94.1438 64.2256 93.9129 64.417C93.7316 64.6111 93.616 64.8564 93.5821 65.1187C93.5482 65.3811 93.5978 65.6473 93.724 65.8804C94.0217 66.4476 94.6514 66.5667 95.161 66.8843C95.4644 67.0772 95.7335 66.7822 95.6991 66.4986C95.7592 66.5058 95.8201 66.5004 95.8779 66.4826C95.9357 66.4648 95.9891 66.4351 96.0345 66.3955C96.0799 66.3559 96.1163 66.3072 96.1414 66.2526C96.1665 66.1981 96.1796 66.1389 96.18 66.0789Z" fill="#FBB5AD"/>
<path d="M100.6 64.6097C100.6 64.3999 100.268 64.4339 100.273 64.6381V66.0448C100.292 66.2599 100.292 66.4763 100.273 66.6914C100.21 67.0657 100.01 67.1054 99.7009 67.2246C99.6648 67.2429 99.6367 67.2738 99.622 67.3113C99.6073 67.3488 99.607 67.3903 99.6211 67.428C99.6352 67.4657 99.6627 67.497 99.6985 67.516C99.7343 67.5349 99.7759 67.5402 99.8154 67.5309C100.228 67.372 100.56 67.321 100.611 66.8502C100.654 66.1039 100.65 65.3556 100.6 64.6097Z" fill="#56403D"/>
<path d="M101.413 64.3716C101.374 64.3723 101.337 64.3862 101.308 64.411C101.279 64.4357 101.259 64.4697 101.252 64.5071C101.246 64.5446 101.252 64.5832 101.271 64.6164C101.29 64.6496 101.32 64.6753 101.355 64.6892C101.394 64.6885 101.431 64.6746 101.46 64.6498C101.489 64.6251 101.509 64.5911 101.516 64.5537C101.522 64.5162 101.516 64.4776 101.497 64.4444C101.478 64.4112 101.448 64.3855 101.413 64.3716Z" fill="#56403D"/>
<path d="M98.1093 64.865C98.0709 64.8657 98.034 64.8797 98.0048 64.9044C97.9756 64.9291 97.9559 64.9631 97.9492 65.0005C97.9424 65.038 97.949 65.0766 97.9677 65.1098C97.9865 65.143 98.0163 65.1688 98.0521 65.1826C98.0905 65.1819 98.1274 65.168 98.1566 65.1432C98.1859 65.1185 98.2055 65.0845 98.2123 65.0471C98.219 65.0096 98.2124 64.971 98.1937 64.9378C98.1749 64.9046 98.1451 64.8789 98.1093 64.865Z" fill="#56403D"/>
<path d="M89.8825 70.418C88.2074 72.2629 87.2548 74.6414 87.1975 77.1223C87.0315 81.4047 88.6574 90.6956 96.2602 95.8685C96.2602 95.8685 99.3459 93.2367 101.842 93.0325C101.842 93.0325 96.0312 85.5624 96.1514 82.2045" fill="#F47A63"/>
<path d="M101.567 93.0097C97.949 87.7347 94.8175 81.9776 94.182 75.5284C94.1476 75.1711 93.5751 75.1654 93.6095 75.5284C94.2564 82.0853 97.388 87.9276 101.052 93.2933C101.275 93.594 101.773 93.3103 101.567 93.0097Z" fill="#56403D"/>
<path d="M125.017 55.1941L136.696 48.5124C136.789 48.4583 136.895 48.4297 137.003 48.4294C137.112 48.4292 137.218 48.4572 137.311 48.5108C137.405 48.5644 137.483 48.6416 137.536 48.7345C137.59 48.8274 137.618 48.9328 137.618 49.0399V57.877C137.618 58.0475 137.572 58.2151 137.486 58.3626C137.399 58.5101 137.275 58.6322 137.125 58.7164L125.624 65.1599C125.513 65.226 125.386 65.2619 125.257 65.2638C125.127 65.2657 125 65.2336 124.887 65.1708C124.774 65.108 124.68 65.0167 124.614 64.9062C124.549 64.7957 124.514 64.6699 124.513 64.5416V56.0676C124.513 55.8911 124.559 55.7175 124.647 55.5642C124.736 55.411 124.863 55.2833 125.017 55.1941Z" fill="#00BFA6"/>
<path style="mix-blend-mode:multiply" d="M47.1282 112.113C47.1022 112.09 47.0814 112.061 47.0673 112.028C47.0531 111.996 47.0457 111.961 47.0457 111.926C47.0457 111.891 47.0531 111.856 47.0673 111.824C47.0814 111.792 47.1022 111.763 47.1282 111.739L47.4717 111.399C47.5171 111.351 47.5779 111.321 47.6435 111.314C47.7694 111.208 47.8992 111.108 48.0328 111.013C48.0658 110.331 48.1384 109.651 48.2503 108.977C48.258 108.935 48.2757 108.896 48.3018 108.863L37.098 102.573C35.1687 103.838 31.0123 106.889 26.8674 109.947C30.5486 112.783 34.8824 114.592 38.9758 116.753L47.0996 112.215L47.1282 112.113Z" fill="url(#paint1_linear_186_16)"/>
<path d="M40.6475 99.4873C37.6934 99.232 34.5847 98.3528 32.4035 96.3506V105.023C32.4035 107.411 33.3607 109.7 35.0646 111.388C36.7685 113.076 39.0794 114.025 41.4891 114.025C43.8987 114.025 46.2097 113.076 47.9136 111.388C49.6174 109.7 50.5746 107.411 50.5746 105.023V96.2031C47.4889 97.451 43.968 99.7709 40.6475 99.4873Z" fill="#00BFA6"/>
<path d="M41.5006 101.064C46.5184 101.064 50.5861 98.9284 50.5861 96.2939C50.5861 93.6594 46.5184 91.5237 41.5006 91.5237C36.4827 91.5237 32.415 93.6594 32.415 96.2939C32.415 98.9284 36.4827 101.064 41.5006 101.064Z" fill="#5ED18D"/>
<path d="M41.5005 97.0993C41.5005 97.0993 35.3233 96.1975 33.6917 86.3224C33.6917 86.2997 38.93 89.1811 41.5005 97.0993Z" fill="#5ED18D"/>
<path d="M42.4108 95.8401C42.4108 95.8401 35.3233 83.2425 42.4108 74.7798C44.5739 81.6363 44.5739 88.9836 42.4108 95.8401Z" fill="#5ED18D"/>
<path d="M41.5005 87.9221C41.5005 87.9221 35.3233 87.0202 33.6917 77.1452C33.6917 77.1225 38.93 80.0039 41.5005 87.9221Z" fill="#5ED18D"/>
<path d="M42.2505 91.9549C42.2505 91.9549 40.7048 85.9652 49.2865 80.6448C49.2923 80.6504 48.6625 86.5721 42.2505 91.9549Z" fill="#5ED18D"/>
<path d="M41.5006 101.064C46.5184 101.064 50.5861 98.9284 50.5861 96.2939C50.5861 93.6594 46.5184 91.5237 41.5006 91.5237C36.4827 91.5237 32.415 93.6594 32.415 96.2939C32.415 98.9284 36.4827 101.064 41.5006 101.064Z" fill="#146666"/>
<path d="M41.5005 97.0993C41.5005 97.0993 35.3233 96.1975 33.6917 86.3224C33.6917 86.2997 38.93 89.1811 41.5005 97.0993Z" fill="#5ED18D"/>
<path d="M42.4108 95.8401C42.4108 95.8401 35.3233 83.2425 42.4108 74.7798C44.5739 81.6363 44.5739 88.9836 42.4108 95.8401Z" fill="#5ED18D"/>
<path d="M41.5005 87.9221C41.5005 87.9221 35.3233 87.0202 33.6917 77.1452C33.6917 77.1225 38.93 80.0039 41.5005 87.9221Z" fill="#5ED18D"/>
<path d="M42.2505 91.9549C42.2505 91.9549 40.7048 85.9652 49.2865 80.6448C49.2923 80.6504 48.6625 86.5721 42.2505 91.9549Z" fill="#5ED18D"/>
<defs>
<linearGradient id="paint0_linear_186_16" x1="136.049" y1="94.7907" x2="111.073" y2="129.396" gradientUnits="userSpaceOnUse">
<stop offset="0.01" stop-color="#88A80D"/>
<stop offset="1" stop-color="white"/>
</linearGradient>
<linearGradient id="paint1_linear_186_16" x1="43.7047" y1="101.977" x2="32.71" y2="117.208" gradientUnits="userSpaceOnUse">
<stop offset="0.01" stop-color="#88A80D"/>
<stop offset="1" stop-color="white"/>
</linearGradient>
</defs>
</svg>
