<svg width="229" height="171" viewBox="0 0 229 171" fill="none" xmlns="http://www.w3.org/2000/svg">
<path d="M167.771 116.186C167.771 116.186 186.624 67.463 176.857 60.0326C167.09 52.6022 126.127 55.6027 123.883 58.2572C121.639 60.9117 108.426 119.561 108.426 119.561L167.771 116.186Z" fill="#231F20"/>
<path d="M108.397 119.856C108.356 119.855 108.316 119.847 108.278 119.83C108.241 119.813 108.207 119.789 108.18 119.759C108.151 119.726 108.131 119.687 108.121 119.644C108.111 119.602 108.111 119.558 108.122 119.515C108.66 117.116 121.399 60.7642 123.666 58.087C124.908 56.618 135.843 55.251 147.545 55.0978C154.415 55.0071 171.069 55.285 177.034 59.817C181.185 62.9707 180.921 73.4299 176.256 90.9679C172.821 103.94 168.086 116.163 168.04 116.282C168.021 116.334 167.987 116.379 167.942 116.411C167.897 116.443 167.844 116.462 167.788 116.464L108.414 119.867L108.397 119.856ZM149.709 55.648H147.556C135.534 55.8069 125.086 57.2759 124.084 58.4387C122.366 60.4863 113.344 98.8975 108.741 119.26L167.554 115.902C168.762 112.732 185.874 67.2474 176.668 60.2537C172.792 57.3099 163.019 55.648 149.709 55.648Z" fill="#231F20"/>
<path d="M91.2221 74.0878L82.7262 102.34C82.7262 102.34 100.25 104.581 100.25 103.94C100.25 103.299 103.685 72.8513 103.685 72.8513L91.2221 74.0878Z" fill="white"/>
<path d="M99.3688 104.309C96.409 104.309 88.0104 103.299 82.6919 102.607C82.6508 102.601 82.6115 102.587 82.5765 102.565C82.5415 102.543 82.5116 102.514 82.4889 102.479C82.4661 102.445 82.451 102.406 82.4446 102.366C82.4381 102.325 82.4405 102.284 82.4514 102.244L90.9473 73.9915C90.9631 73.9369 90.9949 73.8883 91.0388 73.8519C91.0827 73.8155 91.1366 73.793 91.1935 73.7873L103.663 72.5507C103.705 72.5469 103.747 72.5525 103.787 72.5673C103.827 72.582 103.862 72.6054 103.892 72.6358C103.922 72.6645 103.946 72.7001 103.96 72.7396C103.974 72.7791 103.978 72.8213 103.972 72.8627C102.787 83.356 100.537 103.35 100.537 103.923C100.531 104.016 100.49 104.103 100.422 104.167C100.086 104.293 99.7263 104.341 99.3688 104.309ZM83.0755 102.102C89.1669 102.874 98.6246 103.946 99.9528 103.758C100.17 101.308 102.958 76.5779 103.342 73.169L91.4225 74.3545L83.0755 102.102Z" fill="#231F20"/>
<path d="M75.1177 67.0716C75.1921 67.151 78.2092 66.3512 79.7664 68.206C81.3236 70.0607 79.3027 71.717 74.3849 70.7584C69.4671 69.7998 75.1177 67.0716 75.1177 67.0716Z" fill="white"/>
<path d="M76.9783 71.3199C76.0879 71.3111 75.2003 71.218 74.3277 71.042C72.9079 70.764 72.1751 70.3103 72.0892 69.6466C71.9232 68.3648 74.4765 67.0658 74.9918 66.8106C75.0512 66.7907 75.1156 66.7907 75.175 66.8106H75.3639C76.1654 66.7142 78.6042 66.4079 79.9897 68.0528C80.608 68.7788 80.7397 69.5218 80.3733 70.1458C79.8981 70.8888 78.6672 71.3199 76.9783 71.3199ZM75.1807 67.3495C74.0643 67.9167 72.593 68.9149 72.6731 69.5445C72.6731 69.7544 72.9708 70.1514 74.4422 70.4407C77.7684 71.0873 79.4401 70.4861 79.8637 69.7771C79.9649 69.5365 79.9879 69.2706 79.9294 69.0164C79.8709 68.7622 79.7339 68.5325 79.5374 68.3591C78.3581 66.9637 76.2341 67.2247 75.4383 67.3268C75.3295 67.3494 75.2494 67.3495 75.1807 67.3495Z" fill="#231F20"/>
<path d="M67.555 61.1442C67.555 61.1442 66.9367 60.4408 67.326 59.9474C67.4136 59.8472 67.524 59.7691 67.6481 59.7197C67.7722 59.6702 67.9064 59.6508 68.0396 59.663C68.1728 59.6752 68.3012 59.7186 68.414 59.7898C68.5269 59.861 68.621 59.9578 68.6885 60.0722C68.6885 60.0722 67.7153 60.4181 67.555 61.1442Z" fill="white"/>
<path d="M67.555 61.4335C67.513 61.434 67.4714 61.4256 67.433 61.409C67.3945 61.3924 67.36 61.3679 67.3317 61.3371C67.0455 61.0081 66.6676 60.3048 67.097 59.7716C67.193 59.6466 67.3168 59.5453 67.4588 59.4754C67.6008 59.4056 67.7571 59.3691 67.9157 59.3689C68.1108 59.3722 68.3025 59.4206 68.4754 59.5102C68.6483 59.5998 68.7978 59.7281 68.9118 59.8851C68.9432 59.9211 68.9649 59.9645 68.9749 60.0111C68.9849 60.0577 68.9829 60.106 68.9691 60.1516C68.957 60.197 68.9341 60.2387 68.9022 60.2733C68.8703 60.3079 68.8304 60.3342 68.7859 60.3502C68.5569 60.4296 67.9443 60.7472 67.8412 61.2066C67.8302 61.2594 67.8046 61.3081 67.7671 61.3471C67.7297 61.3862 67.682 61.4142 67.6294 61.4279L67.555 61.4335ZM67.9271 59.9531C67.8576 59.9541 67.7892 59.9704 67.7268 60.0009C67.6645 60.0313 67.6097 60.075 67.5664 60.129C67.5338 60.1912 67.5168 60.2602 67.5168 60.3303C67.5168 60.4004 67.5338 60.4695 67.5664 60.5317C67.7389 60.322 67.9484 60.1452 68.1847 60.0098C68.1056 59.9755 68.0184 59.9637 67.9328 59.9758L67.9271 59.9531Z" fill="#231F20"/>
<path d="M68.9061 60.0438C68.5655 60.0712 68.2437 60.2097 67.991 60.4375C67.7382 60.6653 67.5688 60.9697 67.5092 61.303L79.7893 77.1337C79.8651 76.3751 80.1957 75.6637 80.7283 75.1134C81.2608 74.5632 81.9644 74.206 82.7262 74.0992L68.9061 60.0438Z" fill="white"/>
<path d="M79.7836 77.423C79.7392 77.4226 79.6955 77.4122 79.6559 77.3925C79.6162 77.3729 79.5816 77.3445 79.5546 77.3096L67.2745 61.4789C67.2467 61.4431 67.2277 61.4014 67.2187 61.3572C67.2098 61.3129 67.2112 61.2673 67.2229 61.2236C67.3038 60.8301 67.5118 60.4733 67.8154 60.2072C68.1191 59.9411 68.5019 59.7803 68.9061 59.7489C68.9457 59.7493 68.9849 59.7575 69.0212 59.7731C69.0576 59.7887 69.0905 59.8113 69.1179 59.8397L82.9381 73.895C82.9765 73.9327 83.0033 73.9805 83.0155 74.0327C83.0276 74.0849 83.0246 74.1394 83.0068 74.19C82.9907 74.2407 82.9608 74.2861 82.9204 74.3211C82.88 74.3561 82.8307 74.3795 82.7778 74.3885C82.0799 74.483 81.4345 74.8074 80.9454 75.3095C80.4563 75.8116 80.1519 76.4622 80.0813 77.1564C80.0765 77.2153 80.0537 77.2714 80.0158 77.317C79.9779 77.3626 79.9269 77.3957 79.8695 77.4117L79.7836 77.423ZM67.8355 61.2463L79.6347 76.4531C79.8009 75.8546 80.1192 75.3083 80.5592 74.8664C80.9992 74.4245 81.5462 74.1018 82.148 73.9291L68.7973 60.3501C68.569 60.3967 68.3582 60.5051 68.1884 60.6634C68.0186 60.8216 67.8964 61.0234 67.8355 61.2463Z" fill="#231F20"/>
<path d="M79.7893 77.1338L83.98 79.2892L84.501 78.8071L82.7262 74.0992C82.7262 74.0992 79.463 73.7759 79.7893 77.1338Z" fill="white"/>
<path d="M83.98 79.5784C83.932 79.5791 83.8846 79.5674 83.8426 79.5443L79.6519 77.389C79.6074 77.3669 79.5693 77.334 79.5413 77.2933C79.5132 77.2526 79.4961 77.2055 79.4916 77.1564C79.4119 76.7051 79.437 76.2417 79.565 75.8014C79.6929 75.3612 79.9204 74.9555 80.2301 74.6153C80.5756 74.321 80.9768 74.0977 81.4102 73.9584C81.8437 73.8192 82.3008 73.7668 82.7549 73.8042C82.811 73.8095 82.8644 73.8303 82.909 73.8645C82.9536 73.8986 82.9875 73.9446 83.0068 73.9971L84.7758 78.7049C84.7971 78.7591 84.8013 78.8184 84.7881 78.8751C84.7748 78.9317 84.7446 78.9831 84.7014 79.0225L84.1804 79.5046C84.1248 79.5525 84.0536 79.5787 83.98 79.5784ZM80.0698 76.9465L83.9285 78.9318L84.1575 78.7276L82.5201 74.3828C81.8354 74.3634 81.1674 74.5935 80.6423 75.0294C80.4124 75.2888 80.2421 75.5946 80.1433 75.9256C80.0444 76.2566 80.0194 76.605 80.0698 76.9465Z" fill="#231F20"/>
<path d="M83.98 79.2891L84.7815 80.1399L85.1594 79.7145L84.501 78.807L83.98 79.2891Z" fill="white"/>
<path d="M84.7815 80.4349C84.7412 80.4352 84.7014 80.4267 84.6648 80.4101C84.6282 80.3934 84.5957 80.369 84.5697 80.3385L83.7625 79.4877C83.7104 79.43 83.6818 79.3552 83.6823 79.2778C83.6867 79.1998 83.7216 79.1266 83.7796 79.0736L84.3006 78.5915C84.3316 78.5637 84.3682 78.5426 84.4079 78.5298C84.4476 78.5169 84.4897 78.5124 84.5312 78.5167C84.5728 78.521 84.6131 78.5339 84.6493 78.5546C84.6855 78.5753 84.7169 78.6033 84.7414 78.6369L85.3998 79.5444C85.4416 79.5958 85.4644 79.6599 85.4644 79.7259C85.4644 79.7919 85.4416 79.856 85.3998 79.9074L85.022 80.3328C84.9956 80.3648 84.9624 80.3905 84.9248 80.4082C84.8872 80.4258 84.8461 80.435 84.8044 80.4349H84.7815ZM84.3979 79.3005L84.7758 79.7032L84.4495 79.2551L84.3979 79.3005Z" fill="#231F20"/>
<path d="M75.8963 78.3759C76.5719 77.0203 78.2665 74.1446 78.6558 72.8967C79.7321 69.4935 73.4288 66.3058 71.3907 66.3058C69.3526 66.3058 65.0932 73.3618 65.0932 77.1337C65.0932 80.9057 79.2054 109.788 79.2054 109.788L92.745 103.651L75.8963 78.3759Z" fill="white"/>
<path d="M79.2225 110.083C79.1675 110.083 79.1135 110.067 79.0669 110.038C79.0203 110.009 78.983 109.968 78.9592 109.918C78.3867 108.738 64.8127 80.9227 64.8127 77.1338C64.8127 73.3448 69.1179 66.0109 71.3907 66.0109C72.9594 66.0109 76.6062 67.6671 78.2607 69.8679C78.627 70.291 78.8828 70.7967 79.0055 71.3407C79.1283 71.8846 79.1144 72.4501 78.9649 72.9875C78.4191 74.3249 77.7801 75.6231 77.0528 76.8729C76.7493 77.4401 76.4803 77.9505 76.2627 78.3533L93.0312 103.48C93.0546 103.516 93.0703 103.556 93.0772 103.598C93.0841 103.64 93.0821 103.683 93.0713 103.724C93.059 103.764 93.0384 103.801 93.0107 103.832C92.9831 103.863 92.9491 103.889 92.911 103.906L79.3657 110.054C79.3227 110.08 79.2721 110.09 79.2225 110.083ZM71.3907 66.5951C69.5988 66.5951 65.4081 73.4016 65.4081 77.1338C65.4081 80.6051 77.963 106.521 79.3599 109.408L92.3271 103.52L75.6501 78.5631C75.6251 78.5179 75.6119 78.4672 75.6119 78.4157C75.6119 78.3641 75.6251 78.3134 75.6501 78.2682C75.8677 77.8371 76.1826 77.2529 76.5261 76.6176C77.2341 75.3999 77.8576 74.1359 78.3924 72.8344C78.5132 72.3848 78.5205 71.9127 78.4137 71.4596C78.3069 71.0066 78.0892 70.5866 77.7798 70.2365C76.1826 68.0868 72.7075 66.5951 71.3907 66.5951Z" fill="#231F20"/>
<path d="M147.934 84.0934L164.622 79.879C164.05 79.0793 157.317 57.9055 150.218 54.4399C144.007 50.356 129.276 47.6334 116.263 48.5579C116.263 48.5579 112.828 48.4331 106.806 50.7984C92.1381 56.5726 89.31 76.68 89.31 76.68L100.76 80.5994C100.76 80.5994 98.5731 106.606 96.5063 120.202C96.5063 120.202 121.822 125.108 158.68 119.067C158.708 119.056 148.003 87.939 147.934 84.0934Z" fill="#00BFA6"/>
<path d="M146.56 55.024C144.35 57.2929 142.627 60.0154 140.188 62.1538C134.933 66.7595 128.057 70.4067 120.849 69.9642C112.353 69.4424 105.008 63.6909 103.164 55.3133C102.019 50.061 103.21 45.183 107.309 41.4735C110.143 38.9097 113.773 37.3442 117.483 36.3686C127.335 33.7538 138.39 35.1435 146.8 40.8722C148.175 41.7102 149.335 42.8517 150.19 44.2074C152.291 47.9793 149.875 51.859 147.15 54.4512C146.966 54.627 146.772 54.8255 146.56 55.024Z" fill="#00BFA6"/>
<path d="M117.574 60.9684C117.488 60.9684 115.908 62.8742 115.828 62.9025C116.727 66.2604 117.677 70.6335 121.513 71.0646C129.293 71.9438 130.473 61.666 131.938 56.8164C126.551 58.3138 122.75 58.9151 117.574 60.9684Z" fill="#231F20"/>
<path d="M122.423 71.405C122.11 71.4025 121.796 71.3836 121.484 71.3483C117.654 70.9172 116.572 66.8106 115.697 63.5265L115.548 62.9593C115.534 62.9036 115.537 62.845 115.558 62.7914C115.578 62.7377 115.615 62.6914 115.662 62.6587C115.754 62.5736 116.172 62.0915 116.475 61.7398C117.362 60.7302 117.374 60.7245 117.466 60.6848C120.634 59.471 123.887 58.4835 127.198 57.7297C128.658 57.3666 130.164 56.9923 131.835 56.5272C131.884 56.5136 131.936 56.5132 131.986 56.5262C132.035 56.5392 132.08 56.565 132.116 56.6009C132.15 56.6377 132.174 56.6824 132.186 56.7311C132.198 56.7797 132.198 56.8305 132.185 56.8788C131.967 57.5992 131.755 58.45 131.526 59.3519C130.341 64.2071 128.526 71.3993 122.423 71.405ZM116.126 62.9933L116.229 63.3847C117.105 66.6745 118.09 70.401 121.53 70.7584C127.902 71.4787 129.683 64.383 130.988 59.1987C131.165 58.4897 131.337 57.8091 131.509 57.1965C130.026 57.5992 128.646 57.9395 127.347 58.2685C124.066 59.0064 120.844 59.9808 117.706 61.1839C117.592 61.2974 117.191 61.7511 116.893 62.0971C116.492 62.6076 116.269 62.8572 116.143 62.9933H116.126Z" fill="#231F20"/>
<path d="M125.108 21.4058C123.963 21.3604 123.231 21.8539 122.246 22.2056C120.328 22.8749 119.435 21.2867 117.786 20.4415C115.19 19.1045 112.207 18.6987 109.344 19.2932C106.48 19.8877 103.912 21.4458 102.077 23.703C100.934 25.0434 100.195 26.6745 99.9413 28.4108C99.7009 30.3733 100.256 32.3812 99.9127 34.3211C99.7027 35.4352 99.21 36.4779 98.4808 37.3512C97.7516 38.2244 96.8101 38.8994 95.7449 39.3125C97.5777 39.4526 99.4212 39.28 101.195 38.802C100.685 39.4024 100.052 39.8877 99.3366 40.2252C98.6216 40.5628 97.842 40.7447 97.0502 40.7589C98.8759 42.1497 101.119 42.8946 103.422 42.8745L99.386 43.8104C102.821 45.9942 107.006 46.6465 111.054 46.465C119.114 46.0509 132.614 42.7838 132.379 32.438C132.247 28.4732 130.049 21.6327 125.108 21.4058Z" fill="white"/>
<path d="M109.668 46.7996C106.582 46.7996 102.632 46.2324 99.2085 44.0657C99.1616 44.0347 99.1247 43.9908 99.1023 43.9395C99.08 43.8882 99.0731 43.8315 99.0826 43.7764C99.0943 43.7224 99.1208 43.6727 99.1592 43.6327C99.1976 43.5927 99.2463 43.5639 99.3001 43.5495L101.544 43.0333C99.836 42.745 98.2246 42.048 96.8498 41.0028C96.8018 40.967 96.7663 40.9172 96.7483 40.8604C96.7304 40.8036 96.731 40.7427 96.75 40.6862C96.769 40.6297 96.8055 40.5806 96.8542 40.5458C96.9029 40.511 96.9615 40.4923 97.0216 40.4923C98.1971 40.4732 99.3321 40.0637 100.245 39.3295C98.7507 39.6365 97.2202 39.7319 95.6991 39.6131C95.6347 39.6073 95.5741 39.58 95.5273 39.5357C95.4805 39.4914 95.4503 39.4327 95.4415 39.3692C95.431 39.305 95.4436 39.2391 95.4771 39.1832C95.5105 39.1272 95.5628 39.0846 95.6247 39.0629C96.6481 38.6728 97.5536 38.0296 98.2551 37.1946C98.9566 36.3596 99.4307 35.3606 99.6322 34.2927C99.7699 33.2732 99.7814 32.2408 99.6665 31.2185C99.577 30.2752 99.577 29.3257 99.6665 28.3824C99.9269 26.5922 100.689 24.9102 101.865 23.5271C103.742 21.219 106.368 19.6261 109.297 19.0192C112.225 18.4122 115.276 18.8286 117.929 20.1976C118.417 20.4615 118.881 20.7671 119.315 21.1108C120.242 21.8085 120.975 22.3587 122.177 21.9446C122.435 21.8539 122.675 21.7518 122.91 21.6554C123.609 21.3038 124.382 21.1229 125.166 21.1279C130.124 21.3434 132.608 28.0024 132.688 32.4379C132.791 37.1401 130.198 40.8439 124.977 43.4361C119.756 46.0282 113.527 46.6294 111.094 46.7542C110.613 46.7883 110.149 46.7996 109.668 46.7996ZM100.107 43.9636C103.806 46.0906 108.048 46.3742 111.019 46.2324C113.401 46.1076 119.492 45.5461 124.673 42.971C129.683 40.4866 132.167 36.9642 132.07 32.4947C131.973 28.2747 129.688 21.939 125.097 21.7178C124.399 21.7226 123.711 21.8876 123.087 22.1999C122.841 22.302 122.589 22.4097 122.32 22.5005C120.838 23.0167 119.91 22.319 118.931 21.5816C118.524 21.2587 118.089 20.9721 117.632 20.7251C115.096 19.4144 112.18 19.0151 109.38 19.5953C106.58 20.1755 104.07 21.6993 102.277 23.9072C101.172 25.1991 100.453 26.7704 100.199 28.4448C100.113 29.3485 100.113 30.2581 100.199 31.1617C100.315 32.2297 100.3 33.3078 100.153 34.3721C99.9723 35.3438 99.584 36.2659 99.0143 37.0768C98.4446 37.8878 97.7067 38.5688 96.8498 39.0743C98.2774 39.0724 99.6983 38.8817 101.075 38.507C101.134 38.49 101.197 38.4924 101.255 38.5139C101.313 38.5353 101.362 38.5747 101.395 38.6262C101.43 38.6751 101.449 38.7335 101.449 38.7935C101.449 38.8534 101.43 38.9119 101.395 38.9608C100.489 40.0288 99.2252 40.7377 97.8345 40.9574C99.4903 42.027 101.428 42.5875 103.405 42.5682C103.476 42.5664 103.544 42.5912 103.597 42.6374C103.651 42.6837 103.684 42.7481 103.691 42.8178C103.7 42.8872 103.683 42.9575 103.643 43.0151C103.603 43.0727 103.542 43.1135 103.474 43.1298L100.107 43.9636Z" fill="#231F20"/>
<path d="M115.256 53.1352L115.828 62.9025C115.828 62.9025 120.334 68.0074 126.133 64.8707C131.933 61.7341 131.709 56.7597 131.709 56.7597L127.902 38.4219C127.902 38.4219 122.641 37.2194 121.301 26.953C116.813 30.4738 111.449 32.7293 105.775 33.4815C105.775 33.4815 105.878 44.9675 107.922 49.5335C109.966 54.0995 115.256 53.1352 115.256 53.1352Z" fill="white"/>
<path d="M122.326 66.1697C118.387 66.1697 115.645 63.1352 115.611 63.0898C115.568 63.0429 115.544 62.9826 115.542 62.9196L114.969 53.453C113.761 53.5721 109.456 53.6855 107.641 49.63C105.598 45.0923 105.477 33.9354 105.472 33.4646C105.472 33.3961 105.497 33.33 105.542 33.2781C105.587 33.2262 105.65 33.1918 105.718 33.181C111.332 32.4227 116.64 30.1945 121.095 26.7262C121.135 26.6921 121.183 26.6693 121.234 26.6603C121.285 26.6513 121.338 26.6565 121.387 26.6752C121.435 26.6936 121.477 26.7243 121.51 26.7642C121.542 26.804 121.563 26.8516 121.57 26.902C122.246 32.0977 123.952 34.8713 125.263 36.2893C125.971 37.1363 126.903 37.7724 127.954 38.1271C128.006 38.1407 128.054 38.1687 128.091 38.2078C128.129 38.2468 128.155 38.2955 128.166 38.3483L131.978 56.703C131.978 56.7995 132.15 61.9327 126.253 65.1204C125.055 65.7942 123.704 66.1553 122.326 66.1697ZM116.103 62.7665C116.675 63.3847 120.775 67.4346 126.002 64.6042C131.566 61.5867 131.429 56.7938 131.429 56.7484L127.656 38.5978C126.706 38.2859 122.4 36.4027 121.089 27.4409C116.689 30.7344 111.523 32.8798 106.067 33.6802C106.067 35.3818 106.353 45.2852 108.18 49.3747C110.109 53.6742 114.998 52.8631 115.204 52.829C115.244 52.8214 115.285 52.822 115.324 52.8307C115.363 52.8395 115.401 52.8563 115.433 52.8801C115.464 52.9062 115.49 52.9382 115.509 52.9742C115.527 53.0102 115.539 53.0496 115.542 53.0899L116.103 62.7665Z" fill="#231F20"/>
<path d="M125.755 43.5609C127.1 43.7616 128.471 43.4272 129.568 42.6307C130.309 42.0494 130.887 41.2892 131.246 40.4231C131.604 39.5569 131.733 38.614 131.618 37.6846C131.583 36.99 131.387 36.3127 131.045 35.7051C130.878 35.4012 130.647 35.1365 130.367 34.929C130.088 34.7215 129.766 34.5761 129.425 34.5026C128.58 34.4505 127.74 34.6714 127.032 35.1322C125.921 35.6994 125.887 36.329 125.28 37.2592C125.349 37.1741 125.4 36.9359 125.469 36.8508" fill="white"/>
<path d="M126.522 43.9069C126.25 43.9059 125.979 43.885 125.71 43.8445C125.634 43.832 125.566 43.7904 125.521 43.7289C125.476 43.6673 125.458 43.5907 125.469 43.5155C125.475 43.4788 125.488 43.4436 125.507 43.4119C125.527 43.3802 125.552 43.3527 125.583 43.331C125.613 43.3093 125.648 43.2939 125.684 43.2857C125.721 43.2774 125.759 43.2765 125.795 43.283C127.064 43.4679 128.354 43.1477 129.385 42.3925C130.086 41.8396 130.632 41.117 130.97 40.2945C131.308 39.4719 131.427 38.5771 131.314 37.696C131.291 37.0452 131.117 36.4085 130.805 35.8356C130.657 35.57 130.454 35.3387 130.209 35.1568C129.965 34.9749 129.684 34.8467 129.385 34.7806C128.675 34.6558 127.965 34.9791 127.175 35.3818C126.632 35.6434 126.208 36.0966 125.984 36.6523C125.864 36.8679 125.732 37.1118 125.555 37.3784C125.543 37.4014 125.528 37.4224 125.509 37.4407C125.463 37.4972 125.397 37.5335 125.324 37.542C125.251 37.5505 125.178 37.5304 125.12 37.4861C125.059 37.4438 125.018 37.3796 125.005 37.3073C124.992 37.2351 125.009 37.1607 125.051 37.1004C125.051 37.1004 125.051 37.0267 125.091 36.987C125.125 36.8843 125.173 36.7869 125.234 36.6977C125.264 36.6633 125.301 36.6362 125.343 36.6183L125.452 36.4141C125.735 35.7561 126.247 35.2207 126.895 34.9053C127.57 34.5593 128.503 34.0829 129.459 34.2474C129.848 34.3238 130.215 34.4831 130.536 34.7143C130.856 34.9454 131.122 35.2429 131.314 35.586C131.665 36.2347 131.861 36.9547 131.887 37.6903C132.008 38.6668 131.872 39.6577 131.493 40.567C131.114 41.4762 130.504 42.2731 129.723 42.8803C128.793 43.5507 127.672 43.9103 126.522 43.9069Z" fill="#231F20"/>
<path d="M115.553 58.2742C116.681 58.1938 117.771 57.8418 118.73 57.2486C119.689 56.6555 120.487 55.8393 121.055 54.8709C123.076 51.5301 122.269 49.3917 122.269 49.3917C122.269 49.3917 119.544 52.8347 115.256 53.1126L115.553 58.2742Z" fill="#231F20"/>
<path d="M115.553 58.5521C115.481 58.5521 115.411 58.5244 115.359 58.4747C115.307 58.425 115.276 58.3572 115.273 58.2855L114.969 53.1806C114.967 53.1434 114.972 53.106 114.985 53.0707C114.997 53.0354 115.016 53.0029 115.041 52.975C115.066 52.947 115.096 52.9243 115.13 52.908C115.164 52.8917 115.201 52.8822 115.239 52.88C119.343 52.6191 122.017 49.3066 122.046 49.2726C122.077 49.2325 122.118 49.2014 122.165 49.1824C122.213 49.1635 122.264 49.1574 122.315 49.1648C122.365 49.1733 122.411 49.1945 122.45 49.2263C122.49 49.2581 122.52 49.2995 122.538 49.3463C122.572 49.4371 123.368 51.6492 121.296 55.0694C120.706 56.0754 119.875 56.922 118.876 57.5343C117.878 58.1467 116.742 58.506 115.571 58.5804L115.553 58.5521ZM115.553 53.3905L115.822 57.9679C116.845 57.843 117.825 57.4877 118.688 56.9293C119.55 56.3708 120.272 55.624 120.797 54.7461C122.166 52.4773 122.2 50.8211 122.097 50.027C120.383 51.8756 118.066 53.0665 115.553 53.3905Z" fill="#231F20"/>
<path d="M114.5 37.6108C114.5 37.6108 112.353 43.2148 113.326 43.8841C114.3 44.5534 116.355 43.4871 116.355 43.4871" fill="white"/>
<path d="M114.174 44.3889C113.815 44.4052 113.461 44.31 113.16 44.1167C112.084 43.3793 113.733 38.8757 114.225 37.5087C114.252 37.4391 114.306 37.3827 114.374 37.3519C114.443 37.3212 114.521 37.3184 114.592 37.3442C114.627 37.3574 114.66 37.3775 114.687 37.4032C114.715 37.4289 114.737 37.4599 114.752 37.4942C114.768 37.5285 114.776 37.5655 114.777 37.603C114.778 37.6406 114.771 37.6779 114.758 37.7129C113.761 40.3164 113.04 43.3282 113.487 43.6459C114.168 44.111 115.691 43.5097 116.217 43.2375C116.285 43.2031 116.364 43.1964 116.437 43.2186C116.509 43.2409 116.57 43.2904 116.607 43.3566C116.641 43.4236 116.647 43.5011 116.623 43.5724C116.599 43.6436 116.548 43.7026 116.481 43.7366C115.768 44.115 114.981 44.3374 114.174 44.3889Z" fill="#231F20"/>
<path d="M118.723 37.4691C119.159 37.3294 119.351 36.7208 119.152 36.1097C118.952 35.4987 118.437 35.1165 118.001 35.2562C117.565 35.3959 117.373 36.0045 117.572 36.6156C117.771 37.2266 118.287 37.6088 118.723 37.4691Z" fill="#231F20"/>
<path d="M110.713 39.3246C111.172 39.3184 111.536 38.7929 111.527 38.1508C111.519 37.5087 111.14 36.9931 110.681 36.9993C110.223 37.0055 109.859 37.531 109.867 38.1732C109.876 38.8153 110.255 39.3308 110.713 39.3246Z" fill="#231F20"/>
<path d="M115.181 51.082C114.631 51.0963 114.091 50.9396 113.636 50.6339C111.832 49.3294 111.7 46.448 111.695 46.3232C111.693 46.2561 111.715 46.1906 111.757 46.1379C111.799 46.0851 111.858 46.0484 111.924 46.0339C119.332 44.4287 119.412 44.4854 119.544 44.5819C119.576 44.6063 119.604 44.6369 119.625 44.672C119.645 44.7071 119.659 44.7458 119.664 44.7861C119.779 45.9296 119.62 47.0839 119.2 48.1553C118.948 48.8121 118.548 49.4035 118.032 49.885C117.515 50.3665 116.895 50.7254 116.217 50.9346C115.881 51.0311 115.532 51.0807 115.181 51.082ZM112.29 46.5444C112.359 47.2307 112.668 49.2386 113.962 50.1688C114.27 50.3562 114.616 50.4737 114.975 50.5129C115.335 50.5521 115.698 50.5121 116.04 50.3957C116.637 50.2117 117.184 49.8961 117.64 49.4727C118.096 49.0493 118.449 48.5291 118.674 47.9511C119.028 47.0491 119.176 46.0806 119.109 45.115C118.124 45.2909 114.649 46.0282 112.29 46.5387V46.5444Z" fill="#231F20"/>
<path d="M118.937 48.0645C117.838 50.6964 115.084 51.326 113.784 50.4128C114.076 49.4088 114.609 48.3651 115.599 47.9851C116.686 47.6178 117.869 47.646 118.937 48.0645Z" fill="#231F20"/>
<path d="M115.181 51.0764C114.632 51.0915 114.092 50.9369 113.636 50.6339C113.588 50.5999 113.553 50.5521 113.534 50.4971C113.516 50.4422 113.515 50.383 113.532 50.3277C113.922 48.9437 114.592 48.0588 115.513 47.7128C116.659 47.3269 117.906 47.3531 119.034 47.7866C119.071 47.7998 119.104 47.8202 119.133 47.8465C119.161 47.8728 119.184 47.9045 119.2 47.9397C119.229 48.0108 119.229 48.0899 119.2 48.1609C118.946 48.8163 118.546 49.4062 118.03 49.8866C117.513 50.3669 116.894 50.7252 116.217 50.9346C115.88 51.0289 115.532 51.0766 115.181 51.0764ZM114.139 50.2766C114.735 50.5552 115.415 50.5959 116.04 50.39C116.588 50.2239 117.095 49.9451 117.527 49.5717C117.959 49.1984 118.307 48.7389 118.548 48.2233C117.63 47.921 116.637 47.921 115.719 48.2233C115.015 48.5069 114.5 49.1989 114.139 50.2766Z" fill="#231F20"/>
<path d="M105.506 42.1372C105.114 42.1371 104.734 42.0043 104.429 41.7608C104.124 41.5173 103.912 41.1778 103.829 40.7986L103.227 38.093C103.13 37.6523 103.214 37.1914 103.46 36.8117C103.706 36.432 104.094 36.1645 104.538 36.0681L110.922 34.6785C111.143 34.63 111.371 34.6252 111.593 34.6643C111.816 34.7034 112.028 34.7857 112.219 34.9064C112.409 35.027 112.574 35.1838 112.703 35.3675C112.832 35.5513 112.923 35.7586 112.971 35.9774L113.544 38.6829C113.637 39.118 113.554 39.5717 113.313 39.947C113.072 40.3223 112.693 40.5893 112.256 40.6908L105.872 42.0748C105.753 42.1097 105.63 42.1306 105.506 42.1372ZM111.294 35.2286C111.212 35.2203 111.13 35.2203 111.048 35.2286L104.67 36.6126C104.379 36.6791 104.126 36.8558 103.964 37.1048C103.803 37.3538 103.746 37.6556 103.806 37.9456L104.407 40.6908C104.475 40.9771 104.653 41.2258 104.903 41.3845C105.153 41.5432 105.455 41.5996 105.746 41.5416L112.13 40.1236C112.419 40.0559 112.67 39.8796 112.83 39.632C112.99 39.3843 113.047 39.0847 112.989 38.7964L112.416 36.0908C112.358 35.8436 112.219 35.6226 112.02 35.4632C111.82 35.3039 111.573 35.2153 111.317 35.2116L111.294 35.2286Z" fill="#231F20"/>
<path d="M116.882 39.6698C116.553 39.669 116.231 39.5745 115.954 39.3976C115.572 39.1544 115.302 38.771 115.204 38.3312L114.632 35.6256C114.533 35.1852 114.616 34.7241 114.861 34.3437C114.982 34.1544 115.14 33.9908 115.326 33.8623C115.512 33.7338 115.721 33.643 115.943 33.595L122.32 32.2111C122.541 32.1626 122.769 32.1578 122.992 32.1969C123.214 32.236 123.427 32.3183 123.617 32.439C123.808 32.5596 123.972 32.7163 124.101 32.9001C124.23 33.0839 124.322 33.2912 124.37 33.51L124.942 36.2155C125.042 36.6531 124.963 37.112 124.723 37.4922C124.483 37.8725 124.101 38.1435 123.66 38.2461L117.282 39.6301C117.15 39.656 117.016 39.6692 116.882 39.6698ZM122.67 32.7499C122.587 32.7509 122.504 32.7604 122.423 32.7783L116.046 34.1679C115.901 34.1981 115.763 34.2568 115.641 34.3406C115.519 34.4244 115.415 34.5315 115.336 34.6557C115.175 34.9065 115.119 35.2099 115.181 35.5008L115.782 38.2064C115.851 38.4926 116.029 38.7413 116.279 38.9001C116.529 39.0588 116.831 39.1151 117.122 39.0572L123.505 37.6732C123.797 37.6087 124.052 37.4336 124.215 37.1854C124.375 36.9339 124.428 36.6305 124.364 36.3403L123.792 33.6347C123.734 33.3827 123.592 33.1576 123.388 32.9967C123.184 32.8358 122.93 32.7487 122.67 32.7499Z" fill="#231F20"/>
<path d="M112.679 36.3347C112.627 36.3358 112.575 36.322 112.531 36.295C112.464 36.2559 112.415 36.1925 112.395 36.1183C112.374 36.0442 112.384 35.9651 112.422 35.8979C112.691 35.4385 113.567 34.7181 115.004 35.291C115.08 35.3196 115.141 35.3769 115.174 35.4503C115.208 35.5237 115.21 35.6072 115.181 35.6824C115.152 35.7576 115.095 35.8184 115.021 35.8514C114.946 35.8843 114.862 35.8868 114.786 35.8582C113.504 35.3477 112.989 36.1248 112.937 36.2156C112.907 36.2548 112.868 36.2861 112.823 36.3069C112.778 36.3276 112.729 36.3372 112.679 36.3347Z" fill="#231F20"/>
<path d="M55.647 111.841H173.353L192.24 146.015H36.7602L55.647 111.841Z" fill="white"/>
<path d="M192.24 146.299H36.7602C36.7109 146.299 36.6625 146.286 36.6194 146.262C36.5764 146.238 36.5401 146.204 36.514 146.163C36.49 146.119 36.4774 146.071 36.4774 146.021C36.4774 145.971 36.49 145.923 36.514 145.879L55.4065 111.705C55.4307 111.66 55.4671 111.622 55.5115 111.596C55.556 111.57 55.6068 111.557 55.6584 111.558H173.347C173.399 111.557 173.45 111.57 173.494 111.596C173.539 111.622 173.575 111.66 173.599 111.705L192.492 145.879C192.516 145.923 192.528 145.971 192.528 146.021C192.528 146.071 192.516 146.119 192.492 146.163C192.465 146.205 192.428 146.24 192.384 146.264C192.34 146.287 192.29 146.3 192.24 146.299ZM37.2468 145.732H191.753L173.181 112.125H55.8187L37.2468 145.732Z" fill="#D1D3D4"/>
<path d="M57.4733 89.7938L57.7252 88.7161C58.2977 87.6384 58.9331 86.9124 60.4102 86.9124H116.441C117.118 86.9135 117.777 87.1318 118.319 87.5346C118.86 87.9374 119.256 88.5031 119.446 89.1471L128.555 120.151C128.79 120.815 128.76 121.544 128.472 122.188C128.184 122.832 127.659 123.343 127.003 123.616L126.013 123.849L57.4733 89.7938Z" fill="white"/>
<path d="M126.013 124.132C125.97 124.131 125.927 124.121 125.887 124.104L57.3473 90.0377C57.2895 90.0097 57.2431 89.9628 57.216 89.905C57.1889 89.8472 57.1827 89.7819 57.1985 89.72L57.4504 88.6424C57.4479 88.6178 57.4479 88.5931 57.4504 88.5686C58.0229 87.542 58.6812 86.6174 60.3873 86.6174H116.418C117.157 86.6204 117.875 86.8593 118.466 87.2986C119.057 87.738 119.489 88.3544 119.698 89.0564L128.812 120.1C129.068 120.832 129.033 121.634 128.714 122.342C128.395 123.05 127.816 123.611 127.095 123.911L126.07 124.155L126.013 124.132ZM57.8225 89.6406L126.07 123.548L126.958 123.344C128.337 122.811 128.624 121.353 128.297 120.23L119.189 89.2266C119.014 88.6424 118.654 88.1295 118.162 87.7637C117.671 87.398 117.073 87.1989 116.458 87.196H60.4102C59.145 87.196 58.6011 87.7632 57.9942 88.8182L57.8225 89.6406Z" fill="#231F20"/>
<path d="M126.013 123.849H68.8374C68.4489 123.845 68.0721 123.716 67.7628 123.484C67.4535 123.251 67.2281 122.925 67.1199 122.556L57.4962 89.7938C57.4599 89.6681 57.4535 89.5358 57.4775 89.4072C57.5016 89.2787 57.5554 89.1574 57.6347 89.053C57.7141 88.9485 57.8168 88.8637 57.9348 88.8053C58.0528 88.7468 58.1829 88.7163 58.3148 88.7161H117.019L126.963 122.595C127.007 122.741 127.016 122.896 126.989 123.046C126.961 123.196 126.899 123.337 126.807 123.459C126.714 123.581 126.594 123.68 126.457 123.747C126.319 123.815 126.167 123.85 126.013 123.849Z" fill="#231F20"/>
<path d="M126.013 124.132H68.8374C68.3837 124.13 67.9428 123.984 67.5799 123.714C67.2169 123.444 66.9513 123.066 66.8222 122.635L57.1985 89.8732C57.152 89.7057 57.145 89.5298 57.1779 89.3592C57.2109 89.1885 57.283 89.0277 57.3887 88.889C57.4943 88.7503 57.6307 88.6376 57.7873 88.5594C57.944 88.4812 58.1166 88.4398 58.2919 88.4381H117.019C117.08 88.4372 117.139 88.4561 117.188 88.492C117.236 88.5279 117.272 88.5788 117.288 88.6367L127.238 122.516C127.293 122.704 127.303 122.903 127.268 123.095C127.232 123.288 127.151 123.47 127.033 123.627C126.914 123.784 126.76 123.911 126.583 123.999C126.406 124.086 126.211 124.132 126.013 124.132ZM58.2919 88.9997C58.2048 89.001 58.1192 89.0221 58.0415 89.0612C57.9638 89.1003 57.8962 89.1564 57.8437 89.2254C57.7913 89.2943 57.7554 89.3742 57.7388 89.4589C57.7222 89.5436 57.7254 89.631 57.7481 89.7144L67.3661 122.476C67.4607 122.79 67.655 123.066 67.9199 123.262C68.1849 123.458 68.5066 123.564 68.8374 123.565H126.013C126.124 123.566 126.233 123.541 126.332 123.493C126.432 123.445 126.518 123.374 126.585 123.287C126.65 123.2 126.694 123.1 126.713 122.994C126.731 122.887 126.725 122.778 126.694 122.675L116.79 88.9997H58.2919Z" fill="#231F20"/>
<path d="M116.424 109.89L112.949 124.529C112.765 125.313 112.318 126.012 111.682 126.511C111.045 127.011 110.257 127.282 109.445 127.28H73.28C72.7371 127.28 72.2014 127.158 71.7128 126.924C71.2242 126.69 70.7953 126.349 70.4584 125.927C70.1214 125.506 69.885 125.014 69.7669 124.489C69.6488 123.964 69.652 123.419 69.7763 122.896L72.8392 109.89H69.845L66.9138 122.227C66.6925 123.177 66.6904 124.164 66.9075 125.115C67.1246 126.066 67.5553 126.956 68.1677 127.719C68.7801 128.482 69.5582 129.098 70.4444 129.522C71.3305 129.946 72.3017 130.167 73.2857 130.168H109.473C110.94 130.167 112.363 129.676 113.514 128.776C114.665 127.876 115.476 126.617 115.817 125.204L119.446 109.89H116.424Z" fill="white"/>
<path d="M109.445 130.491H73.28C72.2504 130.491 71.2341 130.26 70.3073 129.815C69.3804 129.371 68.567 128.725 67.9277 127.925C67.2885 127.125 66.84 126.193 66.6159 125.197C66.3917 124.202 66.3977 123.169 66.6333 122.176L69.5587 109.833C69.5742 109.771 69.6103 109.716 69.6612 109.677C69.7121 109.638 69.7749 109.617 69.8393 109.618H72.8621C72.905 109.618 72.9473 109.628 72.9859 109.647C73.0244 109.666 73.0584 109.692 73.0853 109.725C73.1116 109.759 73.1299 109.797 73.1389 109.839C73.1478 109.88 73.1471 109.923 73.1369 109.964L70.0511 122.97C69.9373 123.452 69.9349 123.954 70.0441 124.437C70.1533 124.92 70.3712 125.373 70.6816 125.761C70.992 126.149 71.3869 126.463 71.8368 126.679C72.2868 126.895 72.7801 127.008 73.28 127.008H109.468C110.216 127.01 110.943 126.76 111.529 126.299C112.115 125.839 112.527 125.195 112.697 124.473L116.172 109.833C116.186 109.772 116.221 109.717 116.271 109.678C116.321 109.639 116.383 109.617 116.446 109.618H119.469C119.512 109.619 119.554 109.629 119.592 109.647C119.631 109.666 119.664 109.693 119.691 109.726C119.718 109.759 119.737 109.797 119.747 109.838C119.757 109.879 119.758 109.922 119.75 109.964L116.114 125.278C115.765 126.768 114.914 128.096 113.702 129.043C112.49 129.99 110.989 130.501 109.445 130.491ZM70.0396 110.185L67.1771 122.306C66.96 123.217 66.954 124.165 67.1597 125.078C67.3654 125.992 67.7774 126.847 68.3648 127.581C68.9521 128.314 69.6995 128.905 70.5509 129.311C71.4022 129.717 72.3353 129.926 73.28 129.924H109.468C110.879 129.928 112.251 129.457 113.357 128.588C114.464 127.72 115.24 126.505 115.559 125.142L119.109 110.185H116.675L113.24 124.603C113.044 125.451 112.562 126.207 111.875 126.747C111.187 127.287 110.334 127.579 109.456 127.575H73.28C72.6935 127.576 72.1146 127.444 71.5866 127.191C71.0586 126.938 70.5952 126.57 70.2312 126.115C69.8672 125.659 69.6119 125.128 69.4845 124.56C69.3572 123.993 69.361 123.405 69.4958 122.839L72.4957 110.185H70.0396Z" fill="#231F20"/>
<path d="M163.059 80.0378C163.059 80.0378 168.178 102.556 163.987 108.307C159.796 114.059 130.53 113.151 130.53 113.151C130.53 113.151 125.784 118.795 121.662 118.421C117.54 118.046 119.944 110.321 124.794 107.105L124.124 104.422L149.926 100.321L146.491 84.1387" fill="white"/>
<path d="M122.04 118.721C121.899 118.721 121.755 118.721 121.61 118.721C121.077 118.695 120.567 118.494 120.161 118.15C119.755 117.807 119.476 117.339 119.366 116.821C118.719 114.308 120.792 109.516 124.439 106.997L123.82 104.507C123.81 104.47 123.808 104.431 123.814 104.393C123.82 104.355 123.834 104.318 123.855 104.286C123.876 104.253 123.905 104.224 123.938 104.203C123.972 104.181 124.01 104.167 124.049 104.161L149.554 100.106L146.176 84.2239C146.169 84.1874 146.169 84.1498 146.176 84.1132C146.183 84.0766 146.197 84.0418 146.218 84.0107C146.239 83.9797 146.266 83.9529 146.297 83.9321C146.328 83.9112 146.363 83.8967 146.4 83.8892C146.436 83.8809 146.474 83.8799 146.511 83.8863C146.548 83.8927 146.583 83.9063 146.614 83.9264C146.646 83.9465 146.673 83.9726 146.694 84.0033C146.715 84.0339 146.73 84.0684 146.737 84.1048L150.172 100.287C150.181 100.325 150.181 100.364 150.173 100.403C150.165 100.441 150.15 100.477 150.127 100.508C150.105 100.54 150.077 100.567 150.045 100.587C150.012 100.608 149.976 100.622 149.938 100.627L124.444 104.683L125.017 107.065C125.031 107.121 125.028 107.18 125.008 107.234C124.987 107.287 124.95 107.334 124.902 107.366C121.399 109.691 119.298 114.371 119.899 116.696C119.976 117.097 120.187 117.461 120.499 117.727C120.811 117.994 121.205 118.148 121.616 118.165C125.538 118.528 130.204 113.061 130.238 112.998C130.266 112.965 130.301 112.939 130.341 112.921C130.38 112.903 130.424 112.895 130.467 112.896C130.759 112.896 159.665 113.73 163.706 108.166C167.748 102.601 162.79 80.3726 162.739 80.1287C162.731 80.0914 162.73 80.0529 162.737 80.0154C162.743 79.9778 162.757 79.942 162.778 79.9098C162.799 79.8777 162.826 79.8499 162.857 79.8281C162.889 79.8063 162.925 79.7909 162.962 79.7827C163 79.7745 163.039 79.7737 163.076 79.7804C163.114 79.7871 163.151 79.8011 163.183 79.8216C163.215 79.8421 163.243 79.8688 163.265 79.9001C163.287 79.9314 163.303 79.9666 163.311 80.0039C163.523 80.9284 168.407 102.692 164.187 108.5C160.065 114.172 133.049 113.537 130.604 113.463C129.957 114.212 125.876 118.721 122.04 118.721Z" fill="#231F20"/>
<path d="M132.356 68.8866C132.312 68.8859 132.269 68.8742 132.23 68.8526C132.195 68.8368 132.164 68.8141 132.138 68.786C132.112 68.7578 132.092 68.7247 132.079 68.6887C132.066 68.6527 132.061 68.6145 132.063 68.5763C132.065 68.5382 132.076 68.501 132.093 68.4669C136.249 59.9588 146.921 54.2357 147.029 54.1789C147.063 54.1603 147.1 54.1485 147.139 54.1445C147.177 54.1404 147.216 54.144 147.253 54.1551C147.289 54.1662 147.324 54.1846 147.353 54.2092C147.383 54.2338 147.407 54.264 147.424 54.298C147.443 54.3318 147.455 54.369 147.46 54.4074C147.464 54.4458 147.46 54.4847 147.449 54.5217C147.438 54.5587 147.419 54.5931 147.394 54.6229C147.369 54.6527 147.339 54.6772 147.304 54.6951C147.201 54.7518 136.696 60.3672 132.625 68.7221C132.6 68.7714 132.562 68.8128 132.514 68.8418C132.467 68.8708 132.412 68.8863 132.356 68.8866Z" fill="#231F20"/>
<path d="M114.712 68.4838C114.67 68.4924 114.627 68.4924 114.586 68.4838C104.613 63.9462 103.405 53.9747 103.393 53.8783C103.385 53.8009 103.409 53.7234 103.458 53.6629C103.507 53.6023 103.579 53.5635 103.657 53.555C103.695 53.5502 103.734 53.5531 103.771 53.5634C103.809 53.5737 103.844 53.5912 103.874 53.615C103.904 53.6387 103.93 53.6682 103.948 53.7017C103.967 53.7352 103.979 53.7721 103.983 53.8102C103.983 53.9066 105.174 63.5548 114.861 67.8996C114.931 67.9318 114.987 67.9902 115.015 68.0623C115.042 68.1344 115.041 68.2145 115.01 68.2853C114.988 68.3454 114.947 68.3971 114.893 68.4328C114.84 68.4685 114.776 68.4864 114.712 68.4838Z" fill="#231F20"/>
<path d="M69.2725 81.3424C69.2103 81.3248 69.1556 81.2876 69.1166 81.2364C69.0776 81.1852 69.0566 81.1229 69.0566 81.0588C69.0566 80.9947 69.0776 80.9323 69.1166 80.8812C69.1556 80.83 69.2103 80.7928 69.2725 80.7752C73.5891 80.6447 75.6845 78.2284 75.7074 78.2058C75.7318 78.1762 75.7618 78.1518 75.7957 78.1338C75.8297 78.1158 75.8668 78.1047 75.9052 78.101C75.9435 78.0973 75.9821 78.1011 76.0189 78.1123C76.0557 78.1235 76.09 78.1417 76.1196 78.1661C76.1801 78.2158 76.2183 78.2873 76.2259 78.3649C76.2334 78.4425 76.2096 78.5199 76.1597 78.5801C76.0681 78.6879 73.8697 81.2233 69.2897 81.3594L69.2725 81.3424Z" fill="#231F20"/>
<path d="M146.457 84.428C146.391 84.4286 146.327 84.407 146.275 84.3669C146.223 84.3267 146.186 84.2703 146.171 84.2068C146.171 84.1047 143.474 73.6511 143.102 67.3835C143.1 67.3455 143.105 67.3074 143.118 67.2714C143.13 67.2354 143.15 67.2023 143.175 67.1738C143.201 67.1454 143.232 67.1222 143.266 67.1056C143.301 67.089 143.339 67.0794 143.377 67.0772C143.455 67.0725 143.532 67.0984 143.591 67.1494C143.65 67.2003 143.686 67.2722 143.692 67.3495C144.064 73.5604 146.72 83.9573 146.743 84.065C146.762 84.1402 146.751 84.2199 146.711 84.2868C146.672 84.3536 146.607 84.4024 146.531 84.4224L146.457 84.428Z" fill="#231F20"/>
<path d="M100.313 86.2942C100.275 86.292 100.237 86.2822 100.202 86.2653C100.167 86.2483 100.135 86.2246 100.11 86.1956C100.084 86.1665 100.065 86.1327 100.052 86.096C100.04 86.0594 100.036 86.0207 100.039 85.9822L101.458 63.9463C101.461 63.9078 101.471 63.8701 101.488 63.8354C101.505 63.8007 101.529 63.7698 101.558 63.7444C101.587 63.7191 101.621 63.6998 101.658 63.6877C101.695 63.6756 101.735 63.6709 101.773 63.674C101.812 63.6754 101.85 63.6846 101.885 63.7009C101.92 63.7172 101.951 63.7404 101.977 63.769C102.002 63.7976 102.022 63.8311 102.034 63.8674C102.047 63.9037 102.051 63.9421 102.048 63.9803L100.605 86.0163C100.602 86.091 100.57 86.1617 100.516 86.2135C100.462 86.2653 100.389 86.2942 100.313 86.2942Z" fill="#231F20"/>
<path d="M151.003 73.9688C150.95 73.9694 150.897 73.9554 150.852 73.9284C150.806 73.9013 150.769 73.8623 150.745 73.8156L147.974 68.7108C147.943 68.6363 147.943 68.5527 147.974 68.4782C148.001 68.402 148.056 68.339 148.129 68.3024L156.716 64.2809C156.751 64.2636 156.789 64.2535 156.828 64.251C156.867 64.2485 156.906 64.2537 156.943 64.2664C156.979 64.2791 157.013 64.299 157.042 64.3248C157.071 64.3507 157.095 64.3821 157.111 64.417C157.145 64.4871 157.149 64.5674 157.124 64.6407C157.098 64.7139 157.044 64.7742 156.974 64.8084L148.65 68.6994L151.157 73.3052L159.59 70.7527C159.628 70.7416 159.667 70.7378 159.706 70.7418C159.745 70.7457 159.783 70.7572 159.818 70.7756C159.852 70.7941 159.883 70.8191 159.908 70.8492C159.932 70.8793 159.951 70.914 159.962 70.9512C159.973 70.9885 159.977 71.0276 159.973 71.0663C159.969 71.1049 159.958 71.1425 159.939 71.1767C159.92 71.2109 159.895 71.2412 159.865 71.2658C159.834 71.2904 159.799 71.3088 159.762 71.3199L151.088 73.9745L151.003 73.9688Z" fill="#231F20"/>
<path d="M158.439 138.693C166.246 138.693 172.574 136.806 172.574 134.478C172.574 132.151 166.246 130.264 158.439 130.264C150.633 130.264 144.304 132.151 144.304 134.478C144.304 136.806 150.633 138.693 158.439 138.693Z" fill="white"/>
<path d="M158.439 138.976C150.356 138.976 144.018 137.002 144.018 134.478C144.018 131.954 150.356 129.98 158.439 129.98C166.523 129.98 172.861 131.954 172.861 134.478C172.861 137.002 166.523 138.976 158.439 138.976ZM158.439 130.548C150.155 130.548 144.591 132.578 144.591 134.478C144.591 136.378 150.155 138.409 158.439 138.409C166.723 138.409 172.288 136.378 172.288 134.478C172.288 132.578 166.723 130.548 158.439 130.548Z" fill="#D1D3D4"/>
<path d="M147.785 122.442L147.447 122.505C146.426 122.656 145.496 123.175 144.837 123.962C144.467 124.522 144.263 125.173 144.248 125.842C144.233 126.51 144.407 127.17 144.751 127.746C146.251 130.423 149.903 131.149 152.72 131.427C153.119 131.491 153.527 131.46 153.911 131.336C154.1 131.272 154.265 131.151 154.383 130.991C154.501 130.831 154.566 130.638 154.569 130.44C154.545 130.277 154.48 130.122 154.38 129.99C154.28 129.859 154.148 129.754 153.997 129.685C153.702 129.55 153.387 129.462 153.064 129.425C151.312 129.141 149.468 128.931 147.865 128.131C146.932 127.661 145.627 126.588 146.308 125.431C146.547 125.065 146.889 124.777 147.293 124.603C148.902 123.843 150.43 124.422 152.016 124.887C152.131 124.929 152.254 124.946 152.377 124.938C152.528 124.897 152.659 124.802 152.745 124.671C152.83 124.54 152.864 124.383 152.84 124.229C152.789 123.543 152.096 123.095 151.443 122.839C150.278 122.401 149.019 122.264 147.785 122.442Z" fill="white"/>
<path d="M153.195 131.739C153.029 131.738 152.863 131.729 152.697 131.71C148.398 131.308 145.718 130.06 144.499 127.882C144.128 127.259 143.941 126.545 143.96 125.821C143.979 125.098 144.204 124.395 144.608 123.792C145.31 122.95 146.3 122.393 147.39 122.227L147.745 122.164C149.035 121.974 150.352 122.116 151.569 122.578C152.142 122.788 153.075 123.282 153.149 124.206C153.178 124.432 153.122 124.661 152.991 124.849C152.86 125.036 152.663 125.169 152.44 125.222C152.277 125.232 152.113 125.211 151.959 125.159L151.546 125.034C150.138 124.609 148.81 124.212 147.442 124.858C147.087 125.007 146.786 125.258 146.577 125.579C146.503 125.696 146.454 125.827 146.436 125.964C146.417 126.101 146.428 126.241 146.468 126.373C146.783 127.043 147.332 127.577 148.014 127.876C149.436 128.489 150.944 128.883 152.485 129.044L153.132 129.147C153.488 129.185 153.834 129.283 154.157 129.436C154.387 129.521 154.583 129.678 154.716 129.883C154.85 130.087 154.913 130.329 154.897 130.572C154.881 130.815 154.786 131.046 154.627 131.232C154.468 131.417 154.253 131.547 154.014 131.603C153.752 131.697 153.474 131.743 153.195 131.739ZM147.831 122.726L147.505 122.783C146.554 122.923 145.687 123.4 145.066 124.127C144.728 124.644 144.543 125.244 144.532 125.859C144.521 126.475 144.684 127.081 145.003 127.609C146.119 129.606 148.655 130.763 152.749 131.143C153.1 131.201 153.461 131.177 153.802 131.075C153.935 131.031 154.051 130.948 154.137 130.838C154.223 130.728 154.273 130.595 154.283 130.457C154.264 130.344 154.218 130.237 154.148 130.146C154.078 130.055 153.987 129.983 153.882 129.935C153.616 129.815 153.332 129.738 153.041 129.708L152.394 129.606C150.793 129.437 149.229 129.024 147.757 128.381C146.932 128.017 146.276 127.359 145.919 126.537C145.856 126.33 145.838 126.111 145.867 125.896C145.896 125.681 145.97 125.474 146.085 125.29C146.35 124.871 146.737 124.543 147.195 124.348C148.764 123.605 150.264 124.053 151.712 124.49L152.125 124.615C152.202 124.643 152.283 124.656 152.365 124.654C152.503 124.654 152.588 124.422 152.577 124.252C152.531 123.616 151.712 123.242 151.363 123.117C150.238 122.691 149.022 122.561 147.831 122.737V122.726Z" fill="#231F20"/>
<path d="M149.108 119.572C149.108 119.572 151.753 132.652 151.97 133.44C152.188 134.229 158.439 137.467 163.42 134.285L167.777 120.916L149.108 119.572Z" fill="white"/>
<path d="M158.548 135.947C157.052 135.935 155.57 135.655 154.174 135.119C153.075 134.699 151.827 134.019 151.69 133.514C151.478 132.726 148.936 120.168 148.827 119.629C148.817 119.586 148.817 119.542 148.827 119.499C148.838 119.457 148.859 119.418 148.888 119.385C148.917 119.352 148.954 119.327 148.995 119.311C149.036 119.295 149.081 119.289 149.125 119.294L167.794 120.667C167.838 120.669 167.88 120.681 167.918 120.702C167.956 120.723 167.989 120.753 168.013 120.789C168.038 120.824 168.053 120.865 168.059 120.908C168.065 120.951 168.06 120.995 168.046 121.035L163.689 134.405C163.668 134.466 163.625 134.518 163.569 134.552C162.069 135.493 160.323 135.978 158.548 135.947ZM149.463 119.884C149.892 122.011 152.056 132.669 152.245 133.367C152.325 133.554 153.356 134.314 155.182 134.864C156.899 135.38 160.185 135.964 163.197 134.104L167.41 121.177L149.463 119.884Z" fill="#231F20"/>
<path d="M167.822 120.335C167.914 118.119 163.801 116.152 158.635 115.942C153.47 115.732 149.209 117.358 149.117 119.574C149.025 121.79 153.138 123.757 158.303 123.967C163.468 124.177 167.73 122.551 167.822 120.335Z" fill="#231F20"/>
<path d="M159.195 124.269C158.892 124.269 158.588 124.269 158.285 124.269C152.875 124.053 148.718 122 148.821 119.584C148.924 117.167 153.235 115.466 158.64 115.687C164.044 115.908 168.2 117.956 168.097 120.372C168.052 121.563 166.952 122.641 165.057 123.344C163.175 123.999 161.189 124.312 159.195 124.269ZM157.758 116.209C153.218 116.209 149.468 117.683 149.388 119.612C149.308 121.631 153.396 123.509 158.308 123.707C160.538 123.836 162.772 123.526 164.88 122.794C166.54 122.164 167.514 121.262 167.554 120.327C167.639 118.302 163.546 116.424 158.64 116.226L157.758 116.209Z" fill="#231F20"/>
<path d="M136.066 83.2313H105.775C105.699 83.2313 105.626 83.2014 105.573 83.1482C105.519 83.095 105.489 83.0229 105.489 82.9477V74.0879C105.49 74.0132 105.521 73.9419 105.574 73.889C105.628 73.8361 105.7 73.8058 105.775 73.8043H136.066C136.142 73.8043 136.215 73.8342 136.268 73.8874C136.322 73.9406 136.352 74.0127 136.352 74.0879V82.9647C136.348 83.0369 136.316 83.1048 136.263 83.1543C136.209 83.2039 136.139 83.2314 136.066 83.2313ZM106.061 82.6641H135.78V74.3715H106.061V82.6641Z" fill="white"/>
<path d="M192.234 146.015H36.7602V151.954H192.234V146.015Z" fill="white"/>
<path d="M192.24 152.238H36.7602C36.6843 152.238 36.6115 152.208 36.5578 152.154C36.5041 152.101 36.474 152.029 36.474 151.954V146.015C36.4754 145.941 36.5061 145.869 36.5594 145.816C36.6128 145.763 36.6848 145.733 36.7602 145.732H192.24C192.315 145.733 192.387 145.763 192.441 145.816C192.494 145.869 192.525 145.941 192.526 146.015V151.954C192.526 152.029 192.496 152.101 192.442 152.154C192.388 152.208 192.316 152.238 192.24 152.238ZM37.0465 151.67H191.954V146.299H37.0465V151.67Z" fill="#D1D3D4"/>
<path d="M167.771 90.5539C167.696 90.5509 167.624 90.5192 167.572 90.4652C167.52 90.4113 167.491 90.3394 167.491 90.2646C167.491 89.6123 167.909 74.2354 169.62 68.9093C171.332 63.5832 174.544 61.3655 174.675 61.2804C174.738 61.2383 174.816 61.2227 174.89 61.237C174.965 61.2514 175.031 61.2945 175.073 61.3569C175.116 61.4194 175.132 61.496 175.117 61.5699C175.103 61.6438 175.059 61.709 174.996 61.7512C174.962 61.7512 171.83 63.9009 170.164 69.0795C168.498 74.258 168.069 90.1171 168.063 90.2759C168.062 90.3132 168.054 90.3499 168.039 90.384C168.024 90.4182 168.002 90.449 167.975 90.4748C167.948 90.5006 167.916 90.5209 167.881 90.5345C167.846 90.548 167.809 90.5546 167.771 90.5539Z" fill="white"/>
</svg>
