<svg width="92" height="92" viewBox="0 0 92 92" fill="none" xmlns="http://www.w3.org/2000/svg">
<path d="M35.9183 67.1216C24.0733 70.4183 43.0867 77.2416 58.1517 70.955C56.6897 70.3864 55.279 69.6939 53.935 68.885C48.7047 70.0758 43.302 70.3095 37.9883 69.575C32.9667 69 35.9183 67.1216 35.9183 67.1216ZM56.35 60.6816C49.6035 62.1488 42.6602 62.4856 35.8033 61.6783C30.7817 61.1416 34.0783 58.7266 34.0783 58.7266C21.045 63.02 41.3233 67.9266 59.5317 62.56C58.3479 62.171 57.2624 61.5302 56.35 60.6816ZM63.3267 23.3833C63.3267 23.3833 36.9917 29.9383 49.565 44.4283C50.0556 45.0164 50.4211 45.6983 50.6393 46.4323C50.8575 47.1664 50.9238 47.9373 50.8341 48.6978C50.7444 49.4583 50.5006 50.1926 50.1176 50.8558C49.7347 51.519 49.2206 52.0971 48.6067 52.555C48.6067 52.555 58.0367 47.6866 53.705 41.5916C49.3733 35.4966 46.575 33.0816 63.3267 23.3833Z" fill="#0C82BF"/>
<path d="M69.4983 73.37C69.4983 73.37 71.645 75.1333 67.0833 76.5133C58.3817 79.1583 30.935 79.9633 23.3067 76.5133C20.5467 75.325 25.6833 73.6766 27.14 73.3316C28.0035 73.1088 28.8934 73.0056 29.785 73.025C26.7183 70.8783 10.0433 77.2416 21.3133 79.0816C52.1717 84.3333 77.4333 76.935 69.4983 73.37ZM58.9183 54.6633C60.0456 53.9504 61.2244 53.3226 62.445 52.785C62.445 52.785 56.6567 53.82 50.945 54.3183C44.803 54.9111 38.6213 54.9752 32.4683 54.51C23.345 53.3216 37.3367 49.8333 37.3367 49.8333C33.1261 49.8007 28.9702 50.7871 25.2233 52.7083C17.3267 56.6566 44.735 58.3816 58.9183 54.6633ZM62.4067 64.0166C62.3229 64.1468 62.2195 64.2632 62.1 64.3616C81.2667 59.3016 74.29 46.5366 65.09 49.7566C64.5825 49.9433 64.1421 50.2769 63.825 50.715C63.825 50.715 64.3617 50.5233 65.4733 50.255C70.15 49.2966 76.6667 56.5033 62.4067 64.0166ZM46 49.8333C43.1633 43.4316 33.5033 37.7966 46 27.945C61.6783 15.64 53.6667 7.66663 53.6667 7.66663C56.8867 20.355 42.1667 24.1883 37.03 32.085C33.465 37.49 38.8317 43.2783 46 49.8333Z" fill="#0C82BF"/>
<path d="M62.905 81.7267C51.3235 83.7095 39.5051 83.8905 27.8683 82.2634C27.8683 82.2634 29.6317 83.72 38.755 84.295C52.5933 85.1767 73.83 83.835 74.3667 77.28C74.3667 77.28 73.37 79.7334 62.905 81.7267Z" fill="#0C82BF"/>
</svg>
