<svg width="92" height="92" viewBox="0 0 92 92" fill="none" xmlns="http://www.w3.org/2000/svg">
<path d="M11 11H80V80H11V11ZM74.3458 63.5435C73.8437 60.3963 71.7928 57.7513 65.7132 55.2827C63.5972 54.2898 61.2473 53.6037 60.542 52.009C60.2813 51.0583 60.243 50.5447 60.4117 49.9812C60.8448 48.1258 63.0452 47.57 64.7702 48.0837C65.8933 48.4287 66.9283 49.2912 67.5762 50.675C70.547 48.7315 70.547 48.7315 72.6208 47.4397C71.8427 46.236 71.4555 45.7108 70.938 45.1933C69.1248 43.1693 66.7098 42.1343 62.7883 42.2225L60.7643 42.4793C58.8208 42.9547 56.9655 43.9935 55.8462 45.3697C52.5687 49.0803 53.5155 55.5472 57.483 58.2267C61.4045 61.1592 67.1468 61.8032 67.879 64.5632C68.569 67.9288 65.3797 69.006 62.2248 68.6188C59.898 68.0975 58.6023 66.936 57.1802 64.7778L51.9208 67.7985C52.5227 69.1747 53.2127 69.7803 54.2477 70.9878C59.2502 76.0325 71.7583 75.7757 74.0008 68.0975C74.0813 67.8407 74.6908 66.0735 74.2155 63.3557L74.3458 63.5435ZM48.5207 42.7132H42.0577C42.0577 48.283 42.0308 53.8222 42.0308 59.4035C42.0308 62.9455 42.211 66.1962 41.6322 67.1967C40.6853 69.1785 38.2358 68.9255 37.128 68.5728C35.9895 68.0132 35.4107 67.235 34.7398 66.1157C34.5597 65.8167 34.4255 65.556 34.3757 65.556L29.1317 68.7913C30.0095 70.6045 31.2898 72.1608 32.942 73.1498C35.3992 74.618 38.6997 75.0933 42.1573 74.319C44.4113 73.6673 46.3548 72.3295 47.363 70.2595C48.835 67.5877 48.5207 64.3063 48.5092 60.6417C48.5398 54.7345 48.5092 48.8235 48.5092 42.8742L48.5207 42.7132Z" fill="#EAD41C"/>
</svg>
