<svg width="92" height="92" viewBox="0 0 92 92" fill="none" xmlns="http://www.w3.org/2000/svg">
<path d="M46 84.2758C44.9458 84.2758 43.9607 83.9922 43.0407 83.5015L33.6912 77.9508C32.292 77.1727 32.9935 76.889 33.4152 76.7472C35.3165 76.1147 35.6692 75.9767 37.6357 74.8573C37.8503 74.7155 38.1302 74.7807 38.3448 74.9225L45.5132 79.2158C45.7968 79.3538 46.1495 79.3538 46.3603 79.2158L74.4165 62.974C74.7002 62.836 74.8382 62.5523 74.8382 62.1997V29.7773C74.8382 29.4285 74.7002 29.1448 74.4165 29.0068L46.3603 12.834C46.0805 12.6922 45.7278 12.6922 45.5132 12.834L17.4493 29.003C17.1695 29.141 17.0277 29.4975 17.0277 29.7735V62.192C17.0277 62.4718 17.1695 62.8283 17.4493 62.9663L25.116 67.4015C29.2637 69.5022 31.8703 67.0373 31.8703 64.584V32.591C31.8703 32.1693 32.2192 31.7438 32.7137 31.7438H36.3017C36.7157 31.7438 37.145 32.0965 37.145 32.591V64.5878C37.145 70.1423 34.1243 73.3815 28.8497 73.3815C27.232 73.3815 25.967 73.3815 22.379 71.6182L14.9998 67.4053C14.1008 66.8827 13.3546 66.1332 12.836 65.2318C12.3173 64.3304 12.0443 63.3086 12.0443 62.2687V29.8463C12.0443 27.738 13.1675 25.7677 14.9998 24.7135L43.0445 8.47167C43.9549 7.98478 44.9714 7.73004 46.0038 7.73004C47.0363 7.73004 48.0528 7.98478 48.9632 8.47167L77.0117 24.7135C78.8478 25.7638 79.9672 27.738 79.9672 29.8463V62.2687C79.9672 64.3732 78.844 66.3435 77.0117 67.4053L48.9632 83.6433C48.0393 84.065 46.9852 84.2758 46 84.2758ZM54.648 61.9812C42.343 61.9812 39.813 56.3538 39.813 51.5775C39.813 51.1558 40.1657 50.7303 40.6563 50.7303H44.3133C44.735 50.7303 45.0838 51.0102 45.0838 51.4357C45.6473 55.1578 47.2612 56.9902 54.7208 56.9902C60.6242 56.9902 63.1618 55.6485 63.1618 52.486C63.1618 50.6575 62.4527 49.3235 53.245 48.4112C45.5822 47.6445 40.802 45.9463 40.802 39.8322C40.802 34.1397 45.5822 30.7625 53.6015 30.7625C62.5983 30.7625 67.0297 33.8637 67.5893 40.6065C67.5826 40.8341 67.5079 41.0544 67.3747 41.239C67.2328 41.377 67.0258 41.5188 66.815 41.5188H63.1618C62.9813 41.515 62.8071 41.4511 62.6669 41.3373C62.5267 41.2234 62.4284 41.0661 62.3875 40.8902C61.5403 37.0108 59.363 35.7535 53.6015 35.7535C47.127 35.7535 46.3527 38.0037 46.3527 39.6903C46.3527 41.7258 47.2612 42.3583 55.9897 43.4853C64.6377 44.6085 68.7163 46.2262 68.7163 52.279C68.6397 58.4698 63.5835 61.9812 54.648 61.9812Z" fill="#7CC327"/>
</svg>
