<svg width="92" height="92" viewBox="0 0 92 92" fill="none" xmlns="http://www.w3.org/2000/svg">
<rect width="92" height="92" fill="white"/>
<path d="M46 49.9483C49.779 49.9483 52.8425 46.8848 52.8425 43.1058C52.8425 39.3268 49.779 36.2633 46 36.2633C42.221 36.2633 39.1575 39.3268 39.1575 43.1058C39.1575 46.8848 42.221 49.9483 46 49.9483Z" fill="#5CCFEE"/>
<path d="M26.841 56.7103L25.3268 56.3231C14.0798 53.4826 7.62833 48.6526 7.62833 43.0905C7.62833 37.5245 14.0837 32.6983 25.3268 29.8578L26.841 29.4745L27.2665 30.9733C28.4032 34.8975 29.8597 38.7219 31.6212 42.4081L31.947 43.0905L31.6212 43.7728C29.8578 47.4643 28.3973 51.29 27.2665 55.2153L26.841 56.7103ZM24.6292 33.3461C16.0847 35.7535 10.8368 39.4258 10.8368 43.0905C10.8368 46.7475 16.0808 50.4236 24.6292 52.8271C25.6757 49.4998 26.9407 46.2453 28.405 43.0905C26.93 39.9304 25.6686 36.675 24.6292 33.3461ZM65.1552 56.7103L64.7335 55.2076C63.5937 51.2827 62.1361 47.4572 60.375 43.769L60.0492 43.0905L60.375 42.4043C62.1383 38.7205 63.5912 34.891 64.7335 30.9656L65.1552 29.4706L66.6693 29.854C77.9202 32.6945 84.3678 37.5206 84.3678 43.0905C84.3678 48.6565 77.9163 53.4826 66.6693 56.3231L65.1552 56.7103ZM63.5835 43.0905C65.1168 46.4101 66.3933 49.6761 67.367 52.8271C75.9153 50.4236 81.1632 46.7475 81.1632 43.0905C81.1632 39.4258 75.9192 35.7573 67.367 33.3461C66.3215 36.6739 65.0576 39.9291 63.5835 43.0905Z" fill="#5CCFEE"/>
<path d="M24.6062 33.3308L24.1845 31.8358C21.0182 20.6885 21.9765 12.7036 26.818 9.92064C31.5522 7.17981 39.169 10.419 47.1462 18.6031L48.2348 19.7225L47.1462 20.838C44.3129 23.7846 41.7233 26.9562 39.4028 30.3216L38.9697 30.9426L38.2183 31.004C34.1381 31.3244 30.0907 31.977 26.1165 32.9551L24.6062 33.3308ZM30.6705 12.1363C29.8118 12.1363 29.0528 12.3241 28.4127 12.6921C25.2387 14.5206 24.679 20.8878 26.864 29.4821C30.2795 28.727 33.7257 28.1865 37.1987 27.8836C39.2093 25.0318 41.4028 22.3134 43.7652 19.7455C38.7703 14.8886 34.0553 12.1363 30.6705 12.1363ZM61.3257 77.2416C56.7717 77.2416 50.922 73.807 44.85 67.574L43.7652 66.4585L44.85 65.3468C47.6838 62.3954 50.2746 59.2201 52.5972 55.8516L53.0265 55.2383L53.7702 55.1655C57.8519 54.8507 61.9007 54.2007 65.8758 53.222L67.39 52.8386L67.8155 54.3375C70.9665 65.4771 70.012 73.4735 65.1782 76.2565C64.0045 76.9217 62.6746 77.2618 61.3257 77.2416ZM48.2348 66.4316C53.2258 71.2885 57.9447 74.0446 61.3257 74.0446C62.1882 74.0446 62.9472 73.853 63.5835 73.4888C66.7613 71.6565 67.3248 65.2778 65.1322 56.6835C61.7205 57.4425 58.2705 57.9868 54.7898 58.2896C52.7877 61.1459 50.5979 63.8659 48.2348 66.4316Z" fill="#5CCFEE"/>
<path d="M67.39 33.3308L65.8758 32.9513C61.9009 31.9701 57.8521 31.3175 53.7702 31.0002L53.0265 30.935L52.5972 30.314C50.2778 26.9467 47.6868 23.7749 44.85 20.8303L43.7652 19.7148L44.85 18.6032C52.8233 10.4228 60.4363 7.18366 65.1782 9.92066C70.0158 12.7075 70.978 20.6923 67.8155 31.8358L67.39 33.3308ZM54.7898 27.8837C58.4468 28.2095 61.9122 28.7577 65.1322 29.4822C67.321 20.8878 66.7613 14.5207 63.5835 12.6883C60.4248 10.8598 54.4793 13.6582 48.2348 19.7455C50.5962 22.3138 52.7888 25.0278 54.7898 27.8837ZM30.6705 77.2416C29.3217 77.2609 27.992 76.9209 26.818 76.2565C21.9765 73.4735 21.0182 65.481 24.1807 54.3375L24.5947 52.8387L26.1088 53.222C29.8042 54.1535 33.8752 54.809 38.2145 55.1655L38.9582 55.2383L39.3913 55.8517C41.7067 59.2173 44.298 62.3952 47.1347 65.3468L48.2233 66.4585L47.1347 67.574C41.0665 73.8108 35.2168 77.2416 30.6705 77.2416ZM26.864 56.6873C24.679 65.2817 25.2387 71.6603 28.4127 73.4927C31.5752 75.2943 37.5015 72.5152 43.7652 66.4317C41.4037 63.8629 39.2103 61.1446 37.1987 58.2935C33.7222 57.986 30.2698 57.4495 26.864 56.6873Z" fill="#5CCFEE"/>
<path d="M46 58.6998C43.3665 58.6998 40.664 58.5886 37.95 58.3625L37.1987 58.2973L36.7655 57.6763C35.2351 55.4756 33.7951 53.2133 32.4492 50.8951C31.1132 48.5707 29.8715 46.1934 28.727 43.769L28.405 43.0905L28.727 42.4043C29.8732 39.9816 31.1113 37.605 32.4492 35.282C33.7793 32.9973 35.2322 30.7126 36.7655 28.497L37.1987 27.8836L37.95 27.8146C43.3047 27.3661 48.6876 27.3661 54.0423 27.8146L54.786 27.8875L55.2192 28.5008C58.285 32.9044 60.9777 37.5563 63.2692 42.4081L63.5873 43.0943L63.2692 43.7728C60.9841 48.628 58.2911 53.2804 55.2192 57.6801L54.786 58.3011L54.0423 58.3663C51.336 58.5848 48.6297 58.6998 46 58.6998ZM38.9697 55.2345C43.7038 55.591 48.2962 55.591 53.0265 55.2345C55.6672 51.3675 58.0147 47.3081 60.0492 43.0905C58.0219 38.8691 55.6741 34.8092 53.0265 30.9465C48.3478 30.5861 43.6484 30.5861 38.9697 30.9465C36.3198 34.8078 33.972 38.8678 31.947 43.0905C33.9859 47.3058 36.3331 51.3648 38.9697 55.2345Z" fill="#5CCFEE"/>
</svg>
